<?xml version="1.0" encoding="UTF-8" standalone="no"?>
<svg
   xmlns:dc="http://purl.org/dc/elements/1.1/"
   xmlns:cc="http://creativecommons.org/ns#"
   xmlns:rdf="http://www.w3.org/1999/02/22-rdf-syntax-ns#"
   xmlns:svg="http://www.w3.org/2000/svg"
   xmlns="http://www.w3.org/2000/svg"
   xmlns:sodipodi="http://sodipodi.sourceforge.net/DTD/sodipodi-0.dtd"
   xmlns:inkscape="http://www.inkscape.org/namespaces/inkscape"
   viewBox="0 0 1133.8445 1133.9474"
   version="1.1"
   id="svg240"
   sodipodi:docname="glass template EN - outlines mirrored visicut ready.svg"
   width="1133.8445"
   height="1133.9474"
   inkscape:version="0.92.2 5c3e80d, 2017-08-06">
  <metadata
     id="metadata244">
    <rdf:RDF>
      <cc:Work
         rdf:about="">
        <dc:format>image/svg+xml</dc:format>
        <dc:type
           rdf:resource="http://purl.org/dc/dcmitype/StillImage" />
        <dc:title>glass template EN</dc:title>
      </cc:Work>
    </rdf:RDF>
  </metadata>
  <sodipodi:namedview
     pagecolor="#ffffff"
     bordercolor="#666666"
     borderopacity="1"
     objecttolerance="10"
     gridtolerance="10"
     guidetolerance="10"
     inkscape:pageopacity="0"
     inkscape:pageshadow="2"
     inkscape:window-width="1680"
     inkscape:window-height="925"
     id="namedview242"
     showgrid="false"
     showguides="false"
     inkscape:zoom="0.66917293"
     inkscape:cx="670.64479"
     inkscape:cy="690.49873"
     inkscape:window-x="0"
     inkscape:window-y="1"
     inkscape:window-maximized="1"
     inkscape:current-layer="layer3"
     fit-margin-top="0"
     fit-margin-left="0"
     fit-margin-right="0"
     fit-margin-bottom="0" />
  <defs
     id="defs4">
    <style
       id="style2">.cls-1{fill:none;stroke:#fc3703;stroke-miterlimit:10;stroke-width:0.5px;}.cls-2,.cls-3{font-size:36px;font-family:Roboto-Light, Roboto;}.cls-3{letter-spacing:-0.02393em;}</style>
    <style
       id="style1232">.cls-1,.cls-2{fill:none;stroke:#fc3703;stroke-miterlimit:10;stroke-width:0.5px;}.cls-2{opacity:0.97;isolation:isolate;}</style>
    <style
       id="style1893">.cls-1{fill:none;stroke:#fc3703;stroke-miterlimit:10;stroke-width:0.5px;}</style>
    <style
       id="style3800">.cls-1{fill:none;stroke:#fc3703;stroke-miterlimit:10;stroke-width:0.5px;}.cls-2,.cls-3{font-size:36px;font-family:Roboto-Light, Roboto;}.cls-3{letter-spacing:-0.02393em;}</style>
  </defs>
  <title
     id="title6">glass template EN</title>
  <g
     inkscape:groupmode="layer"
     id="layer1"
     inkscape:label="Do not laser"
     style="display:inline"
     transform="translate(-0.0068978,283.05017)">
    <g
       id="g12180"
       transform="matrix(-1.3320932,0,0,1.3326585,1133.4733,-283.05023)">
      <rect
         height="850.3913"
         width="850.39124"
         y="0.25"
         x="0.25"
         class="cls-1"
         id="rect4492-7"
         style="fill:none;stroke:#fc3703;stroke-width:0.5px;stroke-miterlimit:10" />
      <circle
         r="5.6692901"
         cy="57.017281"
         cx="57.0242"
         class="cls-1"
         id="path4368"
         style="fill:none;stroke:#fc3703;stroke-width:0.5px;stroke-miterlimit:10" />
      <circle
         r="5.6692901"
         cy="57.21854"
         cx="793.86737"
         class="cls-1"
         id="path4372"
         style="fill:none;stroke:#fc3703;stroke-width:0.5px;stroke-miterlimit:10" />
      <circle
         r="5.6692901"
         cy="793.85632"
         cx="57.024639"
         class="cls-1"
         id="path4374"
         style="fill:none;stroke:#fc3703;stroke-width:0.5px;stroke-miterlimit:10" />
      <circle
         r="5.6692901"
         cy="793.85632"
         cx="793.87335"
         class="cls-1"
         id="path4376"
         style="fill:none;stroke:#fc3703;stroke-width:0.5px;stroke-miterlimit:10" />
      <path
         d="m 176.81371,168.11871 h 26.71549 a 6.24169,6.24169 0 0 1 6.24169,6.24169 v 26.71552 a 6.24168,6.24168 0 0 1 -6.24168,6.24168 h -26.7155 a 6.24169,6.24169 0 0 1 -6.24169,-6.24169 V 174.3604 a 6.24169,6.24169 0 0 1 6.24169,-6.24169 z"
         class="cls-1"
         id="rect4382"
         inkscape:connector-curvature="0"
         style="fill:none;stroke:#fc3703;stroke-width:0.5px;stroke-miterlimit:10" />
      <path
         d="M 223.86949,168.11871 H 250.585 a 6.24169,6.24169 0 0 1 6.24169,6.24169 v 26.71552 a 6.24168,6.24168 0 0 1 -6.24168,6.24168 h -26.7155 a 6.24168,6.24168 0 0 1 -6.24168,-6.24168 V 174.3604 a 6.24169,6.24169 0 0 1 6.24166,-6.24169 z"
         class="cls-1"
         id="rect13966"
         inkscape:connector-curvature="0"
         style="fill:none;stroke:#fc3703;stroke-width:0.5px;stroke-miterlimit:10" />
      <path
         d="m 270.92461,168.11871 h 26.71548 a 6.24169,6.24169 0 0 1 6.24169,6.24169 v 26.71552 a 6.24168,6.24168 0 0 1 -6.24168,6.24168 h -26.7155 a 6.24168,6.24168 0 0 1 -6.24168,-6.24168 V 174.3604 a 6.24169,6.24169 0 0 1 6.24169,-6.24169 z"
         class="cls-1"
         id="rect13968"
         inkscape:connector-curvature="0"
         style="fill:none;stroke:#fc3703;stroke-width:0.5px;stroke-miterlimit:10" />
      <path
         d="m 317.98039,168.11871 h 26.71548 a 6.24169,6.24169 0 0 1 6.24169,6.24169 v 26.71552 a 6.24168,6.24168 0 0 1 -6.24168,6.24168 h -26.7155 a 6.24168,6.24168 0 0 1 -6.24168,-6.24168 V 174.3604 a 6.24169,6.24169 0 0 1 6.24169,-6.24169 z"
         class="cls-1"
         id="rect13970"
         inkscape:connector-curvature="0"
         style="fill:none;stroke:#fc3703;stroke-width:0.5px;stroke-miterlimit:10" />
      <path
         d="m 365.03483,168.11871 h 26.71549 a 6.2417,6.2417 0 0 1 6.2417,6.2417 v 26.7155 a 6.24168,6.24168 0 0 1 -6.24168,6.24168 h -26.71552 a 6.24168,6.24168 0 0 1 -6.24168,-6.24168 V 174.3604 a 6.24169,6.24169 0 0 1 6.24169,-6.24169 z"
         class="cls-1"
         id="rect13972"
         inkscape:connector-curvature="0"
         style="fill:none;stroke:#fc3703;stroke-width:0.5px;stroke-miterlimit:10" />
      <path
         d="m 412.09063,168.11871 h 26.71547 a 6.2417,6.2417 0 0 1 6.2417,6.2417 v 26.7155 a 6.24168,6.24168 0 0 1 -6.24168,6.24168 h -26.71548 a 6.2417,6.2417 0 0 1 -6.2417,-6.2417 V 174.3604 a 6.24169,6.24169 0 0 1 6.24169,-6.24169 z"
         class="cls-1"
         id="rect13974"
         inkscape:connector-curvature="0"
         style="fill:none;stroke:#fc3703;stroke-width:0.5px;stroke-miterlimit:10" />
      <path
         d="m 459.14572,168.11871 h 26.71547 a 6.2417,6.2417 0 0 1 6.2417,6.2417 v 26.7155 a 6.24168,6.24168 0 0 1 -6.24168,6.24168 h -26.71548 a 6.2417,6.2417 0 0 1 -6.2417,-6.2417 V 174.3604 a 6.24169,6.24169 0 0 1 6.24169,-6.24169 z"
         class="cls-1"
         id="rect13976"
         inkscape:connector-curvature="0"
         style="fill:none;stroke:#fc3703;stroke-width:0.5px;stroke-miterlimit:10" />
      <path
         d="m 506.2015,168.11871 h 26.7155 a 6.2417,6.2417 0 0 1 6.2417,6.2417 v 26.7155 a 6.24168,6.24168 0 0 1 -6.24168,6.24168 h -26.71551 a 6.2417,6.2417 0 0 1 -6.2417,-6.2417 V 174.3604 a 6.24169,6.24169 0 0 1 6.24169,-6.24169 z"
         class="cls-1"
         id="rect13978"
         inkscape:connector-curvature="0"
         style="fill:none;stroke:#fc3703;stroke-width:0.5px;stroke-miterlimit:10" />
      <path
         d="m 553.25529,168.11871 h 26.71547 a 6.2417,6.2417 0 0 1 6.2417,6.2417 v 26.7155 a 6.24168,6.24168 0 0 1 -6.24168,6.24168 H 553.2553 a 6.2417,6.2417 0 0 1 -6.2417,-6.2417 V 174.3604 a 6.24169,6.24169 0 0 1 6.24169,-6.24169 z"
         class="cls-1"
         id="rect13980"
         inkscape:connector-curvature="0"
         style="fill:none;stroke:#fc3703;stroke-width:0.5px;stroke-miterlimit:10" />
      <path
         d="m 600.31038,168.11871 h 26.71547 a 6.2417,6.2417 0 0 1 6.2417,6.2417 v 26.7155 a 6.24168,6.24168 0 0 1 -6.24168,6.24168 h -26.71548 a 6.2417,6.2417 0 0 1 -6.2417,-6.2417 V 174.3604 a 6.24169,6.24169 0 0 1 6.24169,-6.24169 z"
         class="cls-1"
         id="rect13982"
         inkscape:connector-curvature="0"
         style="fill:none;stroke:#fc3703;stroke-width:0.5px;stroke-miterlimit:10" />
      <path
         d="m 647.36616,168.11871 h 26.71547 a 6.2417,6.2417 0 0 1 6.2417,6.2417 v 26.7155 a 6.24168,6.24168 0 0 1 -6.24168,6.24168 h -26.71547 a 6.2417,6.2417 0 0 1 -6.2417,-6.2417 V 174.3604 a 6.24169,6.24169 0 0 1 6.24168,-6.24169 z"
         class="cls-1"
         id="rect13984"
         inkscape:connector-curvature="0"
         style="fill:none;stroke:#fc3703;stroke-width:0.5px;stroke-miterlimit:10" />
      <path
         d="m 176.8137,220.94443 h 26.7155 a 6.24168,6.24168 0 0 1 6.24168,6.24168 v 26.71553 a 6.24168,6.24168 0 0 1 -6.24168,6.24168 h -26.71549 a 6.24169,6.24169 0 0 1 -6.24169,-6.24169 v -26.71552 a 6.24168,6.24168 0 0 1 6.24168,-6.24168 z"
         class="cls-1"
         id="rect13986"
         inkscape:connector-curvature="0"
         style="fill:none;stroke:#fc3703;stroke-width:0.5px;stroke-miterlimit:10" />
      <rect
         ry="6.2416801"
         rx="6.2416801"
         height="39.198891"
         width="39.198872"
         y="220.94443"
         x="217.62781"
         class="cls-1"
         id="rect13988"
         style="fill:none;stroke:#fc3703;stroke-width:0.5px;stroke-miterlimit:10" />
      <rect
         ry="6.2416801"
         rx="6.2416801"
         height="39.198891"
         width="39.198872"
         y="220.94443"
         x="264.68292"
         class="cls-1"
         id="rect13990"
         style="fill:none;stroke:#fc3703;stroke-width:0.5px;stroke-miterlimit:10" />
      <rect
         ry="6.2416801"
         rx="6.2416801"
         height="39.198891"
         width="39.198872"
         y="220.94443"
         x="311.73868"
         class="cls-1"
         id="rect13992"
         style="fill:none;stroke:#fc3703;stroke-width:0.5px;stroke-miterlimit:10" />
      <path
         d="m 365.03482,220.94443 h 26.7155 a 6.2417,6.2417 0 0 1 6.2417,6.2417 v 26.7155 a 6.24168,6.24168 0 0 1 -6.24168,6.24168 h -26.71552 a 6.24168,6.24168 0 0 1 -6.24168,-6.24168 v -26.71552 a 6.24168,6.24168 0 0 1 6.24168,-6.24168 z"
         class="cls-1"
         id="rect13994"
         inkscape:connector-curvature="0"
         style="fill:none;stroke:#fc3703;stroke-width:0.5px;stroke-miterlimit:10" />
      <path
         d="m 412.09062,220.94443 h 26.71548 a 6.2417,6.2417 0 0 1 6.2417,6.2417 v 26.7155 a 6.24168,6.24168 0 0 1 -6.24168,6.24168 h -26.71548 a 6.2417,6.2417 0 0 1 -6.2417,-6.2417 v -26.7155 a 6.24168,6.24168 0 0 1 6.24168,-6.24168 z"
         class="cls-1"
         id="rect13996"
         inkscape:connector-curvature="0"
         style="fill:none;stroke:#fc3703;stroke-width:0.5px;stroke-miterlimit:10" />
      <path
         d="m 459.14571,220.94443 h 26.71548 a 6.2417,6.2417 0 0 1 6.2417,6.2417 v 26.7155 a 6.24168,6.24168 0 0 1 -6.24168,6.24168 h -26.71548 a 6.2417,6.2417 0 0 1 -6.2417,-6.2417 v -26.7155 a 6.24168,6.24168 0 0 1 6.24168,-6.24168 z"
         class="cls-1"
         id="rect13998"
         inkscape:connector-curvature="0"
         style="fill:none;stroke:#fc3703;stroke-width:0.5px;stroke-miterlimit:10" />
      <path
         d="M 506.20149,220.94443 H 532.917 a 6.2417,6.2417 0 0 1 6.2417,6.2417 v 26.7155 a 6.24168,6.24168 0 0 1 -6.24168,6.24168 h -26.71551 a 6.2417,6.2417 0 0 1 -6.2417,-6.2417 v -26.7155 a 6.24168,6.24168 0 0 1 6.24168,-6.24168 z"
         class="cls-1"
         id="rect14000"
         inkscape:connector-curvature="0"
         style="fill:none;stroke:#fc3703;stroke-width:0.5px;stroke-miterlimit:10" />
      <path
         d="m 553.25528,220.94443 h 26.71548 a 6.2417,6.2417 0 0 1 6.2417,6.2417 v 26.7155 a 6.24168,6.24168 0 0 1 -6.24168,6.24168 H 553.2553 a 6.2417,6.2417 0 0 1 -6.2417,-6.2417 v -26.7155 a 6.24168,6.24168 0 0 1 6.24168,-6.24168 z"
         class="cls-1"
         id="rect14002"
         inkscape:connector-curvature="0"
         style="fill:none;stroke:#fc3703;stroke-width:0.5px;stroke-miterlimit:10" />
      <path
         d="m 600.31037,220.94443 h 26.71548 a 6.2417,6.2417 0 0 1 6.2417,6.2417 v 26.7155 a 6.24168,6.24168 0 0 1 -6.24168,6.24168 h -26.71548 a 6.2417,6.2417 0 0 1 -6.2417,-6.2417 v -26.7155 a 6.24168,6.24168 0 0 1 6.24168,-6.24168 z"
         class="cls-1"
         id="rect14004"
         inkscape:connector-curvature="0"
         style="fill:none;stroke:#fc3703;stroke-width:0.5px;stroke-miterlimit:10" />
      <path
         d="m 647.36615,220.94443 h 26.71548 a 6.2417,6.2417 0 0 1 6.2417,6.2417 v 26.7155 a 6.24168,6.24168 0 0 1 -6.24168,6.24168 h -26.71547 a 6.2417,6.2417 0 0 1 -6.2417,-6.2417 v -26.7155 a 6.24168,6.24168 0 0 1 6.24167,-6.24168 z"
         class="cls-1"
         id="rect14006"
         inkscape:connector-curvature="0"
         style="fill:none;stroke:#fc3703;stroke-width:0.5px;stroke-miterlimit:10" />
      <path
         d="m 176.8137,273.77089 h 26.7155 a 6.24168,6.24168 0 0 1 6.24168,6.24168 v 26.71553 a 6.24168,6.24168 0 0 1 -6.24168,6.24168 h -26.71549 a 6.24169,6.24169 0 0 1 -6.24169,-6.24169 v -26.71552 a 6.24168,6.24168 0 0 1 6.24168,-6.24168 z"
         class="cls-1"
         id="rect14008"
         inkscape:connector-curvature="0"
         style="fill:none;stroke:#fc3703;stroke-width:0.5px;stroke-miterlimit:10" />
      <rect
         ry="6.2416801"
         rx="6.2416801"
         height="39.198891"
         width="39.198872"
         y="273.7709"
         x="217.62781"
         class="cls-1"
         id="rect14010"
         style="fill:none;stroke:#fc3703;stroke-width:0.5px;stroke-miterlimit:10" />
      <rect
         ry="6.2416801"
         rx="6.2416801"
         height="39.198891"
         width="39.198872"
         y="273.7709"
         x="264.68292"
         class="cls-1"
         id="rect14012"
         style="fill:none;stroke:#fc3703;stroke-width:0.5px;stroke-miterlimit:10" />
      <rect
         ry="6.2416801"
         rx="6.2416801"
         height="39.198891"
         width="39.198872"
         y="273.7709"
         x="311.73868"
         class="cls-1"
         id="rect14014"
         style="fill:none;stroke:#fc3703;stroke-width:0.5px;stroke-miterlimit:10" />
      <path
         d="m 365.03482,273.77089 h 26.71553 a 6.24168,6.24168 0 0 1 6.24168,6.24168 v 26.7155 a 6.2417,6.2417 0 0 1 -6.2417,6.2417 h -26.7155 a 6.24168,6.24168 0 0 1 -6.24168,-6.24168 v -26.71552 a 6.24168,6.24168 0 0 1 6.24167,-6.24168 z"
         class="cls-1"
         id="rect14016"
         inkscape:connector-curvature="0"
         style="fill:none;stroke:#fc3703;stroke-width:0.5px;stroke-miterlimit:10" />
      <path
         d="m 412.09062,273.77089 h 26.71548 a 6.2417,6.2417 0 0 1 6.2417,6.2417 v 26.7155 a 6.24168,6.24168 0 0 1 -6.24168,6.24168 h -26.71548 a 6.2417,6.2417 0 0 1 -6.2417,-6.2417 v -26.7155 a 6.24168,6.24168 0 0 1 6.24168,-6.24168 z"
         class="cls-1"
         id="rect14018"
         inkscape:connector-curvature="0"
         style="fill:none;stroke:#fc3703;stroke-width:0.5px;stroke-miterlimit:10" />
      <path
         d="m 459.14571,273.77089 h 26.71548 a 6.2417,6.2417 0 0 1 6.2417,6.2417 v 26.7155 a 6.24168,6.24168 0 0 1 -6.24168,6.24168 h -26.71548 a 6.2417,6.2417 0 0 1 -6.2417,-6.2417 v -26.7155 a 6.24168,6.24168 0 0 1 6.24168,-6.24168 z"
         class="cls-1"
         id="rect14020"
         inkscape:connector-curvature="0"
         style="fill:none;stroke:#fc3703;stroke-width:0.5px;stroke-miterlimit:10" />
      <path
         d="M 506.20149,273.77089 H 532.917 a 6.2417,6.2417 0 0 1 6.2417,6.2417 v 26.7155 a 6.24168,6.24168 0 0 1 -6.24168,6.24168 h -26.71551 a 6.2417,6.2417 0 0 1 -6.2417,-6.2417 v -26.7155 a 6.24168,6.24168 0 0 1 6.24168,-6.24168 z"
         class="cls-1"
         id="rect14022"
         inkscape:connector-curvature="0"
         style="fill:none;stroke:#fc3703;stroke-width:0.5px;stroke-miterlimit:10" />
      <path
         d="m 553.25528,273.77089 h 26.71548 a 6.2417,6.2417 0 0 1 6.2417,6.2417 v 26.7155 a 6.24168,6.24168 0 0 1 -6.24168,6.24168 H 553.2553 a 6.2417,6.2417 0 0 1 -6.2417,-6.2417 v -26.7155 a 6.24168,6.24168 0 0 1 6.24168,-6.24168 z"
         class="cls-1"
         id="rect14024"
         inkscape:connector-curvature="0"
         style="fill:none;stroke:#fc3703;stroke-width:0.5px;stroke-miterlimit:10" />
      <path
         d="m 600.31037,273.77089 h 26.71548 a 6.2417,6.2417 0 0 1 6.2417,6.2417 v 26.7155 a 6.24168,6.24168 0 0 1 -6.24168,6.24168 h -26.71548 a 6.2417,6.2417 0 0 1 -6.2417,-6.2417 v -26.7155 a 6.24168,6.24168 0 0 1 6.24168,-6.24168 z"
         class="cls-1"
         id="rect14026"
         inkscape:connector-curvature="0"
         style="fill:none;stroke:#fc3703;stroke-width:0.5px;stroke-miterlimit:10" />
      <path
         d="m 647.36615,273.77089 h 26.71548 a 6.2417,6.2417 0 0 1 6.2417,6.2417 v 26.7155 a 6.24168,6.24168 0 0 1 -6.24168,6.24168 h -26.71547 a 6.2417,6.2417 0 0 1 -6.2417,-6.2417 v -26.7155 a 6.24168,6.24168 0 0 1 6.24167,-6.24168 z"
         class="cls-1"
         id="rect14028"
         inkscape:connector-curvature="0"
         style="fill:none;stroke:#fc3703;stroke-width:0.5px;stroke-miterlimit:10" />
      <path
         d="m 176.8137,326.59734 h 26.7155 a 6.24168,6.24168 0 0 1 6.24168,6.24168 v 26.71553 a 6.24168,6.24168 0 0 1 -6.24168,6.24168 h -26.71549 a 6.24169,6.24169 0 0 1 -6.24169,-6.24169 V 332.839 a 6.24168,6.24168 0 0 1 6.24168,-6.24166 z"
         class="cls-1"
         id="rect14030"
         inkscape:connector-curvature="0"
         style="fill:none;stroke:#fc3703;stroke-width:0.5px;stroke-miterlimit:10" />
      <rect
         ry="6.2416801"
         rx="6.2416801"
         height="39.198891"
         width="39.198872"
         y="326.59735"
         x="217.62781"
         class="cls-1"
         id="rect14032"
         style="fill:none;stroke:#fc3703;stroke-width:0.5px;stroke-miterlimit:10" />
      <rect
         ry="6.2416801"
         rx="6.2416801"
         height="39.198891"
         width="39.198872"
         y="326.59735"
         x="264.68292"
         class="cls-1"
         id="rect14034"
         style="fill:none;stroke:#fc3703;stroke-width:0.5px;stroke-miterlimit:10" />
      <rect
         ry="6.2416801"
         rx="6.2416801"
         height="39.198891"
         width="39.198872"
         y="326.59735"
         x="311.73868"
         class="cls-1"
         id="rect14036"
         style="fill:none;stroke:#fc3703;stroke-width:0.5px;stroke-miterlimit:10" />
      <path
         d="m 365.03482,326.59734 h 26.71553 a 6.24168,6.24168 0 0 1 6.24165,6.24166 v 26.7155 a 6.2417,6.2417 0 0 1 -6.2417,6.2417 h -26.7155 a 6.24168,6.24168 0 0 1 -6.24168,-6.24168 V 332.839 a 6.24168,6.24168 0 0 1 6.2417,-6.24166 z"
         class="cls-1"
         id="rect14038"
         inkscape:connector-curvature="0"
         style="fill:none;stroke:#fc3703;stroke-width:0.5px;stroke-miterlimit:10" />
      <path
         d="m 412.09062,326.59734 h 26.71548 a 6.2417,6.2417 0 0 1 6.2417,6.2417 v 26.7155 a 6.24168,6.24168 0 0 1 -6.24168,6.24168 h -26.71548 a 6.2417,6.2417 0 0 1 -6.2417,-6.2417 V 332.839 a 6.24168,6.24168 0 0 1 6.24168,-6.24166 z"
         class="cls-1"
         id="rect14040"
         inkscape:connector-curvature="0"
         style="fill:none;stroke:#fc3703;stroke-width:0.5px;stroke-miterlimit:10" />
      <path
         d="m 459.14571,326.59734 h 26.71548 a 6.2417,6.2417 0 0 1 6.2417,6.2417 v 26.7155 a 6.24168,6.24168 0 0 1 -6.24168,6.24168 h -26.71548 a 6.2417,6.2417 0 0 1 -6.2417,-6.2417 V 332.839 a 6.24168,6.24168 0 0 1 6.24168,-6.24166 z"
         class="cls-1"
         id="rect14042"
         inkscape:connector-curvature="0"
         style="fill:none;stroke:#fc3703;stroke-width:0.5px;stroke-miterlimit:10" />
      <path
         d="M 506.20149,326.59734 H 532.917 a 6.2417,6.2417 0 0 1 6.2417,6.2417 v 26.7155 a 6.24168,6.24168 0 0 1 -6.24168,6.24168 h -26.71551 a 6.2417,6.2417 0 0 1 -6.2417,-6.2417 V 332.839 a 6.24168,6.24168 0 0 1 6.24168,-6.24166 z"
         class="cls-1"
         id="rect14044"
         inkscape:connector-curvature="0"
         style="fill:none;stroke:#fc3703;stroke-width:0.5px;stroke-miterlimit:10" />
      <path
         d="m 553.25528,326.59734 h 26.71548 a 6.2417,6.2417 0 0 1 6.2417,6.2417 v 26.7155 a 6.24168,6.24168 0 0 1 -6.24168,6.24168 H 553.2553 a 6.2417,6.2417 0 0 1 -6.2417,-6.2417 V 332.839 a 6.24168,6.24168 0 0 1 6.24168,-6.24166 z"
         class="cls-1"
         id="rect14046"
         inkscape:connector-curvature="0"
         style="fill:none;stroke:#fc3703;stroke-width:0.5px;stroke-miterlimit:10" />
      <path
         d="m 600.31037,326.59734 h 26.71548 a 6.2417,6.2417 0 0 1 6.2417,6.2417 v 26.7155 a 6.24168,6.24168 0 0 1 -6.24168,6.24168 h -26.71548 a 6.2417,6.2417 0 0 1 -6.2417,-6.2417 V 332.839 a 6.24168,6.24168 0 0 1 6.24168,-6.24166 z"
         class="cls-1"
         id="rect14048"
         inkscape:connector-curvature="0"
         style="fill:none;stroke:#fc3703;stroke-width:0.5px;stroke-miterlimit:10" />
      <path
         d="m 647.36615,326.59734 h 26.71548 a 6.2417,6.2417 0 0 1 6.2417,6.2417 v 26.7155 a 6.24168,6.24168 0 0 1 -6.24168,6.24168 h -26.71547 a 6.2417,6.2417 0 0 1 -6.2417,-6.2417 V 332.839 a 6.24168,6.24168 0 0 1 6.24167,-6.24166 z"
         class="cls-1"
         id="rect14050"
         inkscape:connector-curvature="0"
         style="fill:none;stroke:#fc3703;stroke-width:0.5px;stroke-miterlimit:10" />
      <path
         d="m 176.81371,379.42378 h 26.71547 a 6.2417,6.2417 0 0 1 6.2417,6.2417 v 26.71546 a 6.2417,6.2417 0 0 1 -6.2417,6.2417 H 176.81371 A 6.24169,6.24169 0 0 1 170.572,412.381 v -26.71552 a 6.24169,6.24169 0 0 1 6.24171,-6.2417 z"
         class="cls-1"
         id="rect14052"
         inkscape:connector-curvature="0"
         style="fill:none;stroke:#fc3703;stroke-width:0.5px;stroke-miterlimit:10" />
      <path
         d="M 223.86951,379.42378 H 250.585 a 6.2417,6.2417 0 0 1 6.2417,6.2417 v 26.71546 a 6.2417,6.2417 0 0 1 -6.2417,6.2417 h -26.71552 a 6.24168,6.24168 0 0 1 -6.24168,-6.24168 v -26.71547 a 6.2417,6.2417 0 0 1 6.24171,-6.24171 z"
         class="cls-1"
         id="rect14054"
         inkscape:connector-curvature="0"
         style="fill:none;stroke:#fc3703;stroke-width:0.5px;stroke-miterlimit:10" />
      <path
         d="m 270.92462,379.42378 h 26.71546 a 6.2417,6.2417 0 0 1 6.2417,6.2417 v 26.71546 a 6.2417,6.2417 0 0 1 -6.2417,6.2417 h -26.71549 a 6.24168,6.24168 0 0 1 -6.24168,-6.24168 v -26.71547 a 6.2417,6.2417 0 0 1 6.24171,-6.24171 z"
         class="cls-1"
         id="rect14056"
         inkscape:connector-curvature="0"
         style="fill:none;stroke:#fc3703;stroke-width:0.5px;stroke-miterlimit:10" />
      <path
         d="m 317.9804,379.42378 h 26.71546 a 6.2417,6.2417 0 0 1 6.2417,6.2417 v 26.71546 a 6.2417,6.2417 0 0 1 -6.2417,6.2417 h -26.71548 a 6.24168,6.24168 0 0 1 -6.24168,-6.24168 v -26.71547 a 6.2417,6.2417 0 0 1 6.2417,-6.24171 z"
         class="cls-1"
         id="rect14058"
         inkscape:connector-curvature="0"
         style="fill:none;stroke:#fc3703;stroke-width:0.5px;stroke-miterlimit:10" />
      <path
         d="m 365.03484,379.42378 h 26.71548 a 6.2417,6.2417 0 0 1 6.2417,6.2417 v 26.71546 a 6.2417,6.2417 0 0 1 -6.2417,6.2417 h -26.7155 a 6.24168,6.24168 0 0 1 -6.24168,-6.24168 v -26.71547 a 6.2417,6.2417 0 0 1 6.2417,-6.24171 z"
         class="cls-1"
         id="rect14060"
         inkscape:connector-curvature="0"
         style="fill:none;stroke:#fc3703;stroke-width:0.5px;stroke-miterlimit:10" />
      <rect
         ry="6.2417002"
         rx="6.2417002"
         height="39.198872"
         width="39.198872"
         y="379.42377"
         x="405.84894"
         class="cls-1"
         id="rect14062"
         style="fill:none;stroke:#fc3703;stroke-width:0.5px;stroke-miterlimit:10" />
      <rect
         ry="6.2417002"
         rx="6.2417002"
         height="39.198872"
         width="39.198872"
         y="379.42377"
         x="452.90402"
         class="cls-1"
         id="rect14064"
         style="fill:none;stroke:#fc3703;stroke-width:0.5px;stroke-miterlimit:10" />
      <rect
         ry="6.2417002"
         rx="6.2417002"
         height="39.198872"
         width="39.198872"
         y="379.42377"
         x="499.95981"
         class="cls-1"
         id="rect14066"
         style="fill:none;stroke:#fc3703;stroke-width:0.5px;stroke-miterlimit:10" />
      <rect
         ry="6.2417002"
         rx="6.2417002"
         height="39.198872"
         width="39.198872"
         y="379.42377"
         x="547.01361"
         class="cls-1"
         id="rect14068"
         style="fill:none;stroke:#fc3703;stroke-width:0.5px;stroke-miterlimit:10" />
      <rect
         ry="6.2417002"
         rx="6.2417002"
         height="39.198872"
         width="39.198872"
         y="379.42377"
         x="594.06866"
         class="cls-1"
         id="rect14070"
         style="fill:none;stroke:#fc3703;stroke-width:0.5px;stroke-miterlimit:10" />
      <rect
         ry="6.2417002"
         rx="6.2417002"
         height="39.198872"
         width="39.198872"
         y="379.42377"
         x="641.12445"
         class="cls-1"
         id="rect14072"
         style="fill:none;stroke:#fc3703;stroke-width:0.5px;stroke-miterlimit:10" />
      <path
         d="m 176.81372,432.25024 h 26.71546 a 6.2417,6.2417 0 0 1 6.2417,6.2417 v 26.71546 a 6.2417,6.2417 0 0 1 -6.2417,6.2417 h -26.71547 a 6.24169,6.24169 0 0 1 -6.24169,-6.24169 v -26.71547 a 6.2417,6.2417 0 0 1 6.2417,-6.2417 z"
         class="cls-1"
         id="rect14074"
         inkscape:connector-curvature="0"
         style="fill:none;stroke:#fc3703;stroke-width:0.5px;stroke-miterlimit:10" />
      <path
         d="M 223.86951,432.25024 H 250.585 a 6.2417,6.2417 0 0 1 6.2417,6.2417 v 26.71546 a 6.2417,6.2417 0 0 1 -6.2417,6.2417 h -26.71552 a 6.24168,6.24168 0 0 1 -6.24168,-6.24168 v -26.71548 a 6.2417,6.2417 0 0 1 6.24171,-6.2417 z"
         class="cls-1"
         id="rect14076"
         inkscape:connector-curvature="0"
         style="fill:none;stroke:#fc3703;stroke-width:0.5px;stroke-miterlimit:10" />
      <path
         d="m 270.92462,432.25024 h 26.71546 a 6.2417,6.2417 0 0 1 6.2417,6.2417 v 26.71546 a 6.2417,6.2417 0 0 1 -6.2417,6.2417 h -26.71549 a 6.24168,6.24168 0 0 1 -6.24168,-6.24168 v -26.71548 a 6.2417,6.2417 0 0 1 6.24171,-6.2417 z"
         class="cls-1"
         id="rect14078"
         inkscape:connector-curvature="0"
         style="fill:none;stroke:#fc3703;stroke-width:0.5px;stroke-miterlimit:10" />
      <path
         d="m 317.9804,432.25024 h 26.71546 a 6.2417,6.2417 0 0 1 6.2417,6.2417 v 26.71546 a 6.2417,6.2417 0 0 1 -6.2417,6.2417 h -26.71548 a 6.24168,6.24168 0 0 1 -6.24168,-6.24168 v -26.71548 a 6.2417,6.2417 0 0 1 6.2417,-6.2417 z"
         class="cls-1"
         id="rect14080"
         inkscape:connector-curvature="0"
         style="fill:none;stroke:#fc3703;stroke-width:0.5px;stroke-miterlimit:10" />
      <path
         d="m 365.03484,432.25024 h 26.71548 a 6.2417,6.2417 0 0 1 6.2417,6.2417 v 26.71546 a 6.2417,6.2417 0 0 1 -6.2417,6.2417 h -26.7155 a 6.24168,6.24168 0 0 1 -6.24168,-6.24168 v -26.71548 a 6.2417,6.2417 0 0 1 6.2417,-6.2417 z"
         class="cls-1"
         id="rect14082"
         inkscape:connector-curvature="0"
         style="fill:none;stroke:#fc3703;stroke-width:0.5px;stroke-miterlimit:10" />
      <rect
         ry="6.2417002"
         rx="6.2417002"
         height="39.198872"
         width="39.198872"
         y="432.25024"
         x="405.84894"
         class="cls-1"
         id="rect14084"
         style="fill:none;stroke:#fc3703;stroke-width:0.5px;stroke-miterlimit:10" />
      <rect
         ry="6.2417002"
         rx="6.2417002"
         height="39.198872"
         width="39.198872"
         y="432.25024"
         x="452.90402"
         class="cls-1"
         id="rect14086"
         style="fill:none;stroke:#fc3703;stroke-width:0.5px;stroke-miterlimit:10" />
      <rect
         ry="6.2417002"
         rx="6.2417002"
         height="39.198872"
         width="39.198872"
         y="432.25024"
         x="499.95981"
         class="cls-1"
         id="rect14088"
         style="fill:none;stroke:#fc3703;stroke-width:0.5px;stroke-miterlimit:10" />
      <rect
         ry="6.2417002"
         rx="6.2417002"
         height="39.198872"
         width="39.198872"
         y="432.25024"
         x="547.01361"
         class="cls-1"
         id="rect14090"
         style="fill:none;stroke:#fc3703;stroke-width:0.5px;stroke-miterlimit:10" />
      <rect
         ry="6.2417002"
         rx="6.2417002"
         height="39.198872"
         width="39.198872"
         y="432.25024"
         x="594.06866"
         class="cls-1"
         id="rect14092"
         style="fill:none;stroke:#fc3703;stroke-width:0.5px;stroke-miterlimit:10" />
      <rect
         ry="6.2417002"
         rx="6.2417002"
         height="39.198872"
         width="39.198872"
         y="432.25024"
         x="641.12445"
         class="cls-1"
         id="rect14094"
         style="fill:none;stroke:#fc3703;stroke-width:0.5px;stroke-miterlimit:10" />
      <path
         d="m 176.81372,485.0767 h 26.71548 a 6.24168,6.24168 0 0 1 6.24168,6.24168 v 26.71548 a 6.2417,6.2417 0 0 1 -6.2417,6.2417 h -26.71547 a 6.24169,6.24169 0 0 1 -6.24169,-6.24169 V 491.3184 a 6.2417,6.2417 0 0 1 6.2417,-6.2417 z"
         class="cls-1"
         id="rect14096"
         inkscape:connector-curvature="0"
         style="fill:none;stroke:#fc3703;stroke-width:0.5px;stroke-miterlimit:10" />
      <path
         d="M 223.86951,485.0767 H 250.585 a 6.24168,6.24168 0 0 1 6.24168,6.24168 v 26.71548 a 6.2417,6.2417 0 0 1 -6.2417,6.2417 h -26.7155 a 6.24168,6.24168 0 0 1 -6.24168,-6.24168 V 491.3184 a 6.2417,6.2417 0 0 1 6.24171,-6.2417 z"
         class="cls-1"
         id="rect14098"
         inkscape:connector-curvature="0"
         style="fill:none;stroke:#fc3703;stroke-width:0.5px;stroke-miterlimit:10" />
      <path
         d="m 270.92462,485.0767 h 26.71548 a 6.24168,6.24168 0 0 1 6.24168,6.24168 v 26.71548 a 6.2417,6.2417 0 0 1 -6.2417,6.2417 h -26.71549 a 6.24168,6.24168 0 0 1 -6.24168,-6.24168 V 491.3184 a 6.2417,6.2417 0 0 1 6.24171,-6.2417 z"
         class="cls-1"
         id="rect14100"
         inkscape:connector-curvature="0"
         style="fill:none;stroke:#fc3703;stroke-width:0.5px;stroke-miterlimit:10" />
      <path
         d="m 317.9804,485.0767 h 26.71548 a 6.24168,6.24168 0 0 1 6.24168,6.24168 v 26.71548 a 6.2417,6.2417 0 0 1 -6.2417,6.2417 h -26.71548 a 6.24168,6.24168 0 0 1 -6.24168,-6.24168 V 491.3184 a 6.2417,6.2417 0 0 1 6.2417,-6.2417 z"
         class="cls-1"
         id="rect14102"
         inkscape:connector-curvature="0"
         style="fill:none;stroke:#fc3703;stroke-width:0.5px;stroke-miterlimit:10" />
      <path
         d="m 365.03484,485.0767 h 26.71548 a 6.2417,6.2417 0 0 1 6.2417,6.2417 v 26.71546 a 6.2417,6.2417 0 0 1 -6.2417,6.2417 h -26.7155 a 6.24168,6.24168 0 0 1 -6.24168,-6.24168 V 491.3184 a 6.2417,6.2417 0 0 1 6.2417,-6.2417 z"
         class="cls-1"
         id="rect14104"
         inkscape:connector-curvature="0"
         style="fill:none;stroke:#fc3703;stroke-width:0.5px;stroke-miterlimit:10" />
      <rect
         ry="6.2417002"
         rx="6.2417002"
         height="39.198872"
         width="39.198872"
         y="485.07669"
         x="405.84894"
         class="cls-1"
         id="rect14106"
         style="fill:none;stroke:#fc3703;stroke-width:0.5px;stroke-miterlimit:10" />
      <rect
         ry="6.2417002"
         rx="6.2417002"
         height="39.198872"
         width="39.198872"
         y="485.07669"
         x="452.90402"
         class="cls-1"
         id="rect14108"
         style="fill:none;stroke:#fc3703;stroke-width:0.5px;stroke-miterlimit:10" />
      <rect
         ry="6.2417002"
         rx="6.2417002"
         height="39.198872"
         width="39.198872"
         y="485.07669"
         x="499.95981"
         class="cls-1"
         id="rect14110"
         style="fill:none;stroke:#fc3703;stroke-width:0.5px;stroke-miterlimit:10" />
      <rect
         ry="6.2417002"
         rx="6.2417002"
         height="39.198872"
         width="39.198872"
         y="485.07669"
         x="547.01361"
         class="cls-1"
         id="rect14112"
         style="fill:none;stroke:#fc3703;stroke-width:0.5px;stroke-miterlimit:10" />
      <rect
         ry="6.2417002"
         rx="6.2417002"
         height="39.198872"
         width="39.198872"
         y="485.07669"
         x="594.06866"
         class="cls-1"
         id="rect14114"
         style="fill:none;stroke:#fc3703;stroke-width:0.5px;stroke-miterlimit:10" />
      <rect
         ry="6.2417002"
         rx="6.2417002"
         height="39.198872"
         width="39.198872"
         y="485.07669"
         x="641.12445"
         class="cls-1"
         id="rect14116"
         style="fill:none;stroke:#fc3703;stroke-width:0.5px;stroke-miterlimit:10" />
      <path
         d="m 176.81372,537.90316 h 26.71546 a 6.2417,6.2417 0 0 1 6.2417,6.2417 v 26.71546 a 6.2417,6.2417 0 0 1 -6.2417,6.2417 h -26.71547 a 6.24169,6.24169 0 0 1 -6.24169,-6.24169 v -26.71547 a 6.2417,6.2417 0 0 1 6.2417,-6.2417 z"
         class="cls-1"
         id="rect14118"
         inkscape:connector-curvature="0"
         style="fill:none;stroke:#fc3703;stroke-width:0.5px;stroke-miterlimit:10" />
      <path
         d="M 223.86951,537.90316 H 250.585 a 6.2417,6.2417 0 0 1 6.2417,6.2417 v 26.71546 a 6.2417,6.2417 0 0 1 -6.2417,6.2417 h -26.71552 a 6.24168,6.24168 0 0 1 -6.24168,-6.24168 v -26.71548 a 6.2417,6.2417 0 0 1 6.24171,-6.2417 z"
         class="cls-1"
         id="rect14120"
         inkscape:connector-curvature="0"
         style="fill:none;stroke:#fc3703;stroke-width:0.5px;stroke-miterlimit:10" />
      <path
         d="m 270.92462,537.90316 h 26.71546 a 6.2417,6.2417 0 0 1 6.2417,6.2417 v 26.71546 a 6.2417,6.2417 0 0 1 -6.2417,6.2417 h -26.71549 a 6.24168,6.24168 0 0 1 -6.24168,-6.24168 v -26.71548 a 6.2417,6.2417 0 0 1 6.24171,-6.2417 z"
         class="cls-1"
         id="rect14122"
         inkscape:connector-curvature="0"
         style="fill:none;stroke:#fc3703;stroke-width:0.5px;stroke-miterlimit:10" />
      <path
         d="m 317.9804,537.90316 h 26.71546 a 6.2417,6.2417 0 0 1 6.2417,6.2417 v 26.71546 a 6.2417,6.2417 0 0 1 -6.2417,6.2417 h -26.71548 a 6.24168,6.24168 0 0 1 -6.24168,-6.24168 v -26.71548 a 6.2417,6.2417 0 0 1 6.2417,-6.2417 z"
         class="cls-1"
         id="rect14124"
         inkscape:connector-curvature="0"
         style="fill:none;stroke:#fc3703;stroke-width:0.5px;stroke-miterlimit:10" />
      <path
         d="m 365.03484,537.90316 h 26.71548 a 6.2417,6.2417 0 0 1 6.2417,6.2417 v 26.71546 a 6.2417,6.2417 0 0 1 -6.2417,6.2417 h -26.7155 a 6.24168,6.24168 0 0 1 -6.24168,-6.24168 v -26.71548 a 6.2417,6.2417 0 0 1 6.2417,-6.2417 z"
         class="cls-1"
         id="rect14126"
         inkscape:connector-curvature="0"
         style="fill:none;stroke:#fc3703;stroke-width:0.5px;stroke-miterlimit:10" />
      <rect
         ry="6.2417002"
         rx="6.2417002"
         height="39.198872"
         width="39.198872"
         y="537.90314"
         x="405.84894"
         class="cls-1"
         id="rect14128"
         style="fill:none;stroke:#fc3703;stroke-width:0.5px;stroke-miterlimit:10" />
      <rect
         ry="6.2417002"
         rx="6.2417002"
         height="39.198872"
         width="39.198872"
         y="537.90314"
         x="452.90402"
         class="cls-1"
         id="rect14130"
         style="fill:none;stroke:#fc3703;stroke-width:0.5px;stroke-miterlimit:10" />
      <rect
         ry="6.2417002"
         rx="6.2417002"
         height="39.198872"
         width="39.198872"
         y="537.90314"
         x="499.95981"
         class="cls-1"
         id="rect14132"
         style="fill:none;stroke:#fc3703;stroke-width:0.5px;stroke-miterlimit:10" />
      <rect
         ry="6.2417002"
         rx="6.2417002"
         height="39.198872"
         width="39.198872"
         y="537.90314"
         x="547.01361"
         class="cls-1"
         id="rect14134"
         style="fill:none;stroke:#fc3703;stroke-width:0.5px;stroke-miterlimit:10" />
      <rect
         ry="6.2417002"
         rx="6.2417002"
         height="39.198872"
         width="39.198872"
         y="537.90314"
         x="594.06866"
         class="cls-1"
         id="rect14136"
         style="fill:none;stroke:#fc3703;stroke-width:0.5px;stroke-miterlimit:10" />
      <rect
         ry="6.2417002"
         rx="6.2417002"
         height="39.198872"
         width="39.198872"
         y="537.90314"
         x="641.12445"
         class="cls-1"
         id="rect14138"
         style="fill:none;stroke:#fc3703;stroke-width:0.5px;stroke-miterlimit:10" />
      <path
         d="m 176.81372,590.72961 h 26.71548 a 6.24168,6.24168 0 0 1 6.24168,6.24168 v 26.71548 a 6.2417,6.2417 0 0 1 -6.2417,6.2417 h -26.71547 a 6.24169,6.24169 0 0 1 -6.24169,-6.24169 v -26.71546 a 6.2417,6.2417 0 0 1 6.2417,-6.24171 z"
         class="cls-1"
         id="rect14140"
         inkscape:connector-curvature="0"
         style="fill:none;stroke:#fc3703;stroke-width:0.5px;stroke-miterlimit:10" />
      <path
         d="M 223.86951,590.72961 H 250.585 a 6.24168,6.24168 0 0 1 6.24168,6.24168 v 26.71548 a 6.2417,6.2417 0 0 1 -6.2417,6.2417 h -26.7155 a 6.24168,6.24168 0 0 1 -6.24168,-6.24168 v -26.71547 a 6.2417,6.2417 0 0 1 6.24171,-6.24171 z"
         class="cls-1"
         id="rect14142"
         inkscape:connector-curvature="0"
         style="fill:none;stroke:#fc3703;stroke-width:0.5px;stroke-miterlimit:10" />
      <path
         d="m 270.92462,590.72961 h 26.71548 a 6.24168,6.24168 0 0 1 6.24168,6.24168 v 26.71548 a 6.2417,6.2417 0 0 1 -6.2417,6.2417 h -26.71549 a 6.24168,6.24168 0 0 1 -6.24168,-6.24168 v -26.71547 a 6.2417,6.2417 0 0 1 6.24171,-6.24171 z"
         class="cls-1"
         id="rect14144"
         inkscape:connector-curvature="0"
         style="fill:none;stroke:#fc3703;stroke-width:0.5px;stroke-miterlimit:10" />
      <path
         d="m 317.9804,590.72961 h 26.71548 a 6.24168,6.24168 0 0 1 6.24168,6.24168 v 26.71548 a 6.2417,6.2417 0 0 1 -6.2417,6.2417 h -26.71548 a 6.24168,6.24168 0 0 1 -6.24168,-6.24168 v -26.71547 a 6.2417,6.2417 0 0 1 6.2417,-6.24171 z"
         class="cls-1"
         id="rect14146"
         inkscape:connector-curvature="0"
         style="fill:none;stroke:#fc3703;stroke-width:0.5px;stroke-miterlimit:10" />
      <path
         d="m 365.03484,590.72961 h 26.71548 a 6.2417,6.2417 0 0 1 6.2417,6.2417 v 26.71546 a 6.2417,6.2417 0 0 1 -6.2417,6.2417 h -26.7155 a 6.24168,6.24168 0 0 1 -6.24168,-6.24168 v -26.71547 a 6.2417,6.2417 0 0 1 6.2417,-6.24171 z"
         class="cls-1"
         id="rect14148"
         inkscape:connector-curvature="0"
         style="fill:none;stroke:#fc3703;stroke-width:0.5px;stroke-miterlimit:10" />
      <rect
         ry="6.2417002"
         rx="6.2417002"
         height="39.198872"
         width="39.198872"
         y="590.72961"
         x="405.84894"
         class="cls-1"
         id="rect14150"
         style="fill:none;stroke:#fc3703;stroke-width:0.5px;stroke-miterlimit:10" />
      <rect
         ry="6.2417002"
         rx="6.2417002"
         height="39.198872"
         width="39.198872"
         y="590.72961"
         x="452.90402"
         class="cls-1"
         id="rect14152"
         style="fill:none;stroke:#fc3703;stroke-width:0.5px;stroke-miterlimit:10" />
      <rect
         ry="6.2417002"
         rx="6.2417002"
         height="39.198872"
         width="39.198872"
         y="590.72961"
         x="499.95981"
         class="cls-1"
         id="rect14154"
         style="fill:none;stroke:#fc3703;stroke-width:0.5px;stroke-miterlimit:10" />
      <rect
         ry="6.2417002"
         rx="6.2417002"
         height="39.198872"
         width="39.198872"
         y="590.72961"
         x="547.01361"
         class="cls-1"
         id="rect14156"
         style="fill:none;stroke:#fc3703;stroke-width:0.5px;stroke-miterlimit:10" />
      <rect
         ry="6.2417002"
         rx="6.2417002"
         height="39.198872"
         width="39.198872"
         y="590.72961"
         x="594.06866"
         class="cls-1"
         id="rect14158"
         style="fill:none;stroke:#fc3703;stroke-width:0.5px;stroke-miterlimit:10" />
      <rect
         ry="6.2417002"
         rx="6.2417002"
         height="39.198872"
         width="39.198872"
         y="590.72961"
         x="641.12445"
         class="cls-1"
         id="rect14160"
         style="fill:none;stroke:#fc3703;stroke-width:0.5px;stroke-miterlimit:10" />
      <path
         d="m 176.81372,643.55607 h 26.71548 a 6.24168,6.24168 0 0 1 6.24168,6.24168 v 26.71548 a 6.2417,6.2417 0 0 1 -6.2417,6.2417 h -26.71547 a 6.24169,6.24169 0 0 1 -6.24169,-6.24169 v -26.71546 a 6.2417,6.2417 0 0 1 6.2417,-6.24171 z"
         class="cls-1"
         id="rect14162"
         inkscape:connector-curvature="0"
         style="fill:none;stroke:#fc3703;stroke-width:0.5px;stroke-miterlimit:10" />
      <path
         d="M 223.86951,643.55607 H 250.585 a 6.24168,6.24168 0 0 1 6.24168,6.24168 v 26.71548 a 6.2417,6.2417 0 0 1 -6.2417,6.2417 h -26.7155 a 6.24168,6.24168 0 0 1 -6.24168,-6.24168 v -26.71547 a 6.2417,6.2417 0 0 1 6.24171,-6.24171 z"
         class="cls-1"
         id="rect14164"
         inkscape:connector-curvature="0"
         style="fill:none;stroke:#fc3703;stroke-width:0.5px;stroke-miterlimit:10" />
      <path
         d="m 270.92462,643.55607 h 26.71548 a 6.24168,6.24168 0 0 1 6.24168,6.24168 v 26.71548 a 6.2417,6.2417 0 0 1 -6.2417,6.2417 h -26.71549 a 6.24168,6.24168 0 0 1 -6.24168,-6.24168 v -26.71547 a 6.2417,6.2417 0 0 1 6.24171,-6.24171 z"
         class="cls-1"
         id="rect14166"
         inkscape:connector-curvature="0"
         style="fill:none;stroke:#fc3703;stroke-width:0.5px;stroke-miterlimit:10" />
      <path
         d="m 317.9804,643.55607 h 26.71548 a 6.24168,6.24168 0 0 1 6.24168,6.24168 v 26.71548 a 6.2417,6.2417 0 0 1 -6.2417,6.2417 h -26.71548 a 6.24168,6.24168 0 0 1 -6.24168,-6.24168 v -26.71547 a 6.2417,6.2417 0 0 1 6.2417,-6.24171 z"
         class="cls-1"
         id="rect14168"
         inkscape:connector-curvature="0"
         style="fill:none;stroke:#fc3703;stroke-width:0.5px;stroke-miterlimit:10" />
      <path
         d="m 365.03484,643.55607 h 26.71548 a 6.2417,6.2417 0 0 1 6.2417,6.2417 v 26.71546 a 6.2417,6.2417 0 0 1 -6.2417,6.2417 h -26.7155 a 6.24168,6.24168 0 0 1 -6.24168,-6.24168 v -26.71547 a 6.2417,6.2417 0 0 1 6.2417,-6.24171 z"
         class="cls-1"
         id="rect14170"
         inkscape:connector-curvature="0"
         style="fill:none;stroke:#fc3703;stroke-width:0.5px;stroke-miterlimit:10" />
      <rect
         ry="6.2417002"
         rx="6.2417002"
         height="39.198872"
         width="39.198872"
         y="643.55609"
         x="405.84894"
         class="cls-1"
         id="rect14172"
         style="fill:none;stroke:#fc3703;stroke-width:0.5px;stroke-miterlimit:10" />
      <rect
         ry="6.2417002"
         rx="6.2417002"
         height="39.198872"
         width="39.198872"
         y="643.55609"
         x="452.90402"
         class="cls-1"
         id="rect14174"
         style="fill:none;stroke:#fc3703;stroke-width:0.5px;stroke-miterlimit:10" />
      <rect
         ry="6.2417002"
         rx="6.2417002"
         height="39.198872"
         width="39.198872"
         y="643.55609"
         x="499.95981"
         class="cls-1"
         id="rect14176"
         style="fill:none;stroke:#fc3703;stroke-width:0.5px;stroke-miterlimit:10" />
      <rect
         ry="6.2417002"
         rx="6.2417002"
         height="39.198872"
         width="39.198872"
         y="643.55609"
         x="547.01361"
         class="cls-1"
         id="rect14178"
         style="fill:none;stroke:#fc3703;stroke-width:0.5px;stroke-miterlimit:10" />
      <rect
         ry="6.2417002"
         rx="6.2417002"
         height="39.198872"
         width="39.198872"
         y="643.55609"
         x="594.06866"
         class="cls-1"
         id="rect14180"
         style="fill:none;stroke:#fc3703;stroke-width:0.5px;stroke-miterlimit:10" />
      <rect
         ry="6.2417002"
         rx="6.2417002"
         height="39.198872"
         width="39.198872"
         y="643.55609"
         x="641.12445"
         class="cls-1"
         id="rect14182"
         style="fill:none;stroke:#fc3703;stroke-width:0.5px;stroke-miterlimit:10" />
      <g
         id="g40812">
        <circle
           r="14.17322"
           cy="106.98393"
           cx="106.98457"
           class="cls-2"
           id="path40798"
           style="opacity:0.97000002;isolation:isolate;fill:none;stroke:#fc3703;stroke-width:0.5px;stroke-miterlimit:10" />
        <circle
           r="14.17391"
           cy="106.98393"
           cx="743.90747"
           class="cls-2"
           id="path40800"
           style="opacity:0.97000002;isolation:isolate;fill:none;stroke:#fc3703;stroke-width:0.5px;stroke-miterlimit:10" />
        <circle
           r="14.17392"
           cy="743.90747"
           cx="743.90747"
           class="cls-2"
           id="path40804"
           style="opacity:0.97000002;isolation:isolate;fill:none;stroke:#fc3703;stroke-width:0.5px;stroke-miterlimit:10" />
        <circle
           r="14.17322"
           cy="743.90747"
           cx="106.98457"
           class="cls-2"
           id="path40806"
           style="opacity:0.97000002;isolation:isolate;fill:none;stroke:#fc3703;stroke-width:0.5px;stroke-miterlimit:10" />
      </g>
    </g>
  </g>
  <g
     inkscape:groupmode="layer"
     id="layer3"
     inkscape:label="Laser this"
     style="display:inline"
     transform="translate(-0.0068978,283.05017)">
    <g
       transform="matrix(-1.3320932,0,0,1.3326585,1133.4733,-283.05023)"
       id="g2259">
      <g
         id="Corner_leds-3"
         data-name="Corner leds">
        <circle
           cx="57.0242"
           cy="57.017281"
           r="4.1303802"
           id="circle1901" />
        <circle
           cx="793.86737"
           cy="57.21854"
           r="4.1303802"
           id="circle1903" />
        <circle
           cx="793.87335"
           cy="793.85632"
           r="4.1303802"
           id="circle1905" />
        <circle
           cx="57.024639"
           cy="793.85632"
           r="4.1303802"
           id="circle1907" />
      </g>
      <g
         id="Letters-8">
        <path
           inkscape:connector-curvature="0"
           d="M 190.99561,201.25572 H 188.8335 V 175.662 h 2.16211 z"
           transform="translate(-0.05437,0.24881)"
           id="path1910" />
        <path
           inkscape:connector-curvature="0"
           d="m 246.95508,177.4901 h -8.77148 v 23.76563 h -2.16211 V 177.4901 h -8.75391 v -1.8281 h 19.6875 z"
           transform="translate(-0.05437,0.24881)"
           id="path1912" />
        <path
           inkscape:connector-curvature="0"
           d="m 279.96387,199.4276 h 12.63867 v 1.82813 H 277.78418 V 175.662 h 2.17969 z"
           transform="translate(-0.05437,0.24881)"
           id="path1914" />
        <path
           inkscape:connector-curvature="0"
           d="M 332.16211,201.25572 H 330 V 175.662 h 2.16211 z"
           transform="translate(-0.05437,0.24881)"
           id="path1916" />
        <path
           inkscape:connector-curvature="0"
           d="m 384.88965,194.96275 a 4.14274,4.14274 0 0 0 -1.49414,-3.36621 15.77787,15.77787 0 0 0 -5.4668,-2.35547 19.15963,19.15963 0 0 1 -5.80078,-2.43457 5.90491,5.90491 0 0 1 -0.18457,-9.65918 9.92587,9.92587 0 0 1 6.17871,-1.83691 10.24868,10.24868 0 0 1 4.56152,0.98438 7.46458,7.46458 0 0 1 3.12012,2.74219 7.2029,7.2029 0 0 1 1.10742,3.91992 h -2.17969 a 5.37852,5.37852 0 0 0 -1.793,-4.22266 6.98075,6.98075 0 0 0 -4.81641,-1.5957 7.58949,7.58949 0 0 0 -4.67578,1.31152 4.09373,4.09373 0 0 0 -1.74023,3.42432 3.8738,3.8738 0 0 0 1.56445,3.187 14.49776,14.49776 0 0 0 5.00977,2.17432 23.54567,23.54567 0 0 1 5.2207,1.95264 7.44089,7.44089 0 0 1 2.67188,2.417 6.04722,6.04722 0 0 1 0.89648,3.32227 5.785,5.785 0 0 1 -2.417,4.85156 10.29391,10.29391 0 0 1 -6.37207,1.82813 12.49022,12.49022 0 0 1 -4.96582,-0.9668 7.58506,7.58506 0 0 1 -3.42773,-2.707 6.98846,6.98846 0 0 1 -1.16895,-3.99023 h 2.16211 a 5.10948,5.10948 0 0 0 2.02148,4.27148 8.556,8.556 0 0 0 5.37891,1.56445 7.973,7.973 0 0 0 4.79883,-1.31836 4.12137,4.12137 0 0 0 1.81059,-3.49809 z"
           transform="translate(-0.05437,0.24881)"
           id="path1918" />
        <path
           inkscape:connector-curvature="0"
           d="M 430.69434,194.06627 H 419.0752 l -2.63672,7.18945 h -2.26758 l 9.68555,-25.59375 h 2.05664 l 9.68555,25.59375 h -2.25 z m -10.95117,-1.82812 h 10.26563 l -5.1328,-13.93946 z"
           transform="translate(-0.05437,0.24881)"
           id="path1920" />
        <path
           inkscape:connector-curvature="0"
           d="m 479,194.96275 a 4.14274,4.14274 0 0 0 -1.49414,-3.36621 15.77787,15.77787 0 0 0 -5.4668,-2.35547 19.15963,19.15963 0 0 1 -5.80078,-2.43457 5.90491,5.90491 0 0 1 -0.18457,-9.65918 9.92587,9.92587 0 0 1 6.17871,-1.83691 10.24868,10.24868 0 0 1 4.56152,0.98438 7.46458,7.46458 0 0 1 3.12012,2.74219 7.2029,7.2029 0 0 1 1.10742,3.91992 h -2.17968 a 5.37852,5.37852 0 0 0 -1.793,-4.22266 6.98075,6.98075 0 0 0 -4.81641,-1.5957 7.58949,7.58949 0 0 0 -4.67578,1.31152 4.09373,4.09373 0 0 0 -1.74023,3.42432 3.8738,3.8738 0 0 0 1.56445,3.187 14.49776,14.49776 0 0 0 5.00977,2.17432 23.54566,23.54566 0 0 1 5.2207,1.95264 7.44089,7.44089 0 0 1 2.67188,2.417 6.04722,6.04722 0 0 1 0.89648,3.32227 5.785,5.785 0 0 1 -2.417,4.85156 10.29391,10.29391 0 0 1 -6.37207,1.82813 12.49022,12.49022 0 0 1 -4.96582,-0.9668 7.58506,7.58506 0 0 1 -3.42773,-2.707 6.98846,6.98846 0 0 1 -1.16895,-3.99023 h 2.16211 a 5.10948,5.10948 0 0 0 2.02148,4.27148 8.556,8.556 0 0 0 5.37891,1.56445 7.973,7.973 0 0 0 4.79883,-1.31836 A 4.12137,4.12137 0 0 0 479,194.96275 Z"
           transform="translate(-0.05437,0.24881)"
           id="path1922" />
        <path
           inkscape:connector-curvature="0"
           d="m 524.80762,194.06627 h -11.61914 l -2.63672,7.18945 h -2.26758 l 9.68555,-25.59375 h 2.05664 l 9.68555,25.59375 h -2.25 z m -10.95117,-1.82812 h 10.26563 l -5.13281,-13.93945 z"
           transform="translate(-0.05437,0.24881)"
           id="path1924" />
        <path
           inkscape:connector-curvature="0"
           d="m 556.57715,175.662 9.43945,22.58789 9.47461,-22.58789 h 2.88279 v 25.59375 h -2.16211 v -11.14456 l 0.17578,-11.42578 -9.52734,22.57031 h -1.66992 l -9.49219,-22.48242 0.17578,11.26758 v 11.21484 h -2.16211 V 175.662 Z"
           transform="translate(-0.05437,0.24881)"
           id="path1926" />
        <path
           inkscape:connector-curvature="0"
           d="m 607.4209,190.83189 v 10.42383 h -2.16211 V 175.662 h 8.71875 a 9.19063,9.19063 0 0 1 6.30176,2.03906 8.01356,8.01356 0 0 1 0.0879,11.1709 q -2.22363,1.96 -6.44238,1.96 z m 0,-1.82812 h 6.55664 a 6.9209,6.9209 0 0 0 4.79883,-1.49609 5.34391,5.34391 0 0 0 1.65234,-4.17285 5.59176,5.59176 0 0 0 -1.64355,-4.23389 6.59292,6.59292 0 0 0 -4.667,-1.61084 h -6.69726 z"
           transform="translate(-0.05437,0.24881)"
           id="path1928" />
        <path
           inkscape:connector-curvature="0"
           d="m 650.68945,175.66148 9.43945,22.58789 9.47461,-22.58789 h 2.88281 v 25.59375 h -2.16211 V 190.1107 l 0.17579,-11.42578 -9.52734,22.57031 h -1.66992 l -9.49219,-22.48242 0.17578,11.26758 v 11.21484 h -2.16211 v -25.59375 z"
           transform="translate(-0.05437,0.24881)"
           id="path1930" />
        <path
           inkscape:connector-curvature="0"
           d="m 195.72705,246.892 h -11.61914 l -2.63672,7.18945 h -2.26758 l 9.68555,-25.59375 h 2.05664 l 9.68555,25.59375 h -2.25 z m -10.95117,-1.82812 h 10.26562 l -5.13281,-13.93945 z"
           transform="translate(-0.05437,0.24881)"
           id="path1932" />
        <path
           inkscape:connector-curvature="0"
           d="m 246.64893,246.10094 a 9.17286,9.17286 0 0 1 -2.8916,6.1875 9.56533,9.56533 0 0 1 -6.53027,2.14453 9.02752,9.02752 0 0 1 -5.03613,-1.42383 9.284,9.284 0 0 1 -3.38379,-4.03418 14.37119,14.37119 0 0 1 -1.21289,-5.96777 v -3.32227 a 14.50276,14.50276 0 0 1 1.19531,-6.04687 9.193,9.193 0 0 1 3.43652,-4.06934 9.37,9.37 0 0 1 5.15918,-1.43262 9.16271,9.16271 0 0 1 6.49512,2.21484 9.27868,9.27868 0 0 1 2.76855,6.13477 h -2.17969 q -0.80859,-6.52148 -7.084,-6.52148 a 6.71406,6.71406 0 0 0 -5.5459,2.60352 11.29254,11.29254 0 0 0 -2.06543,7.19531 v 3.13135 a 11.37434,11.37434 0 0 0 2.0127,7.07178 6.48343,6.48343 0 0 0 5.44043,2.63867 7.1968,7.1968 0 0 0 5.11523,-1.626 7.79268,7.79268 0 0 0 2.127,-4.87793 z"
           transform="translate(-0.05437,0.24881)"
           id="path1934" />
        <path
           inkscape:connector-curvature="0"
           d="m 293.93262,242.6732 a 14.69014,14.69014 0 0 1 -1.292,6.37207 9.131,9.131 0 0 1 -3.68262,4.10449 l 4.6582,4.06055 -1.49414,1.33594 -5.2207,-4.51758 a 10.81948,10.81948 0 0 1 -2.93555,0.4043 9.299,9.299 0 0 1 -8.71875,-5.52832 14.33927,14.33927 0 0 1 -1.26562,-6.1084 V 239.931 a 14.6966,14.6966 0 0 1 1.23926,-6.19629 9.20652,9.20652 0 0 1 8.71,-5.59863 9.58528,9.58528 0 0 1 5.25586,1.44141 9.41661,9.41661 0 0 1 3.50684,4.13086 14.68132,14.68132 0 0 1 1.23926,6.20508 z m -2.16211,-2.77734 a 11.3115,11.3115 0 0 0 -2.0918,-7.24219 7.522,7.522 0 0 0 -11.417,0.009 q -2.11816,2.62793 -2.11816,7.33887 v 2.67188 a 11.34454,11.34454 0 0 0 2.10059,7.21582 7.52787,7.52787 0 0 0 11.45215,0.0439 q 2.07422,-2.61914 2.07422,-7.3125 z"
           transform="translate(-0.05437,0.24881)"
           id="path1936" />
        <path
           inkscape:connector-curvature="0"
           d="m 340.11914,228.48766 v 17.47266 a 8.84856,8.84856 0 0 1 -1.14258,4.5 7.48709,7.48709 0 0 1 -3.17285,2.94434 10.34061,10.34061 0 0 1 -4.70215,1.02832 9.27787,9.27787 0 0 1 -6.47754,-2.20605 8.08732,8.08732 0 0 1 -2.52246,-6.1084 v -17.63087 h 2.14453 v 17.31445 a 6.655,6.655 0 0 0 1.8457,5.01855 7.89811,7.89811 0 0 0 10.01074,-0.009 6.65505,6.65505 0 0 0 1.83691,-4.99219 v -17.332 z"
           transform="translate(-0.05437,0.24881)"
           id="path1938" />
        <path
           inkscape:connector-curvature="0"
           d="m 383.64453,246.892 h -11.61914 l -2.63672,7.18945 h -2.26758 l 9.68555,-25.59375 h 2.05664 l 9.68555,25.59375 h -2.25 z m -10.95117,-1.82812 H 382.959 l -5.13281,-13.93945 z"
           transform="translate(-0.05437,0.24881)"
           id="path1940" />
        <path
           inkscape:connector-curvature="0"
           d="m 426.25879,243.41148 h -7.43555 v 10.66992 h -2.17969 v -25.59374 h 8.31445 a 9.48833,9.48833 0 0 1 6.39844,1.98438 7.57252,7.57252 0 0 1 0.86133,9.88428 7.371,7.371 0 0 1 -3.86719,2.59863 l 6.39842,10.89745 v 0.229 h -2.30273 z m -7.43555,-1.82812 h 6.627 a 6.14052,6.14052 0 0 0 4.377,-1.54932 5.85082,5.85082 0 0 0 -0.0703,-8.22168 7.13845,7.13845 0 0 0 -4.834,-1.49658 h -6.09961 z"
           transform="translate(-0.05437,0.24881)"
           id="path1942" />
        <path
           inkscape:connector-curvature="0"
           d="M 482.22852,230.31578 H 473.457 v 23.76563 h -2.16211 V 230.31578 H 462.541 v -1.82812 h 19.6875 z"
           transform="translate(-0.05437,0.24881)"
           id="path1944" />
        <path
           inkscape:connector-curvature="0"
           d="M 526.12891,241.81188 H 514.1582 v 10.44141 h 13.76367 v 1.82813 H 511.99609 V 228.48766 H 527.834 v 1.82813 h -13.6758 v 9.668 h 11.9707 z"
           transform="translate(-0.05437,0.24881)"
           id="path1946" />
        <path
           inkscape:connector-curvature="0"
           d="m 567.42578,243.41148 h -7.43555 v 10.66992 h -2.17969 v -25.59374 h 8.31446 a 9.48833,9.48833 0 0 1 6.39844,1.98438 7.57252,7.57252 0 0 1 0.86133,9.88428 7.371,7.371 0 0 1 -3.86719,2.59863 l 6.39842,10.89745 v 0.229 h -2.30273 z m -7.43555,-1.82812 h 6.627 a 6.14052,6.14052 0 0 0 4.377,-1.54932 5.85082,5.85082 0 0 0 -0.0703,-8.22168 7.13845,7.13845 0 0 0 -4.834,-1.49658 h -6.09961 z"
           transform="translate(-0.05437,0.24881)"
           id="path1948" />
        <path
           inkscape:connector-curvature="0"
           d="m 604.55859,254.08141 v -25.59375 h 7.1543 a 11.13,11.13 0 0 1 5.64258,1.43262 9.90408,9.90408 0 0 1 3.89355,4.10449 12.9271,12.9271 0 0 1 1.39746,6.082 v 2.35547 a 12.92719,12.92719 0 0 1 -1.38867,6.082 9.88058,9.88058 0 0 1 -3.91113,4.0957 11.46623,11.46623 0 0 1 -5.792,1.44141 z m 2.16211,-23.76562 v 21.9375 h 4.85156 a 8.35136,8.35136 0 0 0 6.48633,-2.68262 10.36775,10.36775 0 0 0 2.44336,-7.25684 v -2.252 a 10.12794,10.12794 0 0 0 -2.4082,-7.07227 8.21014,8.21014 0 0 0 -6.3457,-2.67383 z"
           transform="translate(-0.05437,0.24881)"
           id="path1950" />
        <path
           inkscape:connector-curvature="0"
           d="m 669.834,246.10094 a 9.17286,9.17286 0 0 1 -2.8916,6.1875 9.56533,9.56533 0 0 1 -6.53027,2.14453 9.02752,9.02752 0 0 1 -5.03613,-1.42383 9.284,9.284 0 0 1 -3.38379,-4.03418 14.37119,14.37119 0 0 1 -1.21289,-5.96777 v -3.32227 a 14.50276,14.50276 0 0 1 1.19531,-6.04687 9.193,9.193 0 0 1 3.43652,-4.06934 9.37,9.37 0 0 1 5.15918,-1.43262 9.16271,9.16271 0 0 1 6.49512,2.21484 9.27868,9.27868 0 0 1 2.76855,6.13477 h -2.1797 q -0.80859,-6.52148 -7.084,-6.52148 a 6.71406,6.71406 0 0 0 -5.5459,2.60352 11.29254,11.29254 0 0 0 -2.0654,7.19526 v 3.13135 a 11.37434,11.37434 0 0 0 2.0127,7.07178 6.48343,6.48343 0 0 0 5.44043,2.63867 7.1968,7.1968 0 0 0 5.11523,-1.626 7.79268,7.79268 0 0 0 2.127,-4.87793 z"
           transform="translate(-0.05437,0.24881)"
           id="path1952" />
        <path
           inkscape:connector-curvature="0"
           d="m 199.583,283.14244 h -8.77148 v 23.76563 h -2.16211 v -23.76563 h -8.75391 v -1.82812 h 19.6875 z"
           transform="translate(-0.05437,0.24881)"
           id="path1954" />
        <path
           inkscape:connector-curvature="0"
           d="m 229.10791,299.99986 0.791,3.97266 0.9668,-3.79687 5.55469,-18.86133 h 1.95117 l 5.48438,18.86133 0.94922,3.832 0.84375,-4.00781 4.623,-18.68555 h 2.21484 l -6.55664,25.59375 H 243.856 l -5.80078,-20.02148 -0.65039,-2.53125 -0.63281,2.53125 -5.94141,20.02148 h -2.07422 l -6.53906,-25.59375 h 2.21484 z"
           transform="translate(-0.05437,0.24881)"
           id="path1956" />
        <path
           inkscape:connector-curvature="0"
           d="m 290.5459,294.63854 h -11.9707 v 10.44141 h 13.76367 v 1.82813 H 276.41309 V 281.31432 H 292.251 v 1.82813 h -13.6758 v 9.668 h 11.9707 z"
           transform="translate(-0.05437,0.24881)"
           id="path1958" />
        <path
           inkscape:connector-curvature="0"
           d="m 339.97559,306.90807 h -2.16211 l -14.71289,-21.90234 v 21.90234 h -2.17969 v -25.59375 h 2.17969 l 14.73047,21.91992 v -21.91992 h 2.14453 z"
           transform="translate(-0.05437,0.24881)"
           id="path1960" />
        <path
           inkscape:connector-curvature="0"
           d="m 387.5,283.14244 h -8.77148 v 23.76563 h -2.16211 v -23.76563 h -8.75391 v -1.82812 H 387.5 Z"
           transform="translate(-0.05437,0.24881)"
           id="path1962" />
        <path
           inkscape:connector-curvature="0"
           d="m 424.23438,295.27135 7.82227,-13.957 h 2.49609 l -9.24609,15.96094 v 9.63281 h -2.16211 v -9.63281 L 413.916,281.31432 h 2.56641 z"
           transform="translate(-0.05437,0.24881)"
           id="path1964" />
        <path
           inkscape:connector-curvature="0"
           d="m 478.53418,294.93736 h -11.93555 v 11.9707 h -2.16211 V 281.31432 H 480.292 v 1.82813 h -13.69337 v 9.9668 h 11.93555 z"
           transform="translate(-0.05437,0.24881)"
           id="path1966" />
        <path
           inkscape:connector-curvature="0"
           d="m 519.46387,306.90758 h -2.16211 v -25.59375 h 2.16211 z"
           transform="translate(-0.05437,0.24881)"
           id="path1968" />
        <path
           inkscape:connector-curvature="0"
           d="m 565.28711,303.744 0.14063,0.54492 0.1582,-0.54492 8.05078,-22.42969 h 2.373 l -9.52734,25.59375 h -2.07418 l -9.52734,-25.59375 h 2.35547 z"
           transform="translate(-0.05437,0.24881)"
           id="path1970" />
        <path
           inkscape:connector-curvature="0"
           d="m 619.62012,294.63854 h -11.9707 v 10.44141 h 13.76367 v 1.82813 H 605.4873 v -25.59376 h 15.8379 v 1.82813 h -13.67579 v 9.668 h 11.9707 z"
           transform="translate(-0.05437,0.24881)"
           id="path1972" />
        <path
           inkscape:connector-curvature="0"
           d="m 659.55762,292.142 7.207,-10.82812 h 2.584 l -8.47262,12.62104 8.73633,12.97266 h -2.60156 l -7.45312,-11.17969 -7.48828,11.17969 h -2.56641 l 8.75391,-12.97266 -8.49023,-12.62109 h 2.584 z"
           transform="translate(-0.05437,0.24881)"
           id="path1974" />
        <path
           inkscape:connector-curvature="0"
           d="m 199.07422,359.73473 h -2.17969 V 347.4652 h -14.625 v 12.26953 h -2.16211 V 334.141 h 2.16211 v 11.49609 h 14.625 V 334.141 h 2.17969 z"
           transform="translate(-0.05437,0.24881)"
           id="path1976" />
        <path
           inkscape:connector-curvature="0"
           d="M 242.48145,352.54479 H 230.8623 l -2.63672,7.18945 H 225.958 l 9.68555,-25.59375 h 2.05664 l 9.68555,25.59375 h -2.25 z m -10.95117,-1.82812 h 10.26562 l -5.13281,-13.93945 z"
           transform="translate(-0.05437,0.24881)"
           id="path1978" />
        <path
           inkscape:connector-curvature="0"
           d="m 279.65771,357.9066 h 12.63867 v 1.82813 H 277.478 V 334.141 h 2.17969 z"
           transform="translate(-0.05437,0.24881)"
           id="path1980" />
        <path
           inkscape:connector-curvature="0"
           d="m 337.98193,347.764 h -11.93554 v 11.9707 h -2.16211 V 334.141 h 15.85547 v 1.82813 h -13.69336 v 9.9668 h 11.93555 z"
           transform="translate(-0.05437,0.24881)"
           id="path1982" />
        <path
           inkscape:connector-curvature="0"
           d="m 384.5835,353.44176 a 4.14274,4.14274 0 0 0 -1.49414,-3.36621 15.77787,15.77787 0 0 0 -5.4668,-2.35547 19.15963,19.15963 0 0 1 -5.80078,-2.43457 5.90491,5.90491 0 0 1 -0.18457,-9.65918 9.92587,9.92587 0 0 1 6.17871,-1.83691 10.24868,10.24868 0 0 1 4.56152,0.98438 7.46458,7.46458 0 0 1 3.12012,2.74219 7.2029,7.2029 0 0 1 1.10742,3.91992 h -2.17969 a 5.37783,5.37783 0 0 0 -1.793,-4.22266 6.98075,6.98075 0 0 0 -4.81641,-1.5957 7.58949,7.58949 0 0 0 -4.67578,1.31152 4.09286,4.09286 0 0 0 -1.74023,3.42383 3.8747,3.8747 0 0 0 1.56445,3.1875 14.50784,14.50784 0 0 0 5.00977,2.17383 23.54262,23.54262 0 0 1 5.2207,1.95313 7.44089,7.44089 0 0 1 2.67188,2.417 6.04722,6.04722 0 0 1 0.89648,3.32227 5.785,5.785 0 0 1 -2.417,4.85156 10.29391,10.29391 0 0 1 -6.37207,1.82813 12.49022,12.49022 0 0 1 -4.96582,-0.9668 7.58506,7.58506 0 0 1 -3.42773,-2.707 6.98846,6.98846 0 0 1 -1.16895,-3.99023 h 2.16211 a 5.10948,5.10948 0 0 0 2.02148,4.27148 8.556,8.556 0 0 0 5.37891,1.56445 7.973,7.973 0 0 0 4.79883,-1.31836 4.12137,4.12137 0 0 0 1.81059,-3.4981 z"
           transform="translate(-0.05437,0.24881)"
           id="path1984" />
        <path
           inkscape:connector-curvature="0"
           d="m 434.86133,335.9691 h -8.77148 v 23.76563 h -2.16162 V 335.9691 h -8.75391 v -1.8281 h 19.687 z"
           transform="translate(-0.05437,0.24881)"
           id="path1986" />
        <path
           inkscape:connector-curvature="0"
           d="M 478.76367,347.46471 H 466.793 v 10.44141 h 13.76367 v 1.82813 h -15.92581 v -25.59376 h 15.83789 v 1.82813 H 466.793 v 9.668 h 11.9707 z"
           transform="translate(-0.05437,0.24881)"
           id="path1988" />
        <path
           inkscape:connector-curvature="0"
           d="M 528.20215,359.73424 H 526.04 L 511.32711,337.8319 v 21.90234 h -2.17969 v -25.59375 h 2.17969 l 14.73047,21.91992 v -21.91992 h 2.14453 z"
           transform="translate(-0.05437,0.24881)"
           id="path1990" />
        <path
           inkscape:connector-curvature="0"
           d="m 570.37793,334.141 h 2.17969 v 17.9824 a 7.96908,7.96908 0 0 1 -2.10059,5.80078 7.49337,7.49337 0 0 1 -5.63379,2.16211 7.87923,7.87923 0 0 1 -5.73047,-1.95117 7.25461,7.25461 0 0 1 -2.00391,-5.44922 h 2.16214 a 5.5231,5.5231 0 0 0 1.459,4.1748 5.70751,5.70751 0 0 0 4.11328,1.39746 5.24763,5.24763 0 0 0 3.98145,-1.61719 6.2355,6.2355 0 0 0 1.57324,-4.39453 z"
           transform="translate(-0.05437,0.24881)"
           id="path1992" />
        <path
           inkscape:connector-curvature="0"
           d="m 623.085,335.9691 h -8.77148 v 23.76563 h -2.16211 V 335.9691 h -8.75391 v -1.8281 h 19.6875 z"
           transform="translate(-0.05437,0.24881)"
           id="path1994" />
        <path
           inkscape:connector-curvature="0"
           d="m 669.82422,348.326 a 14.78721,14.78721 0 0 1 -1.22168,6.20508 9.32265,9.32265 0 0 1 -3.48926,4.11328 9.55325,9.55325 0 0 1 -5.23828,1.44141 9.09152,9.09152 0 0 1 -7.24219,-3.208 q -2.75977,-3.208 -2.75977,-8.65723 v -2.63672 a 14.6966,14.6966 0 0 1 1.23926,-6.19629 9.20788,9.20788 0 0 1 8.72754,-5.59863 9.56526,9.56526 0 0 1 5.21191,1.42383 9.35355,9.35355 0 0 1 3.48926,4.02539 14.48726,14.48726 0 0 1 1.2832,6.0293 z m -2.16211,-2.77734 a 11.3115,11.3115 0 0 0 -2.0918,-7.24219 7.52219,7.52219 0 0 0 -11.417,0.009 q -2.11816,2.62793 -2.11816,7.33887 v 2.67187 a 11.31129,11.31129 0 0 0 2.10938,7.21582 7.52925,7.52925 0 0 0 11.46094,0.0352 q 2.05664,-2.62793 2.05664,-7.32129 z"
           transform="translate(-0.05437,0.24881)"
           id="path1996" />
        <path
           inkscape:connector-curvature="0"
           d="m 183.9248,402.13658 v 10.42383 h -2.1621 v -25.59375 h 8.71875 a 9.19063,9.19063 0 0 1 6.30176,2.03906 8.01356,8.01356 0 0 1 0.0879,11.1709 q -2.22363,1.96 -6.44238,1.96 z m 0,-1.82812 h 6.55664 a 6.9209,6.9209 0 0 0 4.79883,-1.49609 5.34391,5.34391 0 0 0 1.65234,-4.17285 5.59176,5.59176 0 0 0 -1.64355,-4.23389 6.59292,6.59292 0 0 0 -4.667,-1.61084 h -6.69726 z"
           transform="translate(-0.05437,0.24881)"
           id="path1998" />
        <path
           inkscape:connector-curvature="0"
           d="m 242.48438,405.37047 h -11.61915 l -2.63672,7.18945 h -2.26758 l 9.68555,-25.59375 h 2.05664 l 9.68555,25.59375 h -2.25 z m -10.95117,-1.82812 h 10.26563 L 236.666,389.60289 Z"
           transform="translate(-0.05437,0.24881)"
           id="path2000" />
        <path
           inkscape:connector-curvature="0"
           d="m 290.7876,406.26744 a 4.14274,4.14274 0 0 0 -1.49414,-3.36621 15.77787,15.77787 0 0 0 -5.4668,-2.35547 19.15963,19.15963 0 0 1 -5.80078,-2.43457 5.90491,5.90491 0 0 1 -0.18457,-9.65918 9.92587,9.92587 0 0 1 6.17869,-1.83691 10.24868,10.24868 0 0 1 4.56152,0.98438 7.46458,7.46458 0 0 1 3.12012,2.74219 7.2029,7.2029 0 0 1 1.10742,3.91992 h -2.17969 a 5.37852,5.37852 0 0 0 -1.793,-4.22266 6.98075,6.98075 0 0 0 -4.81641,-1.5957 7.58949,7.58949 0 0 0 -4.67578,1.31152 4.09373,4.09373 0 0 0 -1.74023,3.42432 3.8738,3.8738 0 0 0 1.56445,3.187 14.49776,14.49776 0 0 0 5.00977,2.17432 23.54567,23.54567 0 0 1 5.2207,1.95264 7.44089,7.44089 0 0 1 2.67188,2.417 6.04722,6.04722 0 0 1 0.89648,3.32227 5.785,5.785 0 0 1 -2.417,4.85156 10.29391,10.29391 0 0 1 -6.37207,1.82813 12.49022,12.49022 0 0 1 -4.96582,-0.9668 7.58506,7.58506 0 0 1 -3.42773,-2.707 6.98846,6.98846 0 0 1 -1.16895,-3.99023 h 2.16211 a 5.10948,5.10948 0 0 0 2.02148,4.27148 8.556,8.556 0 0 0 5.37891,1.56445 7.973,7.973 0 0 0 4.79883,-1.31836 4.12137,4.12137 0 0 0 1.81061,-3.49809 z"
           transform="translate(-0.05437,0.24881)"
           id="path2002" />
        <path
           inkscape:connector-curvature="0"
           d="m 341.061,388.79479 h -8.77148 v 23.76563 h -2.16211 v -23.76563 h -8.75391 v -1.82812 h 19.6875 z"
           transform="translate(-0.05437,0.24881)"
           id="path2004" />
        <path
           inkscape:connector-curvature="0"
           d="m 384.65625,400.29088 h -11.9707 v 10.44141 h 13.76367 v 1.82813 h -15.92578 v -25.59376 h 15.83789 v 1.82813 h -13.67578 v 9.668 h 11.9707 z"
           transform="translate(-0.05437,0.24881)"
           id="path2006" />
        <path
           inkscape:connector-curvature="0"
           d="m 416.78564,412.56041 v -25.59375 h 7.55859 q 4.11255,0 6.23975,1.69727 a 6.01976,6.01976 0 0 1 2.127,5.00391 5.67141,5.67141 0 0 1 -1.08105,3.45654 5.90281,5.90281 0 0 1 -2.96191,2.10156 6.20033,6.20033 0 0 1 4.957,6.13135 6.65257,6.65257 0 0 1 -2.18848,5.29688 8.96954,8.96954 0 0 1 -6.09033,1.90625 z m 2.16211,-14.11523 h 5.90625 a 6.63426,6.63426 0 0 0 4.19189,-1.27637 4.35582,4.35582 0 0 0 1.48535,-3.56641 4.27914,4.27914 0 0 0 -1.53809,-3.63672 7.635,7.635 0 0 0 -4.64893,-1.1709 h -5.39648 z m 0,1.82813 v 10.459 h 6.48633 a 6.48189,6.48189 0 0 0 4.40283,-1.4126 4.9206,4.9206 0 0 0 1.626,-3.92187 4.74863,4.74863 0 0 0 -1.55566,-3.74658 6.25506,6.25506 0 0 0 -4.29736,-1.37793 z"
           transform="translate(-0.05437,0.24881)"
           id="path2008" />
        <path
           inkscape:connector-curvature="0"
           d="m 480.67383,386.96617 v 17.47266 a 8.84856,8.84856 0 0 1 -1.14258,4.5 7.48709,7.48709 0 0 1 -3.17285,2.94434 10.34062,10.34062 0 0 1 -4.70215,1.02832 9.27787,9.27787 0 0 1 -6.47754,-2.20605 8.08732,8.08732 0 0 1 -2.52246,-6.1084 v -17.63087 h 2.14453 v 17.31445 a 6.655,6.655 0 0 0 1.8457,5.01855 7.89811,7.89811 0 0 0 10.01074,-0.009 6.65505,6.65505 0 0 0 1.83691,-4.99219 v -17.332 z"
           transform="translate(-0.05437,0.24881)"
           id="path2010" />
        <path
           inkscape:connector-curvature="0"
           d="M 528.20508,412.55992 H 526.043 l -14.71289,-21.90234 v 21.90234 h -2.17969 v -25.59375 h 2.17969 l 14.73047,21.91992 v -21.91992 h 2.14453 z"
           transform="translate(-0.05437,0.24881)"
           id="path2012" />
        <path
           inkscape:connector-curvature="0"
           d="M 566.83008,412.56041 H 564.668 v -25.59375 h 2.16211 z"
           transform="translate(-0.05437,0.24881)"
           id="path2014" />
        <path
           inkscape:connector-curvature="0"
           d="m 622.31445,412.56041 h -2.16211 l -14.71289,-21.90234 v 21.90234 h -2.17969 v -25.59375 h 2.17969 l 14.73047,21.91992 v -21.91992 h 2.14453 z"
           transform="translate(-0.05437,0.24881)"
           id="path2016" />
        <path
           inkscape:connector-curvature="0"
           d="m 666.98828,400.29039 h -11.9707 v 10.44141 h 13.76367 v 1.82813 h -15.92578 v -25.59376 h 15.83789 v 1.82813 h -13.67578 v 9.668 h 11.9707 z"
           transform="translate(-0.05437,0.24881)"
           id="path2018" />
        <path
           inkscape:connector-curvature="0"
           d="m 198.96,453.97887 a 14.78721,14.78721 0 0 1 -1.22168,6.20508 9.32265,9.32265 0 0 1 -3.48926,4.11328 9.55325,9.55325 0 0 1 -5.23828,1.44141 9.09152,9.09152 0 0 1 -7.24219,-3.208 q -2.75977,-3.208 -2.75977,-8.65723 v -2.63672 a 14.6966,14.6966 0 0 1 1.23926,-6.19629 9.20788,9.20788 0 0 1 8.72754,-5.59863 9.56526,9.56526 0 0 1 5.21191,1.42383 9.35356,9.35356 0 0 1 3.48926,4.02539 14.48726,14.48726 0 0 1 1.2832,6.0293 z m -2.16211,-2.77734 a 11.3115,11.3115 0 0 0 -2.0918,-7.24219 7.52219,7.52219 0 0 0 -11.417,0.009 q -2.11816,2.62793 -2.11816,7.33887 v 2.67188 a 11.31129,11.31129 0 0 0 2.10938,7.21582 7.52925,7.52925 0 0 0 11.46094,0.0352 q 2.05664,-2.62793 2.05664,-7.32129 z"
           transform="translate(-0.05437,0.24881)"
           id="path2020" />
        <path
           inkscape:connector-curvature="0"
           d="m 245.56641,465.38609 h -2.16211 l -14.71289,-21.90234 v 21.90234 h -2.17969 v -25.59375 h 2.17969 l 14.73047,21.91992 v -21.91992 h 2.14453 z"
           transform="translate(-0.05437,0.24881)"
           id="path2022" />
        <path
           inkscape:connector-curvature="0"
           d="M 290.23975,453.11754 H 278.269 v 10.44141 h 13.76367 v 1.82813 h -15.92574 v -25.59376 h 15.83789 v 1.82813 H 278.269 v 9.668 h 11.9707 z"
           transform="translate(-0.05437,0.24881)"
           id="path2024" />
        <path
           inkscape:connector-curvature="0"
           d="m 337.21729,459.0941 a 4.14274,4.14274 0 0 0 -1.49414,-3.36621 15.77787,15.77787 0 0 0 -5.4668,-2.35547 19.15963,19.15963 0 0 1 -5.80078,-2.43457 5.90491,5.90491 0 0 1 -0.18457,-9.65918 9.92587,9.92587 0 0 1 6.17871,-1.83691 10.24868,10.24868 0 0 1 4.56152,0.98438 7.46458,7.46458 0 0 1 3.12012,2.74219 7.2029,7.2029 0 0 1 1.10742,3.91992 h -2.17969 a 5.37783,5.37783 0 0 0 -1.793,-4.22266 6.98075,6.98075 0 0 0 -4.81641,-1.5957 7.58949,7.58949 0 0 0 -4.67578,1.31152 4.09286,4.09286 0 0 0 -1.74023,3.42383 3.8747,3.8747 0 0 0 1.56445,3.1875 14.50784,14.50784 0 0 0 5.00977,2.17383 23.54262,23.54262 0 0 1 5.2207,1.95313 7.44089,7.44089 0 0 1 2.67188,2.417 6.04722,6.04722 0 0 1 0.89648,3.32227 5.785,5.785 0 0 1 -2.417,4.85156 10.29391,10.29391 0 0 1 -6.37207,1.82813 12.49022,12.49022 0 0 1 -4.96582,-0.9668 7.58506,7.58506 0 0 1 -3.42773,-2.707 6.98846,6.98846 0 0 1 -1.16895,-3.99023 h 2.16211 a 5.10948,5.10948 0 0 0 2.02148,4.27148 8.556,8.556 0 0 0 5.37891,1.56445 7.973,7.973 0 0 0 4.79883,-1.31836 4.12137,4.12137 0 0 0 1.81059,-3.4981 z"
           transform="translate(-0.05437,0.24881)"
           id="path2026" />
        <path
           inkscape:connector-curvature="0"
           d="m 377.9917,465.38707 h -2.16211 v -25.59375 h 2.16211 z"
           transform="translate(-0.05437,0.24881)"
           id="path2028" />
        <path
           inkscape:connector-curvature="0"
           d="m 423.97217,450.62145 7.20752,-10.82812 h 2.584 l -8.47314,12.62109 8.73682,12.97266 h -2.60156 l -7.45361,-11.17969 -7.48828,11.17969 h -2.56641 l 8.75391,-12.97266 -8.49023,-12.62109 h 2.584 z"
           transform="translate(-0.05437,0.24881)"
           id="path2030" />
        <path
           inkscape:connector-curvature="0"
           d="m 481.30469,441.62047 h -8.77149 v 23.76563 h -2.16211 v -23.76563 h -8.75391 v -1.82812 h 19.6875 z"
           transform="translate(-0.05437,0.24881)"
           id="path2032" />
        <path
           inkscape:connector-curvature="0"
           d="m 527.543,465.38609 h -2.17969 v -12.26953 h -14.625 v 12.26953 h -2.16211 v -25.59375 h 2.16211 v 11.49609 h 14.625 v -11.49609 h 2.17969 z"
           transform="translate(-0.05437,0.24881)"
           id="path2034" />
        <path
           inkscape:connector-curvature="0"
           d="m 566.502,454.71715 h -7.43555 v 10.66992 h -2.17969 v -25.59375 h 8.31445 a 9.48833,9.48833 0 0 1 6.39844,1.98438 7.57186,7.57186 0 0 1 0.86133,9.88379 7.36544,7.36544 0 0 1 -3.86719,2.59863 l 6.39844,10.89746 v 0.22949 h -2.30273 z m -7.43555,-1.82812 h 6.627 a 6.13866,6.13866 0 0 0 4.377,-1.5498 5.85081,5.85081 0 0 0 -0.0705,-8.22169 7.14084,7.14084 0 0 0 -4.834,-1.49609 h -6.09961 z"
           transform="translate(-0.05437,0.24881)"
           id="path2036" />
        <path
           inkscape:connector-curvature="0"
           d="m 619.31445,453.11754 h -11.9707 v 10.44141 h 13.76367 v 1.82813 h -15.92578 v -25.59376 h 15.83789 v 1.82813 h -13.67578 v 9.668 h 11.9707 z"
           transform="translate(-0.05437,0.24881)"
           id="path2038" />
        <path
           inkscape:connector-curvature="0"
           d="m 666.37012,453.11656 h -11.9707 V 463.558 h 13.76367 v 1.82813 H 652.2373 v -25.59379 h 15.8379 v 1.82813 h -13.67579 v 9.668 h 11.9707 z"
           transform="translate(-0.05437,0.24881)"
           id="path2040" />
        <path
           inkscape:connector-curvature="0"
           d="m 196.2002,506.24449 h -11.93555 v 11.9707 h -2.16211 V 492.62145 H 197.958 v 1.82813 h -13.69335 v 9.9668 h 11.93555 z"
           transform="translate(-0.05437,0.24881)"
           id="path2042" />
        <path
           inkscape:connector-curvature="0"
           d="m 246.02344,506.807 a 14.78721,14.78721 0 0 1 -1.22168,6.20508 9.32265,9.32265 0 0 1 -3.48926,4.11328 9.55325,9.55325 0 0 1 -5.23828,1.44141 9.09152,9.09152 0 0 1 -7.24219,-3.208 q -2.75977,-3.208 -2.75977,-8.65723 v -2.63674 a 14.69661,14.69661 0 0 1 1.23926,-6.19629 9.20788,9.20788 0 0 1 8.72754,-5.59863 9.56526,9.56526 0 0 1 5.21191,1.42383 9.35356,9.35356 0 0 1 3.48926,4.02539 14.48726,14.48726 0 0 1 1.2832,6.0293 z m -2.16211,-2.77734 a 11.3115,11.3115 0 0 0 -2.0918,-7.24219 7.52219,7.52219 0 0 0 -11.417,0.009 q -2.11816,2.62793 -2.11816,7.33887 v 2.67187 a 11.31129,11.31129 0 0 0 2.10938,7.21582 7.52925,7.52925 0 0 0 11.46094,0.0352 q 2.05664,-2.62793 2.05664,-7.32129 z"
           transform="translate(-0.05437,0.24881)"
           id="path2044" />
        <path
           inkscape:connector-curvature="0"
           d="m 292.147,492.62145 v 17.47265 a 8.84856,8.84856 0 0 1 -1.14258,4.5 7.48709,7.48709 0 0 1 -3.17285,2.94434 10.34062,10.34062 0 0 1 -4.70215,1.02832 9.27787,9.27787 0 0 1 -6.47754,-2.20605 8.08732,8.08732 0 0 1 -2.52246,-6.1084 v -17.63086 h 2.14453 v 17.31445 a 6.655,6.655 0 0 0 1.8457,5.01855 7.89811,7.89811 0 0 0 10.01074,-0.009 6.655,6.655 0 0 0 1.83691,-4.99219 v -17.332 z"
           transform="translate(-0.05437,0.24881)"
           id="path2046" />
        <path
           inkscape:connector-curvature="0"
           d="m 331.53076,507.54527 h -7.43555 v 10.66993 h -2.17969 V 492.62145 H 330.23 a 9.48833,9.48833 0 0 1 6.39844,1.98438 7.57186,7.57186 0 0 1 0.86133,9.88379 7.36544,7.36544 0 0 1 -3.86719,2.59863 l 6.39842,10.89745 v 0.22949 h -2.30273 z m -7.43555,-1.82812 h 6.627 a 6.13866,6.13866 0 0 0 4.377,-1.5498 5.85081,5.85081 0 0 0 -0.0703,-8.22168 7.14084,7.14084 0 0 0 -4.834,-1.49609 h -6.09961 z"
           transform="translate(-0.05437,0.24881)"
           id="path2048" />
        <path
           inkscape:connector-curvature="0"
           d="m 384.11768,506.24449 h -11.93555 v 11.9707 H 370.02 v -25.59374 h 15.85547 v 1.82813 h -13.69334 v 9.9668 h 11.93555 z"
           transform="translate(-0.05437,0.24881)"
           id="path2050" />
        <path
           inkscape:connector-curvature="0"
           d="m 425.04443,518.2152 h -2.16211 v -25.59375 h 2.16211 z"
           transform="translate(-0.05437,0.24881)"
           id="path2052" />
        <path
           inkscape:connector-curvature="0"
           d="m 470.87109,515.05113 0.14063,0.54492 0.1582,-0.54492 8.05078,-22.42969 h 2.373 l -9.52734,25.59375 h -2.07422 l -9.52734,-25.59375 h 2.35547 z"
           transform="translate(-0.05437,0.24881)"
           id="path2054" />
        <path
           inkscape:connector-curvature="0"
           d="m 525.20508,505.94566 h -11.9707 v 10.44141 H 526.998 v 1.82813 h -15.92573 v -25.59375 h 15.83789 v 1.82813 h -13.67578 v 9.668 h 11.9707 z"
           transform="translate(-0.05437,0.24881)"
           id="path2056" />
        <path
           inkscape:connector-curvature="0"
           d="m 575.41406,494.44957 h -8.77148 v 23.76563 h -2.16211 v -23.76563 h -8.75391 v -1.82812 h 19.6875 z"
           transform="translate(-0.05437,0.24881)"
           id="path2058" />
        <path
           inkscape:connector-curvature="0"
           d="m 604.0127,511.307 0.791,3.97266 0.9668,-3.79688 5.55469,-18.86133 h 1.95117 l 5.48438,18.86133 0.94922,3.832 0.84375,-4.00781 4.623,-18.68555 h 2.21484 L 620.835,518.2152 h -2.07422 l -5.80078,-20.02149 -0.65039,-2.53125 -0.63281,2.53125 -5.94141,20.02148 h -2.07422 l -6.53906,-25.59375 h 2.21484 z"
           transform="translate(-0.05437,0.24881)"
           id="path2060" />
        <path
           inkscape:connector-curvature="0"
           d="m 669.209,506.806 a 14.78721,14.78721 0 0 1 -1.22168,6.20508 9.32265,9.32265 0 0 1 -3.48926,4.11328 9.55325,9.55325 0 0 1 -5.23828,1.44141 9.09072,9.09072 0 0 1 -7.24219,-3.207 q -2.75977,-3.208 -2.75977,-8.6582 v -2.63672 a 14.692,14.692 0 0 1 1.23926,-6.19531 9.21069,9.21069 0 0 1 8.72754,-5.59961 9.56525,9.56525 0 0 1 5.21191,1.42383 9.35355,9.35355 0 0 1 3.48926,4.02539 14.48726,14.48726 0 0 1 1.2832,6.0293 z m -2.16211,-2.77734 a 11.3115,11.3115 0 0 0 -2.0918,-7.24219 7.52128,7.52128 0 0 0 -11.417,0.01 q -2.11816,2.62793 -2.11816,7.33789 v 2.67187 a 11.31422,11.31422 0 0 0 2.10938,7.2168 7.53105,7.53105 0 0 0 11.46094,0.0352 q 2.05664,-2.62793 2.05664,-7.32227 z"
           transform="translate(-0.05437,0.24881)"
           id="path2062" />
        <path
           inkscape:connector-curvature="0"
           d="m 195.50342,558.77184 h -11.9707 v 10.44141 h 13.76367 v 1.82813 h -15.92578 v -25.59376 h 15.83789 v 1.82813 h -13.67579 v 9.668 h 11.9707 z"
           transform="translate(-0.05437,0.24881)"
           id="path2064" />
        <path
           inkscape:connector-curvature="0"
           d="m 236.52,571.04137 h -2.16211 V 545.44762 H 236.52 Z"
           transform="translate(-0.05437,0.24881)"
           id="path2066" />
        <path
           inkscape:connector-curvature="0"
           d="m 291.89844,568.00035 a 7.24437,7.24437 0 0 1 -3.52441,2.49609 15.25,15.25 0 0 1 -5.37012,0.89648 9.97322,9.97322 0 0 1 -5.34375,-1.44141 9.59373,9.59373 0 0 1 -3.62109,-4.07812 13.81744,13.81744 0 0 1 -1.30078,-6.04687 v -3.23437 q 0,-5.32617 2.68945,-8.41113 a 9.10044,9.10044 0 0 1 7.22461,-3.085 9.59727,9.59727 0 0 1 6.36328,2.0127 8.30722,8.30722 0 0 1 2.86523,5.5459 h -2.16211 a 6.63648,6.63648 0 0 0 -2.29395,-4.27539 7.38457,7.38457 0 0 0 -4.75488,-1.45508 6.95556,6.95556 0 0 0 -5.67773,2.55078 q -2.0918,2.55176 -2.0918,7.19531 v 3.02539 a 12.64726,12.64726 0 0 0 0.99316,5.16406 7.87162,7.87162 0 0 0 2.84766,3.47363 7.52514,7.52514 0 0 0 4.2627,1.23145 11.89675,11.89675 0 0 0 4.79883,-0.87891 5.1691,5.1691 0 0 0 1.93359,-1.35352 V 560.723 h -6.873 v -1.82812 h 9.03516 z"
           transform="translate(-0.05437,0.24881)"
           id="path2068" />
        <path
           inkscape:connector-curvature="0"
           d="m 339.00781,571.04137 h -2.17969 v -12.26953 h -14.625 v 12.26953 H 320.041 v -25.59375 h 2.16211 v 11.49609 h 14.625 v -11.49609 h 2.17969 z"
           transform="translate(-0.05437,0.24881)"
           id="path2070" />
        <path
           inkscape:connector-curvature="0"
           d="m 386.57568,547.27574 h -8.77148 v 23.76563 h -2.16211 v -23.76563 h -8.75391 v -1.82812 h 19.6875 z"
           transform="translate(-0.05437,0.24881)"
           id="path2072" />
        <path
           inkscape:connector-curvature="0"
           d="m 430.47363,558.77184 h -11.9707 v 10.44141 h 13.76367 v 1.82813 h -15.92578 v -25.59376 h 15.83789 v 1.82813 h -13.67578 v 9.668 h 11.9707 z"
           transform="translate(-0.05437,0.24881)"
           id="path2074" />
        <path
           inkscape:connector-curvature="0"
           d="m 466.334,569.21324 h 12.63867 v 1.82813 H 464.1543 v -25.59375 h 2.1797 z"
           transform="translate(-0.05437,0.24881)"
           id="path2076" />
        <path
           inkscape:connector-curvature="0"
           d="m 524.58691,558.77184 h -11.9707 v 10.44141 h 13.76367 v 1.82813 H 510.4541 v -25.59376 h 15.8379 v 1.82813 h -13.67579 v 9.668 h 11.9707 z"
           transform="translate(-0.05437,0.24881)"
           id="path2078" />
        <path
           inkscape:connector-curvature="0"
           d="m 564.36328,567.8773 0.14063,0.54492 0.1582,-0.54492 8.05078,-22.42969 h 2.373 l -9.52734,25.59375 h -2.07422 L 553.957,545.44762 h 2.35547 z"
           transform="translate(-0.05437,0.24881)"
           id="path2080" />
        <path
           inkscape:connector-curvature="0"
           d="m 618.69629,558.77184 h -11.9707 v 10.44141 h 13.76367 v 1.82813 h -15.92578 v -25.59376 h 15.83789 v 1.82813 h -13.67578 v 9.668 h 11.9707 z"
           transform="translate(-0.05437,0.24881)"
           id="path2082" />
        <path
           inkscape:connector-curvature="0"
           d="m 668.13379,571.04137 h -2.16211 L 651.25879,549.139 v 21.90234 h -2.17969 v -25.59372 h 2.17969 l 14.73047,21.91992 v -21.91992 h 2.14453 z"
           transform="translate(-0.05437,0.24881)"
           id="path2084" />
        <path
           inkscape:connector-curvature="0"
           d="m 195.74219,617.57555 a 4.14274,4.14274 0 0 0 -1.49414,-3.36621 15.77787,15.77787 0 0 0 -5.4668,-2.35547 19.15963,19.15963 0 0 1 -5.80078,-2.43457 5.90491,5.90491 0 0 1 -0.18457,-9.65918 9.92587,9.92587 0 0 1 6.17871,-1.83691 10.24868,10.24868 0 0 1 4.56152,0.98438 7.46458,7.46458 0 0 1 3.12012,2.74219 7.2029,7.2029 0 0 1 1.10742,3.91992 H 195.584 a 5.37783,5.37783 0 0 0 -1.793,-4.22266 6.98075,6.98075 0 0 0 -4.81641,-1.5957 7.58949,7.58949 0 0 0 -4.67578,1.31152 4.09286,4.09286 0 0 0 -1.74023,3.42383 3.8747,3.8747 0 0 0 1.56445,3.1875 14.50784,14.50784 0 0 0 5.00977,2.17383 23.54262,23.54262 0 0 1 5.2207,1.95313 7.44089,7.44089 0 0 1 2.67188,2.417 6.04722,6.04722 0 0 1 0.89648,3.32227 5.785,5.785 0 0 1 -2.417,4.85156 10.29391,10.29391 0 0 1 -6.37207,1.82813 12.49022,12.49022 0 0 1 -4.96582,-0.9668 7.58506,7.58506 0 0 1 -3.42773,-2.707 6.98846,6.98846 0 0 1 -1.16895,-3.99023 h 2.16211 a 5.10948,5.10948 0 0 0 2.02148,4.27148 8.556,8.556 0 0 0 5.37891,1.56445 7.973,7.973 0 0 0 4.79883,-1.31836 4.12137,4.12137 0 0 0 1.81057,-3.4981 z"
           transform="translate(-0.05437,0.24881)"
           id="path2086" />
        <path
           inkscape:connector-curvature="0"
           d="m 242.876,611.598 h -11.9707 v 10.44141 h 13.76367 v 1.82813 h -15.92581 v -25.59375 h 15.83789 v 1.82813 h -13.67578 v 9.668 H 242.876 Z"
           transform="translate(-0.05437,0.24881)"
           id="path2088" />
        <path
           inkscape:connector-curvature="0"
           d="m 282.65332,620.70445 0.14063,0.54492 0.1582,-0.54492 8.05078,-22.42969 h 2.373 l -9.52734,25.59375 h -2.07422 l -9.52734,-25.59375 h 2.35547 z"
           transform="translate(-0.05437,0.24881)"
           id="path2090" />
        <path
           inkscape:connector-curvature="0"
           d="m 336.97852,611.599 h -11.9707 v 10.44141 h 13.76367 v 1.82813 H 322.8457 v -25.59377 h 15.83789 v 1.82813 h -13.67578 v 9.668 h 11.9707 z"
           transform="translate(-0.05437,0.24881)"
           id="path2092" />
        <path
           inkscape:connector-curvature="0"
           d="m 386.11133,623.86754 h -2.16211 L 369.23633,601.9652 v 21.90234 h -2.17969 v -25.59375 h 2.17969 l 14.73047,21.91992 v -21.91992 h 2.14453 z"
           transform="translate(-0.05437,0.24881)"
           id="path2094" />
        <path
           inkscape:connector-curvature="0"
           d="m 433.9375,600.10191 h -8.7715 v 23.76563 h -2.16211 V 600.10191 H 414.25 v -1.82812 h 19.6875 z"
           transform="translate(-0.05437,0.24881)"
           id="path2096" />
        <path
           inkscape:connector-curvature="0"
           d="m 462.53809,616.95934 0.791,3.97266 0.9668,-3.79687 5.55469,-18.86133 h 1.95117 l 5.48438,18.86133 0.94922,3.832 0.84375,-4.00781 4.623,-18.68555 h 2.2149 l -6.55664,25.59375 h -2.07422 l -5.80078,-20.02148 -0.65039,-2.53125 -0.63281,2.53125 -5.94141,20.02148 h -2.07422 l -6.53906,-25.59375 h 2.21484 z"
           transform="translate(-0.05437,0.24881)"
           id="path2098" />
        <path
           inkscape:connector-curvature="0"
           d="M 524.89551,611.598 H 512.9248 v 10.44141 h 13.76367 v 1.82813 H 510.7627 v -25.59375 h 15.83789 v 1.82813 H 512.9248 v 9.668 h 11.9707 z"
           transform="translate(-0.05437,0.24881)"
           id="path2100" />
        <path
           inkscape:connector-curvature="0"
           d="m 560.75293,622.03941 h 12.63867 v 1.82813 h -14.81836 v -25.59375 h 2.17969 z"
           transform="translate(-0.05437,0.24881)"
           id="path2102" />
        <path
           inkscape:connector-curvature="0"
           d="m 611.72754,620.70348 0.14063,0.54492 0.1582,-0.54492 8.05078,-22.42969 h 2.373 l -9.52734,25.59375 h -2.07422 l -9.52734,-25.59375 h 2.35547 z"
           transform="translate(-0.05437,0.24881)"
           id="path2104" />
        <path
           inkscape:connector-curvature="0"
           d="m 666.06152,611.598 h -11.9707 v 10.44141 h 13.76367 v 1.82813 h -15.92578 v -25.59375 h 15.83789 v 1.82813 h -13.67578 v 9.668 h 11.9707 z"
           transform="translate(-0.05437,0.24881)"
           id="path2106" />
        <path
           inkscape:connector-curvature="0"
           d="m 198.97021,652.92809 h -8.77148 v 23.76563 h -2.16211 v -23.76563 h -8.75391 V 651.1 h 19.6875 z"
           transform="translate(-0.05437,0.24881)"
           id="path2108" />
        <path
           inkscape:connector-curvature="0"
           d="m 242.87842,664.42418 h -11.9707 v 10.44141 h 13.76367 v 1.82813 H 228.74561 V 651.1 h 15.83789 v 1.82813 h -13.67579 v 9.668 h 11.9707 z"
           transform="translate(-0.05437,0.24881)"
           id="path2110" />
        <path
           inkscape:connector-curvature="0"
           d="m 292.31543,676.69371 h -2.16211 l -14.71289,-21.90234 v 21.90234 h -2.17969 V 651.1 h 2.17969 l 14.73047,21.91992 V 651.1 h 2.14453 z"
           transform="translate(-0.05437,0.24881)"
           id="path2112" />
        <path
           inkscape:connector-curvature="0"
           d="m 336.91113,670.40074 a 4.14274,4.14274 0 0 0 -1.49414,-3.36621 15.77787,15.77787 0 0 0 -5.4668,-2.35547 19.15963,19.15963 0 0 1 -5.80078,-2.43457 5.90491,5.90491 0 0 1 -0.18457,-9.65918 9.92587,9.92587 0 0 1 6.17871,-1.83691 10.24868,10.24868 0 0 1 4.56152,0.98438 7.46458,7.46458 0 0 1 3.12012,2.74219 7.2029,7.2029 0 0 1 1.10742,3.91992 h -2.17969 a 5.37922,5.37922 0 0 0 -1.793,-4.22266 6.98075,6.98075 0 0 0 -4.81641,-1.5957 7.58949,7.58949 0 0 0 -4.67578,1.31152 4.0946,4.0946 0 0 0 -1.74023,3.4248 3.8729,3.8729 0 0 0 1.56445,3.18652 14.48769,14.48769 0 0 0 5.00977,2.1748 23.54871,23.54871 0 0 1 5.2207,1.95215 7.44089,7.44089 0 0 1 2.67188,2.417 6.04722,6.04722 0 0 1 0.89648,3.32227 5.785,5.785 0 0 1 -2.417,4.85156 10.29391,10.29391 0 0 1 -6.37207,1.82813 12.49022,12.49022 0 0 1 -4.96582,-0.9668 7.58506,7.58506 0 0 1 -3.42773,-2.707 6.98846,6.98846 0 0 1 -1.16895,-3.99023 h 2.16211 a 5.10948,5.10948 0 0 0 2.02148,4.27148 8.556,8.556 0 0 0 5.37891,1.56445 7.973,7.973 0 0 0 4.79883,-1.31836 4.12137,4.12137 0 0 0 1.81059,-3.49808 z"
           transform="translate(-0.05437,0.24881)"
           id="path2114" />
        <path
           inkscape:connector-curvature="0"
           d="m 370.03906,674.86559 h 15.80274 v 1.82813 h -18.42188 v -1.63477 l 15.1875,-22.13086 H 367.877 V 651.1 h 17.4023 v 1.53223 z"
           transform="translate(-0.05437,0.24881)"
           id="path2116" />
        <path
           inkscape:connector-curvature="0"
           d="m 432.4248,665.28551 a 14.78721,14.78721 0 0 1 -1.22168,6.20508 9.32265,9.32265 0 0 1 -3.48926,4.11328 9.55325,9.55325 0 0 1 -5.23828,1.44141 9.09152,9.09152 0 0 1 -7.24219,-3.208 q -2.75977,-3.208 -2.75977,-8.65723 v -2.63672 a 14.69661,14.69661 0 0 1 1.23926,-6.19629 9.20788,9.20788 0 0 1 8.72754,-5.59863 9.56525,9.56525 0 0 1 5.21191,1.42383 9.35355,9.35355 0 0 1 3.48926,4.02539 14.48726,14.48726 0 0 1 1.2832,6.0293 z m -2.16211,-2.77734 a 11.3115,11.3115 0 0 0 -2.0918,-7.24219 7.52219,7.52219 0 0 0 -11.417,0.009 q -2.11816,2.62793 -2.11816,7.33887 v 2.67188 a 11.31129,11.31129 0 0 0 2.10938,7.21582 7.52925,7.52925 0 0 0 11.46094,0.0352 q 2.05664,-2.62793 2.05664,-7.32129 z"
           transform="translate(-0.05437,0.24881)"
           id="path2118" />
        <path
           inkscape:connector-curvature="0"
           d="m 436.97754,657.37535 -1.248,-0.91406 a 7.673,7.673 0 0 0 1.63477,-4.46484 v -2.30273 h 2.07422 v 1.77539 a 7.59074,7.59074 0 0 1 -2.46099,5.90624 z"
           transform="translate(-0.05437,0.24881)"
           id="path2120" />
        <path
           inkscape:connector-curvature="0"
           d="m 480.38281,668.71324 a 9.17286,9.17286 0 0 1 -2.8916,6.1875 9.56533,9.56533 0 0 1 -6.53027,2.14453 9.02752,9.02752 0 0 1 -5.03613,-1.42383 9.284,9.284 0 0 1 -3.38379,-4.03418 14.37119,14.37119 0 0 1 -1.21289,-5.96777 v -3.32227 a 14.50276,14.50276 0 0 1 1.19531,-6.04687 9.193,9.193 0 0 1 3.43656,-4.06935 9.37,9.37 0 0 1 5.15918,-1.43262 9.16271,9.16271 0 0 1 6.49512,2.21484 9.27868,9.27868 0 0 1 2.76855,6.13477 h -2.17969 q -0.80859,-6.52148 -7.084,-6.52148 a 6.71406,6.71406 0 0 0 -5.5459,2.60352 11.2916,11.2916 0 0 0 -2.06543,7.19531 v 3.13086 a 11.37682,11.37682 0 0 0 2.0127,7.07227 6.48469,6.48469 0 0 0 5.44043,2.63867 7.1968,7.1968 0 0 0 5.11523,-1.626 7.79268,7.79268 0 0 0 2.127,-4.87793 z"
           transform="translate(-0.05437,0.24881)"
           id="path2122" />
        <path
           inkscape:connector-curvature="0"
           d="m 513.70117,674.86559 h 12.63867 v 1.82813 H 511.52148 V 651.1 h 2.17969 z"
           transform="translate(-0.05437,0.24881)"
           id="path2124" />
        <path
           inkscape:connector-curvature="0"
           d="m 574.791,665.28551 a 14.78721,14.78721 0 0 1 -1.22168,6.20508 9.32265,9.32265 0 0 1 -3.48926,4.11328 9.55325,9.55325 0 0 1 -5.23828,1.44141 9.09152,9.09152 0 0 1 -7.24219,-3.208 q -2.75977,-3.208 -2.75977,-8.65723 v -2.63672 a 14.69661,14.69661 0 0 1 1.23926,-6.19629 9.20788,9.20788 0 0 1 8.72754,-5.59863 9.56525,9.56525 0 0 1 5.21191,1.42383 9.35355,9.35355 0 0 1 3.48926,4.02539 14.48726,14.48726 0 0 1 1.2832,6.0293 z m -2.16211,-2.77734 a 11.3115,11.3115 0 0 0 -2.0918,-7.24219 7.52219,7.52219 0 0 0 -11.417,0.009 q -2.11816,2.62793 -2.11816,7.33887 v 2.67188 a 11.31129,11.31129 0 0 0 2.10938,7.21582 7.52925,7.52925 0 0 0 11.46094,0.0352 q 2.05664,-2.62793 2.05664,-7.32129 z"
           transform="translate(-0.05437,0.24881)"
           id="path2126" />
        <path
           inkscape:connector-curvature="0"
           d="m 621.54785,668.71324 a 9.17286,9.17286 0 0 1 -2.8916,6.1875 9.56533,9.56533 0 0 1 -6.53027,2.14453 9.02752,9.02752 0 0 1 -5.03613,-1.42383 9.284,9.284 0 0 1 -3.38379,-4.03418 14.37119,14.37119 0 0 1 -1.21289,-5.96777 v -3.32227 a 14.50276,14.50276 0 0 1 1.19531,-6.04687 9.193,9.193 0 0 1 3.43652,-4.06935 9.37,9.37 0 0 1 5.15918,-1.43262 9.16271,9.16271 0 0 1 6.49512,2.21484 9.27868,9.27868 0 0 1 2.76855,6.13477 h -2.17969 q -0.80859,-6.52148 -7.084,-6.52148 a 6.71406,6.71406 0 0 0 -5.5459,2.60352 11.2916,11.2916 0 0 0 -2.06543,7.19531 v 3.13184 a 11.37186,11.37186 0 0 0 2.0127,7.07129 6.48469,6.48469 0 0 0 5.44043,2.63867 7.1968,7.1968 0 0 0 5.11523,-1.626 7.79268,7.79268 0 0 0 2.127,-4.87793 z"
           transform="translate(-0.05437,0.24881)"
           id="path2128" />
        <path
           inkscape:connector-curvature="0"
           d="m 656.58008,663.98473 -3.60352,3.55078 v 9.1582 h -2.16211 V 651.1 h 2.16211 v 13.79883 L 666.08984,651.1 h 2.72461 l -10.72265,11.39059 11.54883,14.20313 h -2.63672 z"
           transform="translate(-0.05437,0.24881)"
           id="path2130" />
      </g>
    </g>
  </g>
</svg>
