<?xml version="1.0" encoding="UTF-8" standalone="no"?>
<svg
   xmlns:dc="http://purl.org/dc/elements/1.1/"
   xmlns:cc="http://creativecommons.org/ns#"
   xmlns:rdf="http://www.w3.org/1999/02/22-rdf-syntax-ns#"
   xmlns:svg="http://www.w3.org/2000/svg"
   xmlns="http://www.w3.org/2000/svg"
   xmlns:sodipodi="http://sodipodi.sourceforge.net/DTD/sodipodi-0.dtd"
   xmlns:inkscape="http://www.inkscape.org/namespaces/inkscape"
   viewBox="0 0 1133.8445 1133.9474"
   version="1.1"
   id="svg240"
   sodipodi:docname="glass template FR - mirrored outlines (visicut ready).svg"
   width="1133.8445"
   height="1133.9474"
   inkscape:version="0.92.2 5c3e80d, 2017-08-06">
  <metadata
     id="metadata244">
    <rdf:RDF>
      <cc:Work
         rdf:about="">
        <dc:format>image/svg+xml</dc:format>
        <dc:type
           rdf:resource="http://purl.org/dc/dcmitype/StillImage" />
        <dc:title>glass template EN</dc:title>
      </cc:Work>
    </rdf:RDF>
  </metadata>
  <sodipodi:namedview
     pagecolor="#ffffff"
     bordercolor="#666666"
     borderopacity="1"
     objecttolerance="10"
     gridtolerance="10"
     guidetolerance="10"
     inkscape:pageopacity="0"
     inkscape:pageshadow="2"
     inkscape:window-width="1680"
     inkscape:window-height="925"
     id="namedview242"
     showgrid="false"
     showguides="false"
     inkscape:zoom="0.5"
     inkscape:cx="399.29984"
     inkscape:cy="573.28747"
     inkscape:window-x="0"
     inkscape:window-y="1"
     inkscape:window-maximized="1"
     inkscape:current-layer="layer2"
     fit-margin-top="0"
     fit-margin-left="0"
     fit-margin-right="0"
     fit-margin-bottom="0" />
  <defs
     id="defs4">
    <style
       id="style2">.cls-1{fill:none;stroke:#fc3703;stroke-miterlimit:10;stroke-width:0.5px;}.cls-2,.cls-3{font-size:36px;font-family:Roboto-Light, Roboto;}.cls-3{letter-spacing:-0.02393em;}</style>
    <style
       id="style1232">.cls-1,.cls-2{fill:none;stroke:#fc3703;stroke-miterlimit:10;stroke-width:0.5px;}.cls-2{opacity:0.97;isolation:isolate;}</style>
    <style
       id="style1893">.cls-1{fill:none;stroke:#fc3703;stroke-miterlimit:10;stroke-width:0.5px;}</style>
    <style
       id="style3800">.cls-1{fill:none;stroke:#fc3703;stroke-miterlimit:10;stroke-width:0.5px;}.cls-2,.cls-3{font-size:36px;font-family:Roboto-Light, Roboto;}.cls-3{letter-spacing:-0.02393em;}</style>
    <style
       id="style2-9">.cls-1,.cls-2{fill:none;stroke:#ff3600;stroke-width:0.5px;}.cls-2{stroke-miterlimit:1;opacity:0.97;isolation:isolate;}.cls-3,.cls-4{font-size:36px;font-family:Roboto-Light, Roboto;}.cls-4{letter-spacing:-0.02393em;}</style>
    <style
       id="style7085">.cls-1,.cls-2{fill:none;stroke:#ff3600;stroke-width:0.5px;}.cls-2{stroke-miterlimit:1;opacity:0.97;isolation:isolate;}</style>
  </defs>
  <title
     id="title6">glass template EN</title>
  <g
     inkscape:groupmode="layer"
     id="layer1"
     inkscape:label="Do not laser"
     style="display:inline"
     transform="translate(-0.0068978,283.05017)"
     sodipodi:insensitive="true">
    <g
       id="g12180"
       transform="matrix(-1.3325375,0,0,1.3326602,1133.8514,-283.05171)">
      <rect
         height="850.3913"
         width="850.39124"
         y="0.25"
         x="0.25"
         class="cls-1"
         id="rect4492-7"
         style="fill:none;stroke:#fc3703;stroke-width:0.5px;stroke-miterlimit:10" />
      <circle
         r="5.6692901"
         cy="57.017281"
         cx="57.0242"
         class="cls-1"
         id="path4368"
         style="fill:none;stroke:#fc3703;stroke-width:0.5px;stroke-miterlimit:10" />
      <circle
         r="5.6692901"
         cy="57.21854"
         cx="793.86737"
         class="cls-1"
         id="path4372"
         style="fill:none;stroke:#fc3703;stroke-width:0.5px;stroke-miterlimit:10" />
      <circle
         r="5.6692901"
         cy="793.85632"
         cx="57.024639"
         class="cls-1"
         id="path4374"
         style="fill:none;stroke:#fc3703;stroke-width:0.5px;stroke-miterlimit:10" />
      <circle
         r="5.6692901"
         cy="793.85632"
         cx="793.87335"
         class="cls-1"
         id="path4376"
         style="fill:none;stroke:#fc3703;stroke-width:0.5px;stroke-miterlimit:10" />
      <path
         d="m 176.81371,168.11871 h 26.71549 a 6.24169,6.24169 0 0 1 6.24169,6.24169 v 26.71552 a 6.24168,6.24168 0 0 1 -6.24168,6.24168 h -26.7155 a 6.24169,6.24169 0 0 1 -6.24169,-6.24169 V 174.3604 a 6.24169,6.24169 0 0 1 6.24169,-6.24169 z"
         class="cls-1"
         id="rect4382"
         inkscape:connector-curvature="0"
         style="fill:none;stroke:#fc3703;stroke-width:0.5px;stroke-miterlimit:10" />
      <path
         d="M 223.86949,168.11871 H 250.585 a 6.24169,6.24169 0 0 1 6.24169,6.24169 v 26.71552 a 6.24168,6.24168 0 0 1 -6.24168,6.24168 h -26.7155 a 6.24168,6.24168 0 0 1 -6.24168,-6.24168 V 174.3604 a 6.24169,6.24169 0 0 1 6.24166,-6.24169 z"
         class="cls-1"
         id="rect13966"
         inkscape:connector-curvature="0"
         style="fill:none;stroke:#fc3703;stroke-width:0.5px;stroke-miterlimit:10" />
      <path
         d="m 270.92461,168.11871 h 26.71548 a 6.24169,6.24169 0 0 1 6.24169,6.24169 v 26.71552 a 6.24168,6.24168 0 0 1 -6.24168,6.24168 h -26.7155 a 6.24168,6.24168 0 0 1 -6.24168,-6.24168 V 174.3604 a 6.24169,6.24169 0 0 1 6.24169,-6.24169 z"
         class="cls-1"
         id="rect13968"
         inkscape:connector-curvature="0"
         style="fill:none;stroke:#fc3703;stroke-width:0.5px;stroke-miterlimit:10" />
      <path
         d="m 317.98039,168.11871 h 26.71548 a 6.24169,6.24169 0 0 1 6.24169,6.24169 v 26.71552 a 6.24168,6.24168 0 0 1 -6.24168,6.24168 h -26.7155 a 6.24168,6.24168 0 0 1 -6.24168,-6.24168 V 174.3604 a 6.24169,6.24169 0 0 1 6.24169,-6.24169 z"
         class="cls-1"
         id="rect13970"
         inkscape:connector-curvature="0"
         style="fill:none;stroke:#fc3703;stroke-width:0.5px;stroke-miterlimit:10" />
      <path
         d="m 365.03483,168.11871 h 26.71549 a 6.2417,6.2417 0 0 1 6.2417,6.2417 v 26.7155 a 6.24168,6.24168 0 0 1 -6.24168,6.24168 h -26.71552 a 6.24168,6.24168 0 0 1 -6.24168,-6.24168 V 174.3604 a 6.24169,6.24169 0 0 1 6.24169,-6.24169 z"
         class="cls-1"
         id="rect13972"
         inkscape:connector-curvature="0"
         style="fill:none;stroke:#fc3703;stroke-width:0.5px;stroke-miterlimit:10" />
      <path
         d="m 412.09063,168.11871 h 26.71547 a 6.2417,6.2417 0 0 1 6.2417,6.2417 v 26.7155 a 6.24168,6.24168 0 0 1 -6.24168,6.24168 h -26.71548 a 6.2417,6.2417 0 0 1 -6.2417,-6.2417 V 174.3604 a 6.24169,6.24169 0 0 1 6.24169,-6.24169 z"
         class="cls-1"
         id="rect13974"
         inkscape:connector-curvature="0"
         style="fill:none;stroke:#fc3703;stroke-width:0.5px;stroke-miterlimit:10" />
      <path
         d="m 459.14572,168.11871 h 26.71547 a 6.2417,6.2417 0 0 1 6.2417,6.2417 v 26.7155 a 6.24168,6.24168 0 0 1 -6.24168,6.24168 h -26.71548 a 6.2417,6.2417 0 0 1 -6.2417,-6.2417 V 174.3604 a 6.24169,6.24169 0 0 1 6.24169,-6.24169 z"
         class="cls-1"
         id="rect13976"
         inkscape:connector-curvature="0"
         style="fill:none;stroke:#fc3703;stroke-width:0.5px;stroke-miterlimit:10" />
      <path
         d="m 506.2015,168.11871 h 26.7155 a 6.2417,6.2417 0 0 1 6.2417,6.2417 v 26.7155 a 6.24168,6.24168 0 0 1 -6.24168,6.24168 h -26.71551 a 6.2417,6.2417 0 0 1 -6.2417,-6.2417 V 174.3604 a 6.24169,6.24169 0 0 1 6.24169,-6.24169 z"
         class="cls-1"
         id="rect13978"
         inkscape:connector-curvature="0"
         style="fill:none;stroke:#fc3703;stroke-width:0.5px;stroke-miterlimit:10" />
      <path
         d="m 553.25529,168.11871 h 26.71547 a 6.2417,6.2417 0 0 1 6.2417,6.2417 v 26.7155 a 6.24168,6.24168 0 0 1 -6.24168,6.24168 H 553.2553 a 6.2417,6.2417 0 0 1 -6.2417,-6.2417 V 174.3604 a 6.24169,6.24169 0 0 1 6.24169,-6.24169 z"
         class="cls-1"
         id="rect13980"
         inkscape:connector-curvature="0"
         style="fill:none;stroke:#fc3703;stroke-width:0.5px;stroke-miterlimit:10" />
      <path
         d="m 600.31038,168.11871 h 26.71547 a 6.2417,6.2417 0 0 1 6.2417,6.2417 v 26.7155 a 6.24168,6.24168 0 0 1 -6.24168,6.24168 h -26.71548 a 6.2417,6.2417 0 0 1 -6.2417,-6.2417 V 174.3604 a 6.24169,6.24169 0 0 1 6.24169,-6.24169 z"
         class="cls-1"
         id="rect13982"
         inkscape:connector-curvature="0"
         style="fill:none;stroke:#fc3703;stroke-width:0.5px;stroke-miterlimit:10" />
      <path
         d="m 647.36616,168.11871 h 26.71547 a 6.2417,6.2417 0 0 1 6.2417,6.2417 v 26.7155 a 6.24168,6.24168 0 0 1 -6.24168,6.24168 h -26.71547 a 6.2417,6.2417 0 0 1 -6.2417,-6.2417 V 174.3604 a 6.24169,6.24169 0 0 1 6.24168,-6.24169 z"
         class="cls-1"
         id="rect13984"
         inkscape:connector-curvature="0"
         style="fill:none;stroke:#fc3703;stroke-width:0.5px;stroke-miterlimit:10" />
      <path
         d="m 176.8137,220.94443 h 26.7155 a 6.24168,6.24168 0 0 1 6.24168,6.24168 v 26.71553 a 6.24168,6.24168 0 0 1 -6.24168,6.24168 h -26.71549 a 6.24169,6.24169 0 0 1 -6.24169,-6.24169 v -26.71552 a 6.24168,6.24168 0 0 1 6.24168,-6.24168 z"
         class="cls-1"
         id="rect13986"
         inkscape:connector-curvature="0"
         style="fill:none;stroke:#fc3703;stroke-width:0.5px;stroke-miterlimit:10" />
      <rect
         ry="6.2416801"
         rx="6.2416801"
         height="39.198891"
         width="39.198872"
         y="220.94443"
         x="217.62781"
         class="cls-1"
         id="rect13988"
         style="fill:none;stroke:#fc3703;stroke-width:0.5px;stroke-miterlimit:10" />
      <rect
         ry="6.2416801"
         rx="6.2416801"
         height="39.198891"
         width="39.198872"
         y="220.94443"
         x="264.68292"
         class="cls-1"
         id="rect13990"
         style="fill:none;stroke:#fc3703;stroke-width:0.5px;stroke-miterlimit:10" />
      <rect
         ry="6.2416801"
         rx="6.2416801"
         height="39.198891"
         width="39.198872"
         y="220.94443"
         x="311.73868"
         class="cls-1"
         id="rect13992"
         style="fill:none;stroke:#fc3703;stroke-width:0.5px;stroke-miterlimit:10" />
      <path
         d="m 365.03482,220.94443 h 26.7155 a 6.2417,6.2417 0 0 1 6.2417,6.2417 v 26.7155 a 6.24168,6.24168 0 0 1 -6.24168,6.24168 h -26.71552 a 6.24168,6.24168 0 0 1 -6.24168,-6.24168 v -26.71552 a 6.24168,6.24168 0 0 1 6.24168,-6.24168 z"
         class="cls-1"
         id="rect13994"
         inkscape:connector-curvature="0"
         style="fill:none;stroke:#fc3703;stroke-width:0.5px;stroke-miterlimit:10" />
      <path
         d="m 412.09062,220.94443 h 26.71548 a 6.2417,6.2417 0 0 1 6.2417,6.2417 v 26.7155 a 6.24168,6.24168 0 0 1 -6.24168,6.24168 h -26.71548 a 6.2417,6.2417 0 0 1 -6.2417,-6.2417 v -26.7155 a 6.24168,6.24168 0 0 1 6.24168,-6.24168 z"
         class="cls-1"
         id="rect13996"
         inkscape:connector-curvature="0"
         style="fill:none;stroke:#fc3703;stroke-width:0.5px;stroke-miterlimit:10" />
      <path
         d="m 459.14571,220.94443 h 26.71548 a 6.2417,6.2417 0 0 1 6.2417,6.2417 v 26.7155 a 6.24168,6.24168 0 0 1 -6.24168,6.24168 h -26.71548 a 6.2417,6.2417 0 0 1 -6.2417,-6.2417 v -26.7155 a 6.24168,6.24168 0 0 1 6.24168,-6.24168 z"
         class="cls-1"
         id="rect13998"
         inkscape:connector-curvature="0"
         style="fill:none;stroke:#fc3703;stroke-width:0.5px;stroke-miterlimit:10" />
      <path
         d="M 506.20149,220.94443 H 532.917 a 6.2417,6.2417 0 0 1 6.2417,6.2417 v 26.7155 a 6.24168,6.24168 0 0 1 -6.24168,6.24168 h -26.71551 a 6.2417,6.2417 0 0 1 -6.2417,-6.2417 v -26.7155 a 6.24168,6.24168 0 0 1 6.24168,-6.24168 z"
         class="cls-1"
         id="rect14000"
         inkscape:connector-curvature="0"
         style="fill:none;stroke:#fc3703;stroke-width:0.5px;stroke-miterlimit:10" />
      <path
         d="m 553.25528,220.94443 h 26.71548 a 6.2417,6.2417 0 0 1 6.2417,6.2417 v 26.7155 a 6.24168,6.24168 0 0 1 -6.24168,6.24168 H 553.2553 a 6.2417,6.2417 0 0 1 -6.2417,-6.2417 v -26.7155 a 6.24168,6.24168 0 0 1 6.24168,-6.24168 z"
         class="cls-1"
         id="rect14002"
         inkscape:connector-curvature="0"
         style="fill:none;stroke:#fc3703;stroke-width:0.5px;stroke-miterlimit:10" />
      <path
         d="m 600.31037,220.94443 h 26.71548 a 6.2417,6.2417 0 0 1 6.2417,6.2417 v 26.7155 a 6.24168,6.24168 0 0 1 -6.24168,6.24168 h -26.71548 a 6.2417,6.2417 0 0 1 -6.2417,-6.2417 v -26.7155 a 6.24168,6.24168 0 0 1 6.24168,-6.24168 z"
         class="cls-1"
         id="rect14004"
         inkscape:connector-curvature="0"
         style="fill:none;stroke:#fc3703;stroke-width:0.5px;stroke-miterlimit:10" />
      <path
         d="m 647.36615,220.94443 h 26.71548 a 6.2417,6.2417 0 0 1 6.2417,6.2417 v 26.7155 a 6.24168,6.24168 0 0 1 -6.24168,6.24168 h -26.71547 a 6.2417,6.2417 0 0 1 -6.2417,-6.2417 v -26.7155 a 6.24168,6.24168 0 0 1 6.24167,-6.24168 z"
         class="cls-1"
         id="rect14006"
         inkscape:connector-curvature="0"
         style="fill:none;stroke:#fc3703;stroke-width:0.5px;stroke-miterlimit:10" />
      <path
         d="m 176.8137,273.77089 h 26.7155 a 6.24168,6.24168 0 0 1 6.24168,6.24168 v 26.71553 a 6.24168,6.24168 0 0 1 -6.24168,6.24168 h -26.71549 a 6.24169,6.24169 0 0 1 -6.24169,-6.24169 v -26.71552 a 6.24168,6.24168 0 0 1 6.24168,-6.24168 z"
         class="cls-1"
         id="rect14008"
         inkscape:connector-curvature="0"
         style="fill:none;stroke:#fc3703;stroke-width:0.5px;stroke-miterlimit:10" />
      <rect
         ry="6.2416801"
         rx="6.2416801"
         height="39.198891"
         width="39.198872"
         y="273.7709"
         x="217.62781"
         class="cls-1"
         id="rect14010"
         style="fill:none;stroke:#fc3703;stroke-width:0.5px;stroke-miterlimit:10" />
      <rect
         ry="6.2416801"
         rx="6.2416801"
         height="39.198891"
         width="39.198872"
         y="273.7709"
         x="264.68292"
         class="cls-1"
         id="rect14012"
         style="fill:none;stroke:#fc3703;stroke-width:0.5px;stroke-miterlimit:10" />
      <rect
         ry="6.2416801"
         rx="6.2416801"
         height="39.198891"
         width="39.198872"
         y="273.7709"
         x="311.73868"
         class="cls-1"
         id="rect14014"
         style="fill:none;stroke:#fc3703;stroke-width:0.5px;stroke-miterlimit:10" />
      <path
         d="m 365.03482,273.77089 h 26.71553 a 6.24168,6.24168 0 0 1 6.24168,6.24168 v 26.7155 a 6.2417,6.2417 0 0 1 -6.2417,6.2417 h -26.7155 a 6.24168,6.24168 0 0 1 -6.24168,-6.24168 v -26.71552 a 6.24168,6.24168 0 0 1 6.24167,-6.24168 z"
         class="cls-1"
         id="rect14016"
         inkscape:connector-curvature="0"
         style="fill:none;stroke:#fc3703;stroke-width:0.5px;stroke-miterlimit:10" />
      <path
         d="m 412.09062,273.77089 h 26.71548 a 6.2417,6.2417 0 0 1 6.2417,6.2417 v 26.7155 a 6.24168,6.24168 0 0 1 -6.24168,6.24168 h -26.71548 a 6.2417,6.2417 0 0 1 -6.2417,-6.2417 v -26.7155 a 6.24168,6.24168 0 0 1 6.24168,-6.24168 z"
         class="cls-1"
         id="rect14018"
         inkscape:connector-curvature="0"
         style="fill:none;stroke:#fc3703;stroke-width:0.5px;stroke-miterlimit:10" />
      <path
         d="m 459.14571,273.77089 h 26.71548 a 6.2417,6.2417 0 0 1 6.2417,6.2417 v 26.7155 a 6.24168,6.24168 0 0 1 -6.24168,6.24168 h -26.71548 a 6.2417,6.2417 0 0 1 -6.2417,-6.2417 v -26.7155 a 6.24168,6.24168 0 0 1 6.24168,-6.24168 z"
         class="cls-1"
         id="rect14020"
         inkscape:connector-curvature="0"
         style="fill:none;stroke:#fc3703;stroke-width:0.5px;stroke-miterlimit:10" />
      <path
         d="M 506.20149,273.77089 H 532.917 a 6.2417,6.2417 0 0 1 6.2417,6.2417 v 26.7155 a 6.24168,6.24168 0 0 1 -6.24168,6.24168 h -26.71551 a 6.2417,6.2417 0 0 1 -6.2417,-6.2417 v -26.7155 a 6.24168,6.24168 0 0 1 6.24168,-6.24168 z"
         class="cls-1"
         id="rect14022"
         inkscape:connector-curvature="0"
         style="fill:none;stroke:#fc3703;stroke-width:0.5px;stroke-miterlimit:10" />
      <path
         d="m 553.25528,273.77089 h 26.71548 a 6.2417,6.2417 0 0 1 6.2417,6.2417 v 26.7155 a 6.24168,6.24168 0 0 1 -6.24168,6.24168 H 553.2553 a 6.2417,6.2417 0 0 1 -6.2417,-6.2417 v -26.7155 a 6.24168,6.24168 0 0 1 6.24168,-6.24168 z"
         class="cls-1"
         id="rect14024"
         inkscape:connector-curvature="0"
         style="fill:none;stroke:#fc3703;stroke-width:0.5px;stroke-miterlimit:10" />
      <path
         d="m 600.31037,273.77089 h 26.71548 a 6.2417,6.2417 0 0 1 6.2417,6.2417 v 26.7155 a 6.24168,6.24168 0 0 1 -6.24168,6.24168 h -26.71548 a 6.2417,6.2417 0 0 1 -6.2417,-6.2417 v -26.7155 a 6.24168,6.24168 0 0 1 6.24168,-6.24168 z"
         class="cls-1"
         id="rect14026"
         inkscape:connector-curvature="0"
         style="fill:none;stroke:#fc3703;stroke-width:0.5px;stroke-miterlimit:10" />
      <path
         d="m 647.36615,273.77089 h 26.71548 a 6.2417,6.2417 0 0 1 6.2417,6.2417 v 26.7155 a 6.24168,6.24168 0 0 1 -6.24168,6.24168 h -26.71547 a 6.2417,6.2417 0 0 1 -6.2417,-6.2417 v -26.7155 a 6.24168,6.24168 0 0 1 6.24167,-6.24168 z"
         class="cls-1"
         id="rect14028"
         inkscape:connector-curvature="0"
         style="fill:none;stroke:#fc3703;stroke-width:0.5px;stroke-miterlimit:10" />
      <path
         d="m 176.8137,326.59734 h 26.7155 a 6.24168,6.24168 0 0 1 6.24168,6.24168 v 26.71553 a 6.24168,6.24168 0 0 1 -6.24168,6.24168 h -26.71549 a 6.24169,6.24169 0 0 1 -6.24169,-6.24169 V 332.839 a 6.24168,6.24168 0 0 1 6.24168,-6.24166 z"
         class="cls-1"
         id="rect14030"
         inkscape:connector-curvature="0"
         style="fill:none;stroke:#fc3703;stroke-width:0.5px;stroke-miterlimit:10" />
      <rect
         ry="6.2416801"
         rx="6.2416801"
         height="39.198891"
         width="39.198872"
         y="326.59735"
         x="217.62781"
         class="cls-1"
         id="rect14032"
         style="fill:none;stroke:#fc3703;stroke-width:0.5px;stroke-miterlimit:10" />
      <rect
         ry="6.2416801"
         rx="6.2416801"
         height="39.198891"
         width="39.198872"
         y="326.59735"
         x="264.68292"
         class="cls-1"
         id="rect14034"
         style="fill:none;stroke:#fc3703;stroke-width:0.5px;stroke-miterlimit:10" />
      <rect
         ry="6.2416801"
         rx="6.2416801"
         height="39.198891"
         width="39.198872"
         y="326.59735"
         x="311.73868"
         class="cls-1"
         id="rect14036"
         style="fill:none;stroke:#fc3703;stroke-width:0.5px;stroke-miterlimit:10" />
      <path
         d="m 365.03482,326.59734 h 26.71553 a 6.24168,6.24168 0 0 1 6.24165,6.24166 v 26.7155 a 6.2417,6.2417 0 0 1 -6.2417,6.2417 h -26.7155 a 6.24168,6.24168 0 0 1 -6.24168,-6.24168 V 332.839 a 6.24168,6.24168 0 0 1 6.2417,-6.24166 z"
         class="cls-1"
         id="rect14038"
         inkscape:connector-curvature="0"
         style="fill:none;stroke:#fc3703;stroke-width:0.5px;stroke-miterlimit:10" />
      <path
         d="m 412.09062,326.59734 h 26.71548 a 6.2417,6.2417 0 0 1 6.2417,6.2417 v 26.7155 a 6.24168,6.24168 0 0 1 -6.24168,6.24168 h -26.71548 a 6.2417,6.2417 0 0 1 -6.2417,-6.2417 V 332.839 a 6.24168,6.24168 0 0 1 6.24168,-6.24166 z"
         class="cls-1"
         id="rect14040"
         inkscape:connector-curvature="0"
         style="fill:none;stroke:#fc3703;stroke-width:0.5px;stroke-miterlimit:10" />
      <path
         d="m 459.14571,326.59734 h 26.71548 a 6.2417,6.2417 0 0 1 6.2417,6.2417 v 26.7155 a 6.24168,6.24168 0 0 1 -6.24168,6.24168 h -26.71548 a 6.2417,6.2417 0 0 1 -6.2417,-6.2417 V 332.839 a 6.24168,6.24168 0 0 1 6.24168,-6.24166 z"
         class="cls-1"
         id="rect14042"
         inkscape:connector-curvature="0"
         style="fill:none;stroke:#fc3703;stroke-width:0.5px;stroke-miterlimit:10" />
      <path
         d="M 506.20149,326.59734 H 532.917 a 6.2417,6.2417 0 0 1 6.2417,6.2417 v 26.7155 a 6.24168,6.24168 0 0 1 -6.24168,6.24168 h -26.71551 a 6.2417,6.2417 0 0 1 -6.2417,-6.2417 V 332.839 a 6.24168,6.24168 0 0 1 6.24168,-6.24166 z"
         class="cls-1"
         id="rect14044"
         inkscape:connector-curvature="0"
         style="fill:none;stroke:#fc3703;stroke-width:0.5px;stroke-miterlimit:10" />
      <path
         d="m 553.25528,326.59734 h 26.71548 a 6.2417,6.2417 0 0 1 6.2417,6.2417 v 26.7155 a 6.24168,6.24168 0 0 1 -6.24168,6.24168 H 553.2553 a 6.2417,6.2417 0 0 1 -6.2417,-6.2417 V 332.839 a 6.24168,6.24168 0 0 1 6.24168,-6.24166 z"
         class="cls-1"
         id="rect14046"
         inkscape:connector-curvature="0"
         style="fill:none;stroke:#fc3703;stroke-width:0.5px;stroke-miterlimit:10" />
      <path
         d="m 600.31037,326.59734 h 26.71548 a 6.2417,6.2417 0 0 1 6.2417,6.2417 v 26.7155 a 6.24168,6.24168 0 0 1 -6.24168,6.24168 h -26.71548 a 6.2417,6.2417 0 0 1 -6.2417,-6.2417 V 332.839 a 6.24168,6.24168 0 0 1 6.24168,-6.24166 z"
         class="cls-1"
         id="rect14048"
         inkscape:connector-curvature="0"
         style="fill:none;stroke:#fc3703;stroke-width:0.5px;stroke-miterlimit:10" />
      <path
         d="m 647.36615,326.59734 h 26.71548 a 6.2417,6.2417 0 0 1 6.2417,6.2417 v 26.7155 a 6.24168,6.24168 0 0 1 -6.24168,6.24168 h -26.71547 a 6.2417,6.2417 0 0 1 -6.2417,-6.2417 V 332.839 a 6.24168,6.24168 0 0 1 6.24167,-6.24166 z"
         class="cls-1"
         id="rect14050"
         inkscape:connector-curvature="0"
         style="fill:none;stroke:#fc3703;stroke-width:0.5px;stroke-miterlimit:10" />
      <path
         d="m 176.81371,379.42378 h 26.71547 a 6.2417,6.2417 0 0 1 6.2417,6.2417 v 26.71546 a 6.2417,6.2417 0 0 1 -6.2417,6.2417 H 176.81371 A 6.24169,6.24169 0 0 1 170.572,412.381 v -26.71552 a 6.24169,6.24169 0 0 1 6.24171,-6.2417 z"
         class="cls-1"
         id="rect14052"
         inkscape:connector-curvature="0"
         style="fill:none;stroke:#fc3703;stroke-width:0.5px;stroke-miterlimit:10" />
      <path
         d="M 223.86951,379.42378 H 250.585 a 6.2417,6.2417 0 0 1 6.2417,6.2417 v 26.71546 a 6.2417,6.2417 0 0 1 -6.2417,6.2417 h -26.71552 a 6.24168,6.24168 0 0 1 -6.24168,-6.24168 v -26.71547 a 6.2417,6.2417 0 0 1 6.24171,-6.24171 z"
         class="cls-1"
         id="rect14054"
         inkscape:connector-curvature="0"
         style="fill:none;stroke:#fc3703;stroke-width:0.5px;stroke-miterlimit:10" />
      <path
         d="m 270.92462,379.42378 h 26.71546 a 6.2417,6.2417 0 0 1 6.2417,6.2417 v 26.71546 a 6.2417,6.2417 0 0 1 -6.2417,6.2417 h -26.71549 a 6.24168,6.24168 0 0 1 -6.24168,-6.24168 v -26.71547 a 6.2417,6.2417 0 0 1 6.24171,-6.24171 z"
         class="cls-1"
         id="rect14056"
         inkscape:connector-curvature="0"
         style="fill:none;stroke:#fc3703;stroke-width:0.5px;stroke-miterlimit:10" />
      <path
         d="m 317.9804,379.42378 h 26.71546 a 6.2417,6.2417 0 0 1 6.2417,6.2417 v 26.71546 a 6.2417,6.2417 0 0 1 -6.2417,6.2417 h -26.71548 a 6.24168,6.24168 0 0 1 -6.24168,-6.24168 v -26.71547 a 6.2417,6.2417 0 0 1 6.2417,-6.24171 z"
         class="cls-1"
         id="rect14058"
         inkscape:connector-curvature="0"
         style="fill:none;stroke:#fc3703;stroke-width:0.5px;stroke-miterlimit:10" />
      <path
         d="m 365.03484,379.42378 h 26.71548 a 6.2417,6.2417 0 0 1 6.2417,6.2417 v 26.71546 a 6.2417,6.2417 0 0 1 -6.2417,6.2417 h -26.7155 a 6.24168,6.24168 0 0 1 -6.24168,-6.24168 v -26.71547 a 6.2417,6.2417 0 0 1 6.2417,-6.24171 z"
         class="cls-1"
         id="rect14060"
         inkscape:connector-curvature="0"
         style="fill:none;stroke:#fc3703;stroke-width:0.5px;stroke-miterlimit:10" />
      <rect
         ry="6.2417002"
         rx="6.2417002"
         height="39.198872"
         width="39.198872"
         y="379.42377"
         x="405.84894"
         class="cls-1"
         id="rect14062"
         style="fill:none;stroke:#fc3703;stroke-width:0.5px;stroke-miterlimit:10" />
      <rect
         ry="6.2417002"
         rx="6.2417002"
         height="39.198872"
         width="39.198872"
         y="379.42377"
         x="452.90402"
         class="cls-1"
         id="rect14064"
         style="fill:none;stroke:#fc3703;stroke-width:0.5px;stroke-miterlimit:10" />
      <rect
         ry="6.2417002"
         rx="6.2417002"
         height="39.198872"
         width="39.198872"
         y="379.42377"
         x="499.95981"
         class="cls-1"
         id="rect14066"
         style="fill:none;stroke:#fc3703;stroke-width:0.5px;stroke-miterlimit:10" />
      <rect
         ry="6.2417002"
         rx="6.2417002"
         height="39.198872"
         width="39.198872"
         y="379.42377"
         x="547.01361"
         class="cls-1"
         id="rect14068"
         style="fill:none;stroke:#fc3703;stroke-width:0.5px;stroke-miterlimit:10" />
      <rect
         ry="6.2417002"
         rx="6.2417002"
         height="39.198872"
         width="39.198872"
         y="379.42377"
         x="594.06866"
         class="cls-1"
         id="rect14070"
         style="fill:none;stroke:#fc3703;stroke-width:0.5px;stroke-miterlimit:10" />
      <rect
         ry="6.2417002"
         rx="6.2417002"
         height="39.198872"
         width="39.198872"
         y="379.42377"
         x="641.12445"
         class="cls-1"
         id="rect14072"
         style="fill:none;stroke:#fc3703;stroke-width:0.5px;stroke-miterlimit:10" />
      <path
         d="m 176.81372,432.25024 h 26.71546 a 6.2417,6.2417 0 0 1 6.2417,6.2417 v 26.71546 a 6.2417,6.2417 0 0 1 -6.2417,6.2417 h -26.71547 a 6.24169,6.24169 0 0 1 -6.24169,-6.24169 v -26.71547 a 6.2417,6.2417 0 0 1 6.2417,-6.2417 z"
         class="cls-1"
         id="rect14074"
         inkscape:connector-curvature="0"
         style="fill:none;stroke:#fc3703;stroke-width:0.5px;stroke-miterlimit:10" />
      <path
         d="M 223.86951,432.25024 H 250.585 a 6.2417,6.2417 0 0 1 6.2417,6.2417 v 26.71546 a 6.2417,6.2417 0 0 1 -6.2417,6.2417 h -26.71552 a 6.24168,6.24168 0 0 1 -6.24168,-6.24168 v -26.71548 a 6.2417,6.2417 0 0 1 6.24171,-6.2417 z"
         class="cls-1"
         id="rect14076"
         inkscape:connector-curvature="0"
         style="fill:none;stroke:#fc3703;stroke-width:0.5px;stroke-miterlimit:10" />
      <path
         d="m 270.92462,432.25024 h 26.71546 a 6.2417,6.2417 0 0 1 6.2417,6.2417 v 26.71546 a 6.2417,6.2417 0 0 1 -6.2417,6.2417 h -26.71549 a 6.24168,6.24168 0 0 1 -6.24168,-6.24168 v -26.71548 a 6.2417,6.2417 0 0 1 6.24171,-6.2417 z"
         class="cls-1"
         id="rect14078"
         inkscape:connector-curvature="0"
         style="fill:none;stroke:#fc3703;stroke-width:0.5px;stroke-miterlimit:10" />
      <path
         d="m 317.9804,432.25024 h 26.71546 a 6.2417,6.2417 0 0 1 6.2417,6.2417 v 26.71546 a 6.2417,6.2417 0 0 1 -6.2417,6.2417 h -26.71548 a 6.24168,6.24168 0 0 1 -6.24168,-6.24168 v -26.71548 a 6.2417,6.2417 0 0 1 6.2417,-6.2417 z"
         class="cls-1"
         id="rect14080"
         inkscape:connector-curvature="0"
         style="fill:none;stroke:#fc3703;stroke-width:0.5px;stroke-miterlimit:10" />
      <path
         d="m 365.03484,432.25024 h 26.71548 a 6.2417,6.2417 0 0 1 6.2417,6.2417 v 26.71546 a 6.2417,6.2417 0 0 1 -6.2417,6.2417 h -26.7155 a 6.24168,6.24168 0 0 1 -6.24168,-6.24168 v -26.71548 a 6.2417,6.2417 0 0 1 6.2417,-6.2417 z"
         class="cls-1"
         id="rect14082"
         inkscape:connector-curvature="0"
         style="fill:none;stroke:#fc3703;stroke-width:0.5px;stroke-miterlimit:10" />
      <rect
         ry="6.2417002"
         rx="6.2417002"
         height="39.198872"
         width="39.198872"
         y="432.25024"
         x="405.84894"
         class="cls-1"
         id="rect14084"
         style="fill:none;stroke:#fc3703;stroke-width:0.5px;stroke-miterlimit:10" />
      <rect
         ry="6.2417002"
         rx="6.2417002"
         height="39.198872"
         width="39.198872"
         y="432.25024"
         x="452.90402"
         class="cls-1"
         id="rect14086"
         style="fill:none;stroke:#fc3703;stroke-width:0.5px;stroke-miterlimit:10" />
      <rect
         ry="6.2417002"
         rx="6.2417002"
         height="39.198872"
         width="39.198872"
         y="432.25024"
         x="499.95981"
         class="cls-1"
         id="rect14088"
         style="fill:none;stroke:#fc3703;stroke-width:0.5px;stroke-miterlimit:10" />
      <rect
         ry="6.2417002"
         rx="6.2417002"
         height="39.198872"
         width="39.198872"
         y="432.25024"
         x="547.01361"
         class="cls-1"
         id="rect14090"
         style="fill:none;stroke:#fc3703;stroke-width:0.5px;stroke-miterlimit:10" />
      <rect
         ry="6.2417002"
         rx="6.2417002"
         height="39.198872"
         width="39.198872"
         y="432.25024"
         x="594.06866"
         class="cls-1"
         id="rect14092"
         style="fill:none;stroke:#fc3703;stroke-width:0.5px;stroke-miterlimit:10" />
      <rect
         ry="6.2417002"
         rx="6.2417002"
         height="39.198872"
         width="39.198872"
         y="432.25024"
         x="641.12445"
         class="cls-1"
         id="rect14094"
         style="fill:none;stroke:#fc3703;stroke-width:0.5px;stroke-miterlimit:10" />
      <path
         d="m 176.81372,485.0767 h 26.71548 a 6.24168,6.24168 0 0 1 6.24168,6.24168 v 26.71548 a 6.2417,6.2417 0 0 1 -6.2417,6.2417 h -26.71547 a 6.24169,6.24169 0 0 1 -6.24169,-6.24169 V 491.3184 a 6.2417,6.2417 0 0 1 6.2417,-6.2417 z"
         class="cls-1"
         id="rect14096"
         inkscape:connector-curvature="0"
         style="fill:none;stroke:#fc3703;stroke-width:0.5px;stroke-miterlimit:10" />
      <path
         d="M 223.86951,485.0767 H 250.585 a 6.24168,6.24168 0 0 1 6.24168,6.24168 v 26.71548 a 6.2417,6.2417 0 0 1 -6.2417,6.2417 h -26.7155 a 6.24168,6.24168 0 0 1 -6.24168,-6.24168 V 491.3184 a 6.2417,6.2417 0 0 1 6.24171,-6.2417 z"
         class="cls-1"
         id="rect14098"
         inkscape:connector-curvature="0"
         style="fill:none;stroke:#fc3703;stroke-width:0.5px;stroke-miterlimit:10" />
      <path
         d="m 270.92462,485.0767 h 26.71548 a 6.24168,6.24168 0 0 1 6.24168,6.24168 v 26.71548 a 6.2417,6.2417 0 0 1 -6.2417,6.2417 h -26.71549 a 6.24168,6.24168 0 0 1 -6.24168,-6.24168 V 491.3184 a 6.2417,6.2417 0 0 1 6.24171,-6.2417 z"
         class="cls-1"
         id="rect14100"
         inkscape:connector-curvature="0"
         style="fill:none;stroke:#fc3703;stroke-width:0.5px;stroke-miterlimit:10" />
      <path
         d="m 317.9804,485.0767 h 26.71548 a 6.24168,6.24168 0 0 1 6.24168,6.24168 v 26.71548 a 6.2417,6.2417 0 0 1 -6.2417,6.2417 h -26.71548 a 6.24168,6.24168 0 0 1 -6.24168,-6.24168 V 491.3184 a 6.2417,6.2417 0 0 1 6.2417,-6.2417 z"
         class="cls-1"
         id="rect14102"
         inkscape:connector-curvature="0"
         style="fill:none;stroke:#fc3703;stroke-width:0.5px;stroke-miterlimit:10" />
      <path
         d="m 365.03484,485.0767 h 26.71548 a 6.2417,6.2417 0 0 1 6.2417,6.2417 v 26.71546 a 6.2417,6.2417 0 0 1 -6.2417,6.2417 h -26.7155 a 6.24168,6.24168 0 0 1 -6.24168,-6.24168 V 491.3184 a 6.2417,6.2417 0 0 1 6.2417,-6.2417 z"
         class="cls-1"
         id="rect14104"
         inkscape:connector-curvature="0"
         style="fill:none;stroke:#fc3703;stroke-width:0.5px;stroke-miterlimit:10" />
      <rect
         ry="6.2417002"
         rx="6.2417002"
         height="39.198872"
         width="39.198872"
         y="485.07669"
         x="405.84894"
         class="cls-1"
         id="rect14106"
         style="fill:none;stroke:#fc3703;stroke-width:0.5px;stroke-miterlimit:10" />
      <rect
         ry="6.2417002"
         rx="6.2417002"
         height="39.198872"
         width="39.198872"
         y="485.07669"
         x="452.90402"
         class="cls-1"
         id="rect14108"
         style="fill:none;stroke:#fc3703;stroke-width:0.5px;stroke-miterlimit:10" />
      <rect
         ry="6.2417002"
         rx="6.2417002"
         height="39.198872"
         width="39.198872"
         y="485.07669"
         x="499.95981"
         class="cls-1"
         id="rect14110"
         style="fill:none;stroke:#fc3703;stroke-width:0.5px;stroke-miterlimit:10" />
      <rect
         ry="6.2417002"
         rx="6.2417002"
         height="39.198872"
         width="39.198872"
         y="485.07669"
         x="547.01361"
         class="cls-1"
         id="rect14112"
         style="fill:none;stroke:#fc3703;stroke-width:0.5px;stroke-miterlimit:10" />
      <rect
         ry="6.2417002"
         rx="6.2417002"
         height="39.198872"
         width="39.198872"
         y="485.07669"
         x="594.06866"
         class="cls-1"
         id="rect14114"
         style="fill:none;stroke:#fc3703;stroke-width:0.5px;stroke-miterlimit:10" />
      <rect
         ry="6.2417002"
         rx="6.2417002"
         height="39.198872"
         width="39.198872"
         y="485.07669"
         x="641.12445"
         class="cls-1"
         id="rect14116"
         style="fill:none;stroke:#fc3703;stroke-width:0.5px;stroke-miterlimit:10" />
      <path
         d="m 176.81372,537.90316 h 26.71546 a 6.2417,6.2417 0 0 1 6.2417,6.2417 v 26.71546 a 6.2417,6.2417 0 0 1 -6.2417,6.2417 h -26.71547 a 6.24169,6.24169 0 0 1 -6.24169,-6.24169 v -26.71547 a 6.2417,6.2417 0 0 1 6.2417,-6.2417 z"
         class="cls-1"
         id="rect14118"
         inkscape:connector-curvature="0"
         style="fill:none;stroke:#fc3703;stroke-width:0.5px;stroke-miterlimit:10" />
      <path
         d="M 223.86951,537.90316 H 250.585 a 6.2417,6.2417 0 0 1 6.2417,6.2417 v 26.71546 a 6.2417,6.2417 0 0 1 -6.2417,6.2417 h -26.71552 a 6.24168,6.24168 0 0 1 -6.24168,-6.24168 v -26.71548 a 6.2417,6.2417 0 0 1 6.24171,-6.2417 z"
         class="cls-1"
         id="rect14120"
         inkscape:connector-curvature="0"
         style="fill:none;stroke:#fc3703;stroke-width:0.5px;stroke-miterlimit:10" />
      <path
         d="m 270.92462,537.90316 h 26.71546 a 6.2417,6.2417 0 0 1 6.2417,6.2417 v 26.71546 a 6.2417,6.2417 0 0 1 -6.2417,6.2417 h -26.71549 a 6.24168,6.24168 0 0 1 -6.24168,-6.24168 v -26.71548 a 6.2417,6.2417 0 0 1 6.24171,-6.2417 z"
         class="cls-1"
         id="rect14122"
         inkscape:connector-curvature="0"
         style="fill:none;stroke:#fc3703;stroke-width:0.5px;stroke-miterlimit:10" />
      <path
         d="m 317.9804,537.90316 h 26.71546 a 6.2417,6.2417 0 0 1 6.2417,6.2417 v 26.71546 a 6.2417,6.2417 0 0 1 -6.2417,6.2417 h -26.71548 a 6.24168,6.24168 0 0 1 -6.24168,-6.24168 v -26.71548 a 6.2417,6.2417 0 0 1 6.2417,-6.2417 z"
         class="cls-1"
         id="rect14124"
         inkscape:connector-curvature="0"
         style="fill:none;stroke:#fc3703;stroke-width:0.5px;stroke-miterlimit:10" />
      <path
         d="m 365.03484,537.90316 h 26.71548 a 6.2417,6.2417 0 0 1 6.2417,6.2417 v 26.71546 a 6.2417,6.2417 0 0 1 -6.2417,6.2417 h -26.7155 a 6.24168,6.24168 0 0 1 -6.24168,-6.24168 v -26.71548 a 6.2417,6.2417 0 0 1 6.2417,-6.2417 z"
         class="cls-1"
         id="rect14126"
         inkscape:connector-curvature="0"
         style="fill:none;stroke:#fc3703;stroke-width:0.5px;stroke-miterlimit:10" />
      <rect
         ry="6.2417002"
         rx="6.2417002"
         height="39.198872"
         width="39.198872"
         y="537.90314"
         x="405.84894"
         class="cls-1"
         id="rect14128"
         style="fill:none;stroke:#fc3703;stroke-width:0.5px;stroke-miterlimit:10" />
      <rect
         ry="6.2417002"
         rx="6.2417002"
         height="39.198872"
         width="39.198872"
         y="537.90314"
         x="452.90402"
         class="cls-1"
         id="rect14130"
         style="fill:none;stroke:#fc3703;stroke-width:0.5px;stroke-miterlimit:10" />
      <rect
         ry="6.2417002"
         rx="6.2417002"
         height="39.198872"
         width="39.198872"
         y="537.90314"
         x="499.95981"
         class="cls-1"
         id="rect14132"
         style="fill:none;stroke:#fc3703;stroke-width:0.5px;stroke-miterlimit:10" />
      <rect
         ry="6.2417002"
         rx="6.2417002"
         height="39.198872"
         width="39.198872"
         y="537.90314"
         x="547.01361"
         class="cls-1"
         id="rect14134"
         style="fill:none;stroke:#fc3703;stroke-width:0.5px;stroke-miterlimit:10" />
      <rect
         ry="6.2417002"
         rx="6.2417002"
         height="39.198872"
         width="39.198872"
         y="537.90314"
         x="594.06866"
         class="cls-1"
         id="rect14136"
         style="fill:none;stroke:#fc3703;stroke-width:0.5px;stroke-miterlimit:10" />
      <rect
         ry="6.2417002"
         rx="6.2417002"
         height="39.198872"
         width="39.198872"
         y="537.90314"
         x="641.12445"
         class="cls-1"
         id="rect14138"
         style="fill:none;stroke:#fc3703;stroke-width:0.5px;stroke-miterlimit:10" />
      <path
         d="m 176.81372,590.72961 h 26.71548 a 6.24168,6.24168 0 0 1 6.24168,6.24168 v 26.71548 a 6.2417,6.2417 0 0 1 -6.2417,6.2417 h -26.71547 a 6.24169,6.24169 0 0 1 -6.24169,-6.24169 v -26.71546 a 6.2417,6.2417 0 0 1 6.2417,-6.24171 z"
         class="cls-1"
         id="rect14140"
         inkscape:connector-curvature="0"
         style="fill:none;stroke:#fc3703;stroke-width:0.5px;stroke-miterlimit:10" />
      <path
         d="M 223.86951,590.72961 H 250.585 a 6.24168,6.24168 0 0 1 6.24168,6.24168 v 26.71548 a 6.2417,6.2417 0 0 1 -6.2417,6.2417 h -26.7155 a 6.24168,6.24168 0 0 1 -6.24168,-6.24168 v -26.71547 a 6.2417,6.2417 0 0 1 6.24171,-6.24171 z"
         class="cls-1"
         id="rect14142"
         inkscape:connector-curvature="0"
         style="fill:none;stroke:#fc3703;stroke-width:0.5px;stroke-miterlimit:10" />
      <path
         d="m 270.92462,590.72961 h 26.71548 a 6.24168,6.24168 0 0 1 6.24168,6.24168 v 26.71548 a 6.2417,6.2417 0 0 1 -6.2417,6.2417 h -26.71549 a 6.24168,6.24168 0 0 1 -6.24168,-6.24168 v -26.71547 a 6.2417,6.2417 0 0 1 6.24171,-6.24171 z"
         class="cls-1"
         id="rect14144"
         inkscape:connector-curvature="0"
         style="fill:none;stroke:#fc3703;stroke-width:0.5px;stroke-miterlimit:10" />
      <path
         d="m 317.9804,590.72961 h 26.71548 a 6.24168,6.24168 0 0 1 6.24168,6.24168 v 26.71548 a 6.2417,6.2417 0 0 1 -6.2417,6.2417 h -26.71548 a 6.24168,6.24168 0 0 1 -6.24168,-6.24168 v -26.71547 a 6.2417,6.2417 0 0 1 6.2417,-6.24171 z"
         class="cls-1"
         id="rect14146"
         inkscape:connector-curvature="0"
         style="fill:none;stroke:#fc3703;stroke-width:0.5px;stroke-miterlimit:10" />
      <path
         d="m 365.03484,590.72961 h 26.71548 a 6.2417,6.2417 0 0 1 6.2417,6.2417 v 26.71546 a 6.2417,6.2417 0 0 1 -6.2417,6.2417 h -26.7155 a 6.24168,6.24168 0 0 1 -6.24168,-6.24168 v -26.71547 a 6.2417,6.2417 0 0 1 6.2417,-6.24171 z"
         class="cls-1"
         id="rect14148"
         inkscape:connector-curvature="0"
         style="fill:none;stroke:#fc3703;stroke-width:0.5px;stroke-miterlimit:10" />
      <rect
         ry="6.2417002"
         rx="6.2417002"
         height="39.198872"
         width="39.198872"
         y="590.72961"
         x="405.84894"
         class="cls-1"
         id="rect14150"
         style="fill:none;stroke:#fc3703;stroke-width:0.5px;stroke-miterlimit:10" />
      <rect
         ry="6.2417002"
         rx="6.2417002"
         height="39.198872"
         width="39.198872"
         y="590.72961"
         x="452.90402"
         class="cls-1"
         id="rect14152"
         style="fill:none;stroke:#fc3703;stroke-width:0.5px;stroke-miterlimit:10" />
      <rect
         ry="6.2417002"
         rx="6.2417002"
         height="39.198872"
         width="39.198872"
         y="590.72961"
         x="499.95981"
         class="cls-1"
         id="rect14154"
         style="fill:none;stroke:#fc3703;stroke-width:0.5px;stroke-miterlimit:10" />
      <rect
         ry="6.2417002"
         rx="6.2417002"
         height="39.198872"
         width="39.198872"
         y="590.72961"
         x="547.01361"
         class="cls-1"
         id="rect14156"
         style="fill:none;stroke:#fc3703;stroke-width:0.5px;stroke-miterlimit:10" />
      <rect
         ry="6.2417002"
         rx="6.2417002"
         height="39.198872"
         width="39.198872"
         y="590.72961"
         x="594.06866"
         class="cls-1"
         id="rect14158"
         style="fill:none;stroke:#fc3703;stroke-width:0.5px;stroke-miterlimit:10" />
      <rect
         ry="6.2417002"
         rx="6.2417002"
         height="39.198872"
         width="39.198872"
         y="590.72961"
         x="641.12445"
         class="cls-1"
         id="rect14160"
         style="fill:none;stroke:#fc3703;stroke-width:0.5px;stroke-miterlimit:10" />
      <path
         d="m 176.81372,643.55607 h 26.71548 a 6.24168,6.24168 0 0 1 6.24168,6.24168 v 26.71548 a 6.2417,6.2417 0 0 1 -6.2417,6.2417 h -26.71547 a 6.24169,6.24169 0 0 1 -6.24169,-6.24169 v -26.71546 a 6.2417,6.2417 0 0 1 6.2417,-6.24171 z"
         class="cls-1"
         id="rect14162"
         inkscape:connector-curvature="0"
         style="fill:none;stroke:#fc3703;stroke-width:0.5px;stroke-miterlimit:10" />
      <path
         d="M 223.86951,643.55607 H 250.585 a 6.24168,6.24168 0 0 1 6.24168,6.24168 v 26.71548 a 6.2417,6.2417 0 0 1 -6.2417,6.2417 h -26.7155 a 6.24168,6.24168 0 0 1 -6.24168,-6.24168 v -26.71547 a 6.2417,6.2417 0 0 1 6.24171,-6.24171 z"
         class="cls-1"
         id="rect14164"
         inkscape:connector-curvature="0"
         style="fill:none;stroke:#fc3703;stroke-width:0.5px;stroke-miterlimit:10" />
      <path
         d="m 270.92462,643.55607 h 26.71548 a 6.24168,6.24168 0 0 1 6.24168,6.24168 v 26.71548 a 6.2417,6.2417 0 0 1 -6.2417,6.2417 h -26.71549 a 6.24168,6.24168 0 0 1 -6.24168,-6.24168 v -26.71547 a 6.2417,6.2417 0 0 1 6.24171,-6.24171 z"
         class="cls-1"
         id="rect14166"
         inkscape:connector-curvature="0"
         style="fill:none;stroke:#fc3703;stroke-width:0.5px;stroke-miterlimit:10" />
      <path
         d="m 317.9804,643.55607 h 26.71548 a 6.24168,6.24168 0 0 1 6.24168,6.24168 v 26.71548 a 6.2417,6.2417 0 0 1 -6.2417,6.2417 h -26.71548 a 6.24168,6.24168 0 0 1 -6.24168,-6.24168 v -26.71547 a 6.2417,6.2417 0 0 1 6.2417,-6.24171 z"
         class="cls-1"
         id="rect14168"
         inkscape:connector-curvature="0"
         style="fill:none;stroke:#fc3703;stroke-width:0.5px;stroke-miterlimit:10" />
      <path
         d="m 365.03484,643.55607 h 26.71548 a 6.2417,6.2417 0 0 1 6.2417,6.2417 v 26.71546 a 6.2417,6.2417 0 0 1 -6.2417,6.2417 h -26.7155 a 6.24168,6.24168 0 0 1 -6.24168,-6.24168 v -26.71547 a 6.2417,6.2417 0 0 1 6.2417,-6.24171 z"
         class="cls-1"
         id="rect14170"
         inkscape:connector-curvature="0"
         style="fill:none;stroke:#fc3703;stroke-width:0.5px;stroke-miterlimit:10" />
      <rect
         ry="6.2417002"
         rx="6.2417002"
         height="39.198872"
         width="39.198872"
         y="643.55609"
         x="405.84894"
         class="cls-1"
         id="rect14172"
         style="fill:none;stroke:#fc3703;stroke-width:0.5px;stroke-miterlimit:10" />
      <rect
         ry="6.2417002"
         rx="6.2417002"
         height="39.198872"
         width="39.198872"
         y="643.55609"
         x="452.90402"
         class="cls-1"
         id="rect14174"
         style="fill:none;stroke:#fc3703;stroke-width:0.5px;stroke-miterlimit:10" />
      <rect
         ry="6.2417002"
         rx="6.2417002"
         height="39.198872"
         width="39.198872"
         y="643.55609"
         x="499.95981"
         class="cls-1"
         id="rect14176"
         style="fill:none;stroke:#fc3703;stroke-width:0.5px;stroke-miterlimit:10" />
      <rect
         ry="6.2417002"
         rx="6.2417002"
         height="39.198872"
         width="39.198872"
         y="643.55609"
         x="547.01361"
         class="cls-1"
         id="rect14178"
         style="fill:none;stroke:#fc3703;stroke-width:0.5px;stroke-miterlimit:10" />
      <rect
         ry="6.2417002"
         rx="6.2417002"
         height="39.198872"
         width="39.198872"
         y="643.55609"
         x="594.06866"
         class="cls-1"
         id="rect14180"
         style="fill:none;stroke:#fc3703;stroke-width:0.5px;stroke-miterlimit:10" />
      <rect
         ry="6.2417002"
         rx="6.2417002"
         height="39.198872"
         width="39.198872"
         y="643.55609"
         x="641.12445"
         class="cls-1"
         id="rect14182"
         style="fill:none;stroke:#fc3703;stroke-width:0.5px;stroke-miterlimit:10" />
      <g
         id="g40812">
        <circle
           r="14.17322"
           cy="106.98393"
           cx="106.98457"
           class="cls-2"
           id="path40798"
           style="font-size:36px;font-family:Roboto-Light, Roboto;opacity:0.97000002;isolation:isolate;fill:none;stroke:#fc3703;stroke-width:0.5px;stroke-miterlimit:10" />
        <circle
           r="14.17391"
           cy="106.98393"
           cx="743.90747"
           class="cls-2"
           id="path40800"
           style="font-size:36px;font-family:Roboto-Light, Roboto;opacity:0.97000002;isolation:isolate;fill:none;stroke:#fc3703;stroke-width:0.5px;stroke-miterlimit:10" />
        <circle
           r="14.17392"
           cy="743.90747"
           cx="743.90747"
           class="cls-2"
           id="path40804"
           style="font-size:36px;font-family:Roboto-Light, Roboto;opacity:0.97000002;isolation:isolate;fill:none;stroke:#fc3703;stroke-width:0.5px;stroke-miterlimit:10" />
        <circle
           r="14.17322"
           cy="743.90747"
           cx="106.98457"
           class="cls-2"
           id="path40806"
           style="font-size:36px;font-family:Roboto-Light, Roboto;opacity:0.97000002;isolation:isolate;fill:none;stroke:#fc3703;stroke-width:0.5px;stroke-miterlimit:10" />
      </g>
    </g>
  </g>
  <g
     inkscape:groupmode="layer"
     id="layer2"
     inkscape:label="Laser this"
     style="display:inline"
     sodipodi:insensitive="true">
    <g
       id="g7688"
       transform="matrix(-1.3325537,0,0,1.3325555,1133.8583,-0.00151659)">
      <g
         data-name="Corner leds"
         id="Corner_leds">
        <circle
           id="circle7213"
           r="4.1303802"
           cy="793.85632"
           cx="57.024639" />
        <circle
           id="circle7215"
           r="4.1303802"
           cy="793.85632"
           cx="793.87335" />
        <circle
           id="circle7217"
           r="4.1303802"
           cy="57.21854"
           cx="793.86737" />
        <circle
           id="circle7219"
           r="4.1303802"
           cy="57.017281"
           cx="57.0242" />
      </g>
      <g
         id="Letters">
        <path
           id="path7222"
           transform="translate(-0.05437,0.24881)"
           d="M 190.99561,201.25572 H 188.8335 V 175.662 h 2.16211 z"
           inkscape:connector-curvature="0" />
        <path
           id="path7224"
           transform="translate(-0.05437,0.24881)"
           d="m 232.60254,199.4276 h 12.63867 v 1.82813 H 230.42285 V 175.662 h 2.17969 z"
           inkscape:connector-curvature="0" />
        <path
           id="path7226"
           transform="translate(-0.05437,0.24881)"
           d="m 281.67773,188.54674 -3.60352,3.55078 v 9.1582 H 275.9121 V 175.662 h 2.16211 v 13.7988 L 291.1875,175.662 h 2.72461 l -10.72266,11.3906 11.54883,14.20313 h -2.63672 z"
           inkscape:connector-curvature="0" />
        <path
           id="path7228"
           transform="translate(-0.05437,0.24881)"
           d="m 338.209,188.98619 h -11.9707 v 10.44141 h 13.7637 v 1.82813 H 324.07617 V 175.662 h 15.83789 v 1.82813 h -13.67578 v 9.668 H 338.209 Z"
           inkscape:connector-curvature="0" />
        <path
           id="path7230"
           transform="translate(-0.05437,0.24881)"
           d="m 384.88965,194.96275 a 4.14274,4.14274 0 0 0 -1.49414,-3.36621 15.77787,15.77787 0 0 0 -5.4668,-2.35547 19.15963,19.15963 0 0 1 -5.80078,-2.43457 5.90491,5.90491 0 0 1 -0.18457,-9.65918 9.92587,9.92587 0 0 1 6.17871,-1.83691 10.24868,10.24868 0 0 1 4.56152,0.98438 7.46458,7.46458 0 0 1 3.12012,2.74219 7.2029,7.2029 0 0 1 1.10742,3.91992 h -2.17969 a 5.37852,5.37852 0 0 0 -1.793,-4.22266 6.98075,6.98075 0 0 0 -4.81641,-1.5957 7.58949,7.58949 0 0 0 -4.67578,1.31152 4.09373,4.09373 0 0 0 -1.74023,3.42432 3.8738,3.8738 0 0 0 1.56445,3.187 14.49776,14.49776 0 0 0 5.00977,2.17432 23.54567,23.54567 0 0 1 5.2207,1.95264 7.44089,7.44089 0 0 1 2.67188,2.417 6.04722,6.04722 0 0 1 0.89648,3.32227 5.785,5.785 0 0 1 -2.417,4.85156 10.29391,10.29391 0 0 1 -6.37207,1.82813 12.49022,12.49022 0 0 1 -4.96582,-0.9668 7.58506,7.58506 0 0 1 -3.42773,-2.707 6.98846,6.98846 0 0 1 -1.16895,-3.99023 h 2.16211 a 5.10948,5.10948 0 0 0 2.02148,4.27148 8.556,8.556 0 0 0 5.37891,1.56445 7.973,7.973 0 0 0 4.79883,-1.31836 4.12137,4.12137 0 0 0 1.81059,-3.49809 z"
           inkscape:connector-curvature="0" />
        <path
           id="path7232"
           transform="translate(-0.05437,0.24881)"
           d="m 435.168,177.4901 h -8.77148 v 23.76563 h -2.16211 V 177.4901 h -8.75391 v -1.8281 h 19.6875 z"
           inkscape:connector-curvature="0" />
        <path
           id="path7234"
           transform="translate(-0.05437,0.24881)"
           d="m 481.90918,189.84752 a 14.78721,14.78721 0 0 1 -1.22168,6.20508 9.32265,9.32265 0 0 1 -3.48926,4.11328 9.55325,9.55325 0 0 1 -5.23828,1.44141 9.09152,9.09152 0 0 1 -7.24219,-3.208 q -2.75977,-3.208 -2.75977,-8.65723 v -2.63672 a 14.69661,14.69661 0 0 1 1.23926,-6.19629 9.20788,9.20788 0 0 1 8.72754,-5.59863 9.56525,9.56525 0 0 1 5.21191,1.42383 9.35355,9.35355 0 0 1 3.48926,4.02539 14.48726,14.48726 0 0 1 1.2832,6.0293 z m -2.16211,-2.77734 a 11.3115,11.3115 0 0 0 -2.0918,-7.24219 7.52219,7.52219 0 0 0 -11.417,0.009 q -2.11816,2.62793 -2.11816,7.33887 v 2.67188 a 11.31129,11.31129 0 0 0 2.10938,7.21582 7.52925,7.52925 0 0 0 11.46094,0.0352 q 2.05664,-2.62793 2.05664,-7.32129 z"
           inkscape:connector-curvature="0" />
        <path
           id="path7236"
           transform="translate(-0.05437,0.24881)"
           d="M 510.44629,201.25572 V 175.662 h 7.1543 a 11.13,11.13 0 0 1 5.64258,1.43262 9.90408,9.90408 0 0 1 3.89355,4.10449 12.9271,12.9271 0 0 1 1.39746,6.082 v 2.35547 a 12.92719,12.92719 0 0 1 -1.38867,6.082 9.88058,9.88058 0 0 1 -3.91113,4.0957 11.46623,11.46623 0 0 1 -5.792,1.44141 z m 2.16211,-23.76562 v 21.9375 h 4.8516 a 8.35136,8.35136 0 0 0 6.48633,-2.68262 10.36775,10.36775 0 0 0 2.44336,-7.25684 v -2.252 a 10.12794,10.12794 0 0 0 -2.4082,-7.07227 8.21014,8.21014 0 0 0 -6.3457,-2.67383 z"
           inkscape:connector-curvature="0" />
        <path
           id="path7238"
           transform="translate(-0.05437,0.24881)"
           d="M 573.17969,188.98619 H 561.209 v 10.44141 h 13.76367 v 1.82813 H 559.04688 V 175.662 h 15.83789 v 1.82813 H 561.209 v 9.668 h 11.9707 z"
           inkscape:connector-curvature="0" />
        <path
           id="path7240"
           transform="translate(-0.05437,0.24881)"
           d="m 622.14258,175.662 v 17.47266 a 8.84856,8.84856 0 0 1 -1.14258,4.5 7.48709,7.48709 0 0 1 -3.17285,2.94434 10.34061,10.34061 0 0 1 -4.70215,1.02832 9.27787,9.27787 0 0 1 -6.47754,-2.20605 8.08732,8.08732 0 0 1 -2.52246,-6.1084 V 175.662 h 2.14453 v 17.31445 a 6.655,6.655 0 0 0 1.8457,5.01855 7.89811,7.89811 0 0 0 10.01074,-0.009 6.65505,6.65505 0 0 0 1.83691,-4.99219 V 175.662 Z"
           inkscape:connector-curvature="0" />
        <path
           id="path7242"
           transform="translate(-0.05437,0.24881)"
           d="m 660.17188,186.48961 7.207,-10.82812 h 2.584 l -8.47266,12.62109 8.73633,12.97266 H 667.625 l -7.45312,-11.17969 -7.48828,11.17969 h -2.56641 l 8.75391,-12.97266 -8.49023,-12.62109 h 2.584 z"
           inkscape:connector-curvature="0" />
        <path
           id="path7244"
           transform="translate(-0.05437,0.24881)"
           d="m 199.814,242.6732 a 14.69014,14.69014 0 0 1 -1.292,6.37207 9.131,9.131 0 0 1 -3.68262,4.10449 l 4.6582,4.06055 -1.49414,1.33594 -5.2207,-4.51758 a 10.81948,10.81948 0 0 1 -2.93555,0.4043 9.299,9.299 0 0 1 -8.71875,-5.52832 14.33926,14.33926 0 0 1 -1.26562,-6.1084 V 239.931 a 14.6966,14.6966 0 0 1 1.23926,-6.19629 9.20652,9.20652 0 0 1 8.71,-5.59863 9.58528,9.58528 0 0 1 5.25586,1.44141 9.41661,9.41661 0 0 1 3.50684,4.13086 14.68132,14.68132 0 0 1 1.23926,6.20508 z m -2.16211,-2.77734 a 11.3115,11.3115 0 0 0 -2.0918,-7.24219 7.522,7.522 0 0 0 -11.417,0.009 q -2.11816,2.62793 -2.11816,7.33887 v 2.67188 a 11.34454,11.34454 0 0 0 2.10059,7.21582 7.52787,7.52787 0 0 0 11.45215,0.0439 q 2.07422,-2.61914 2.07422,-7.3125 z"
           inkscape:connector-curvature="0" />
        <path
           id="path7246"
           transform="translate(-0.05437,0.24881)"
           d="m 246.01611,228.48766 v 17.47266 a 8.84856,8.84856 0 0 1 -1.14258,4.5 7.48709,7.48709 0 0 1 -3.17285,2.94434 10.34062,10.34062 0 0 1 -4.70215,1.02832 9.27787,9.27787 0 0 1 -6.47754,-2.20605 8.08732,8.08732 0 0 1 -2.52246,-6.1084 v -17.63087 h 2.14453 v 17.31445 a 6.655,6.655 0 0 0 1.8457,5.01855 7.89811,7.89811 0 0 0 10.01074,-0.009 6.655,6.655 0 0 0 1.83691,-4.99219 v -17.332 z"
           inkscape:connector-curvature="0" />
        <path
           id="path7248"
           transform="translate(-0.05437,0.24881)"
           d="m 289.8457,246.892 h -11.61914 l -2.63672,7.18945 h -2.26758 l 9.68555,-25.59375 h 2.05664 l 9.68555,25.59371 h -2.25 z m -10.95117,-1.82812 h 10.26563 l -5.13281,-13.93945 z"
           inkscape:connector-curvature="0" />
        <path
           id="path7250"
           transform="translate(-0.05437,0.24881)"
           d="m 341.36719,230.31578 h -8.77149 v 23.76563 h -2.16211 v -23.76563 h -8.75391 v -1.82812 h 19.6875 z"
           inkscape:connector-curvature="0" />
        <path
           id="path7252"
           transform="translate(-0.05437,0.24881)"
           d="m 379.20605,243.41148 h -7.43555 v 10.66992 h -2.17969 v -25.59374 h 8.31445 a 9.48833,9.48833 0 0 1 6.39844,1.98438 7.57252,7.57252 0 0 1 0.86133,9.88428 7.371,7.371 0 0 1 -3.86719,2.59863 l 6.39844,10.89746 v 0.229 h -2.30273 z m -7.43555,-1.82812 h 6.627 a 6.14052,6.14052 0 0 0 4.377,-1.54932 5.85082,5.85082 0 0 0 -0.0703,-8.22168 7.13845,7.13845 0 0 0 -4.834,-1.49658 h -6.09961 z"
           inkscape:connector-curvature="0" />
        <path
           id="path7254"
           transform="translate(-0.05437,0.24881)"
           d="m 432.01563,241.81188 h -11.9707 v 10.44141 h 13.76367 v 1.82813 h -15.92579 v -25.59376 h 15.83789 v 1.82813 h -13.67578 v 9.668 h 11.9707 z"
           inkscape:connector-curvature="0" />
        <path
           id="path7256"
           transform="translate(-0.05437,0.24881)"
           d="M 482.22852,230.31578 H 473.457 v 23.76563 h -2.16211 V 230.31578 H 462.541 v -1.82812 h 19.6875 z"
           inkscape:connector-curvature="0" />
        <path
           id="path7258"
           transform="translate(-0.05437,0.24881)"
           d="m 520.37207,243.41148 h -7.43555 v 10.66992 h -2.17969 v -25.59374 h 8.31445 a 9.48833,9.48833 0 0 1 6.39844,1.98438 7.57252,7.57252 0 0 1 0.86133,9.88428 7.371,7.371 0 0 1 -3.86719,2.59863 l 6.39844,10.89746 v 0.229 h -2.30273 z m -7.43555,-1.82812 h 6.627 a 6.14052,6.14052 0 0 0 4.377,-1.54932 5.85082,5.85082 0 0 0 -0.0703,-8.22168 7.13845,7.13845 0 0 0 -4.834,-1.49658 h -6.09961 z"
           inkscape:connector-curvature="0" />
        <path
           id="path7260"
           transform="translate(-0.05437,0.24881)"
           d="m 576.02148,242.6732 a 14.78721,14.78721 0 0 1 -1.22168,6.20508 9.32265,9.32265 0 0 1 -3.48926,4.11328 9.55325,9.55325 0 0 1 -5.23828,1.44141 9.09152,9.09152 0 0 1 -7.24219,-3.208 q -2.75977,-3.208 -2.75977,-8.65723 V 239.931 a 14.6966,14.6966 0 0 1 1.23926,-6.19629 9.20788,9.20788 0 0 1 8.72754,-5.59863 9.56525,9.56525 0 0 1 5.21191,1.42383 9.35355,9.35355 0 0 1 3.48926,4.02539 14.48726,14.48726 0 0 1 1.2832,6.0293 z m -2.16211,-2.77734 a 11.3115,11.3115 0 0 0 -2.0918,-7.24219 7.52219,7.52219 0 0 0 -11.417,0.009 q -2.11816,2.62793 -2.11816,7.33887 v 2.67188 a 11.31129,11.31129 0 0 0 2.10938,7.21582 7.52925,7.52925 0 0 0 11.46094,0.0352 q 2.05664,-2.62793 2.05664,-7.32129 z"
           inkscape:connector-curvature="0" />
        <path
           id="path7262"
           transform="translate(-0.05437,0.24881)"
           d="m 614.19141,254.08141 h -2.16211 v -25.59375 h 2.16211 z"
           inkscape:connector-curvature="0" />
        <path
           id="path7264"
           transform="translate(-0.05437,0.24881)"
           d="m 667.22363,247.78844 a 4.14274,4.14274 0 0 0 -1.49414,-3.36621 15.77787,15.77787 0 0 0 -5.4668,-2.35547 19.15963,19.15963 0 0 1 -5.80078,-2.43457 5.90491,5.90491 0 0 1 -0.18457,-9.65918 9.92587,9.92587 0 0 1 6.17871,-1.83691 10.24868,10.24868 0 0 1 4.56152,0.98438 7.46458,7.46458 0 0 1 3.12012,2.74219 7.2029,7.2029 0 0 1 1.10742,3.91992 h -2.17969 a 5.37852,5.37852 0 0 0 -1.793,-4.22266 6.98075,6.98075 0 0 0 -4.81641,-1.5957 7.58949,7.58949 0 0 0 -4.67578,1.31152 4.09373,4.09373 0 0 0 -1.74023,3.42432 3.8738,3.8738 0 0 0 1.56445,3.187 14.49776,14.49776 0 0 0 5.00977,2.17432 23.54566,23.54566 0 0 1 5.2207,1.95264 7.44089,7.44089 0 0 1 2.67188,2.417 6.04722,6.04722 0 0 1 0.89648,3.32227 5.785,5.785 0 0 1 -2.417,4.85156 10.29391,10.29391 0 0 1 -6.37207,1.82813 12.49022,12.49022 0 0 1 -4.96582,-0.9668 7.58506,7.58506 0 0 1 -3.42773,-2.707 6.98846,6.98846 0 0 1 -1.16895,-3.99023 h 2.16211 a 5.10948,5.10948 0 0 0 2.02148,4.27148 8.556,8.556 0 0 0 5.37891,1.56445 7.973,7.973 0 0 0 4.79883,-1.31836 4.12137,4.12137 0 0 0 1.81059,-3.49809 z"
           inkscape:connector-curvature="0" />
        <path
           id="path7266"
           transform="translate(-0.05437,0.24881)"
           d="m 198.80957,306.90807 h -2.16211 l -14.71289,-21.90234 v 21.90234 h -2.17969 v -25.59375 h 2.17969 l 14.73043,21.91992 v -21.91992 h 2.14453 z"
           inkscape:connector-curvature="0" />
        <path
           id="path7268"
           transform="translate(-0.05437,0.24881)"
           d="M 244.40967,294.63854 H 232.439 v 10.44141 h 13.76367 v 1.82813 h -15.92581 v -25.59376 h 15.83789 v 1.82813 H 232.439 v 9.668 h 11.9707 z"
           inkscape:connector-curvature="0" />
        <path
           id="path7270"
           transform="translate(-0.05437,0.24881)"
           d="M 292.45313,281.31432 V 298.787 a 8.84856,8.84856 0 0 1 -1.14258,4.5 7.48709,7.48709 0 0 1 -3.17285,2.94434 10.34062,10.34062 0 0 1 -4.70215,1.02832 9.27787,9.27787 0 0 1 -6.47754,-2.20605 8.08732,8.08732 0 0 1 -2.52246,-6.1084 v -17.63089 h 2.14453 v 17.31445 a 6.655,6.655 0 0 0 1.8457,5.01855 7.89811,7.89811 0 0 0 10.01074,-0.009 6.655,6.655 0 0 0 1.83691,-4.99219 v -17.332 z"
           inkscape:connector-curvature="0" />
        <path
           id="path7272"
           transform="translate(-0.05437,0.24881)"
           d="M 337.67285,294.93736 H 325.7373 v 11.9707 h -2.1621 v -25.59374 h 15.85547 v 1.82813 H 325.7373 v 9.9668 h 11.93555 z"
           inkscape:connector-curvature="0" />
        <path
           id="path7274"
           transform="translate(-0.05437,0.24881)"
           d="M 386.252,281.31432 V 298.787 a 8.84856,8.84856 0 0 1 -1.14258,4.5 7.48709,7.48709 0 0 1 -3.17285,2.94434 10.34061,10.34061 0 0 1 -4.70215,1.02832 9.27787,9.27787 0 0 1 -6.47754,-2.20605 8.08732,8.08732 0 0 1 -2.52246,-6.1084 v -17.63089 h 2.14453 v 17.31445 a 6.655,6.655 0 0 0 1.8457,5.01855 7.89811,7.89811 0 0 0 10.01074,-0.009 6.65505,6.65505 0 0 0 1.83691,-4.99219 v -17.332 z"
           inkscape:connector-curvature="0" />
        <path
           id="path7276"
           transform="translate(-0.05437,0.24881)"
           d="m 433.7793,306.90807 h -2.16211 L 416.9043,285.00572 v 21.90234 h -2.17969 v -25.59374 h 2.17969 l 14.73047,21.91992 v -21.91992 h 2.14453 z"
           inkscape:connector-curvature="0" />
        <path
           id="path7278"
           transform="translate(-0.05437,0.24881)"
           d="m 478.45508,294.63854 h -11.9707 v 10.44141 H 480.248 v 1.82813 h -15.92573 v -25.59376 h 15.83789 v 1.82813 h -13.67578 v 9.668 h 11.9707 z"
           inkscape:connector-curvature="0" />
        <path
           id="path7280"
           transform="translate(-0.05437,0.24881)"
           d="m 525.44043,300.61461 a 4.14274,4.14274 0 0 0 -1.49414,-3.36621 15.77787,15.77787 0 0 0 -5.4668,-2.35547 19.15963,19.15963 0 0 1 -5.80078,-2.43457 5.90491,5.90491 0 0 1 -0.18457,-9.65918 9.92587,9.92587 0 0 1 6.17871,-1.83691 10.24868,10.24868 0 0 1 4.56152,0.98438 7.46458,7.46458 0 0 1 3.12012,2.74219 7.2029,7.2029 0 0 1 1.10742,3.91992 h -2.17969 a 5.37852,5.37852 0 0 0 -1.793,-4.22266 6.98075,6.98075 0 0 0 -4.81641,-1.5957 7.58949,7.58949 0 0 0 -4.67578,1.31152 4.09373,4.09373 0 0 0 -1.74023,3.42432 3.8738,3.8738 0 0 0 1.56445,3.187 14.49776,14.49776 0 0 0 5.00977,2.17432 23.54566,23.54566 0 0 1 5.2207,1.95264 7.44089,7.44089 0 0 1 2.67188,2.417 6.04722,6.04722 0 0 1 0.89648,3.32227 5.785,5.785 0 0 1 -2.417,4.85156 10.29391,10.29391 0 0 1 -6.37207,1.82813 12.49022,12.49022 0 0 1 -4.96582,-0.9668 7.58506,7.58506 0 0 1 -3.42773,-2.707 6.98846,6.98846 0 0 1 -1.16895,-3.99023 h 2.16211 a 5.10948,5.10948 0 0 0 2.02148,4.27148 8.556,8.556 0 0 0 5.37891,1.56445 7.973,7.973 0 0 0 4.79883,-1.31836 4.12137,4.12137 0 0 0 1.81059,-3.49809 z"
           inkscape:connector-curvature="0" />
        <path
           id="path7282"
           transform="translate(-0.05437,0.24881)"
           d="m 572.56445,294.63854 h -11.9707 v 10.44141 h 13.76367 v 1.82813 h -15.92578 v -25.59376 h 15.83789 v 1.82813 h -13.67578 v 9.668 h 11.9707 z"
           inkscape:connector-curvature="0" />
        <path
           id="path7284"
           transform="translate(-0.05437,0.24881)"
           d="m 606.80566,296.48424 v 10.42383 h -2.16211 v -25.59375 h 8.71875 a 9.19063,9.19063 0 0 1 6.30176,2.03906 8.01356,8.01356 0 0 1 0.0879,11.1709 q -2.22363,1.96 -6.44238,1.96 z m 0,-1.82812 h 6.55664 a 6.9209,6.9209 0 0 0 4.79883,-1.49609 5.34391,5.34391 0 0 0 1.65234,-4.17285 5.59176,5.59176 0 0 0 -1.64355,-4.23389 6.59292,6.59292 0 0 0 -4.667,-1.61084 h -6.69727 z"
           inkscape:connector-curvature="0" />
        <path
           id="path7286"
           transform="translate(-0.05437,0.24881)"
           d="m 669.832,283.142 h -8.77148 v 23.76563 h -2.16211 V 283.142 h -8.75391 v -1.82812 h 19.6875 z"
           inkscape:connector-curvature="0" />
        <path
           id="path7288"
           transform="translate(-0.05437,0.24881)"
           d="m 199.07422,359.73473 h -2.17969 V 347.4652 h -14.625 v 12.26953 h -2.16211 V 334.141 h 2.16211 v 11.49609 h 14.625 V 334.141 h 2.17969 z"
           inkscape:connector-curvature="0" />
        <path
           id="path7290"
           transform="translate(-0.05437,0.24881)"
           d="m 245.707,334.14049 v 17.47266 a 8.84856,8.84856 0 0 1 -1.14258,4.5 7.48709,7.48709 0 0 1 -3.17285,2.94434 10.34062,10.34062 0 0 1 -4.70215,1.02832 9.27787,9.27787 0 0 1 -6.47754,-2.20605 8.08732,8.08732 0 0 1 -2.52246,-6.1084 v -17.63087 h 2.14458 v 17.31445 a 6.655,6.655 0 0 0 1.8457,5.01855 7.89811,7.89811 0 0 0 10.01074,-0.009 6.655,6.655 0 0 0 1.83691,-4.99219 v -17.332 z"
           inkscape:connector-curvature="0" />
        <path
           id="path7292"
           transform="translate(-0.05437,0.24881)"
           d="M 284.80811,359.73473 H 282.646 V 334.141 h 2.16211 z"
           inkscape:connector-curvature="0" />
        <path
           id="path7294"
           transform="translate(-0.05437,0.24881)"
           d="m 341.05811,335.9691 h -8.77148 v 23.76563 h -2.16211 V 335.9691 h -8.75391 v -1.8281 h 19.6875 z"
           inkscape:connector-curvature="0" />
        <path
           id="path7296"
           transform="translate(-0.05437,0.24881)"
           d="m 384.5835,353.44176 a 4.14274,4.14274 0 0 0 -1.49414,-3.36621 15.77787,15.77787 0 0 0 -5.4668,-2.35547 19.15963,19.15963 0 0 1 -5.80078,-2.43457 5.90491,5.90491 0 0 1 -0.18457,-9.65918 9.92587,9.92587 0 0 1 6.17871,-1.83691 10.24868,10.24868 0 0 1 4.56152,0.98438 7.46458,7.46458 0 0 1 3.12012,2.74219 7.2029,7.2029 0 0 1 1.10742,3.91992 h -2.17969 a 5.37783,5.37783 0 0 0 -1.793,-4.22266 6.98075,6.98075 0 0 0 -4.81641,-1.5957 7.58949,7.58949 0 0 0 -4.67578,1.31152 4.09286,4.09286 0 0 0 -1.74023,3.42383 3.8747,3.8747 0 0 0 1.56445,3.1875 14.50784,14.50784 0 0 0 5.00977,2.17383 23.54262,23.54262 0 0 1 5.2207,1.95313 7.44089,7.44089 0 0 1 2.67188,2.417 6.04722,6.04722 0 0 1 0.89648,3.32227 5.785,5.785 0 0 1 -2.417,4.85156 10.29391,10.29391 0 0 1 -6.37207,1.82813 12.49022,12.49022 0 0 1 -4.96582,-0.9668 7.58506,7.58506 0 0 1 -3.42773,-2.707 6.98846,6.98846 0 0 1 -1.16895,-3.99023 h 2.16211 a 5.10948,5.10948 0 0 0 2.02148,4.27148 8.556,8.556 0 0 0 5.37891,1.56445 7.973,7.973 0 0 0 4.79883,-1.31836 4.12137,4.12137 0 0 0 1.81059,-3.4981 z"
           inkscape:connector-curvature="0" />
        <path
           id="path7298"
           transform="translate(-0.05437,0.24881)"
           d="m 425.65967,359.73473 h -2.16211 V 334.141 h 2.16211 z"
           inkscape:connector-curvature="0" />
        <path
           id="path7300"
           transform="translate(-0.05437,0.24881)"
           d="m 471.64453,344.96861 7.207,-10.82812 h 2.584 l -8.47266,12.62109 8.73633,12.97266 h -2.60156 l -7.45312,-11.17969 -7.48828,11.17969 h -2.56641 l 8.75391,-12.97266 -8.49023,-12.62109 h 2.584 z"
           inkscape:connector-curvature="0" />
        <path
           id="path7302"
           transform="translate(-0.05437,0.24881)"
           d="m 528.36035,351.75377 a 9.17286,9.17286 0 0 1 -2.8916,6.1875 9.56533,9.56533 0 0 1 -6.53027,2.14453 9.02752,9.02752 0 0 1 -5.03613,-1.42383 9.284,9.284 0 0 1 -3.38379,-4.03418 14.37119,14.37119 0 0 1 -1.21289,-5.96777 v -3.32227 a 14.50276,14.50276 0 0 1 1.19531,-6.04687 9.193,9.193 0 0 1 3.43652,-4.06934 9.37,9.37 0 0 1 5.15918,-1.43262 9.16271,9.16271 0 0 1 6.49512,2.21484 9.27868,9.27868 0 0 1 2.76855,6.13477 h -2.17969 q -0.80859,-6.52148 -7.084,-6.52148 a 6.71406,6.71406 0 0 0 -5.5459,2.60352 11.29254,11.29254 0 0 0 -2.06543,7.19531 v 3.13135 a 11.37434,11.37434 0 0 0 2.0127,7.07178 6.48343,6.48343 0 0 0 5.44043,2.63867 7.1968,7.1968 0 0 0 5.11523,-1.626 7.79268,7.79268 0 0 0 2.127,-4.87793 z"
           inkscape:connector-curvature="0" />
        <path
           id="path7304"
           transform="translate(-0.05437,0.24881)"
           d="M 566.82715,359.73473 H 564.665 V 334.141 h 2.16211 z"
           inkscape:connector-curvature="0" />
        <path
           id="path7306"
           transform="translate(-0.05437,0.24881)"
           d="m 622.31152,359.73473 h -2.16211 l -14.71289,-21.90234 v 21.90234 h -2.17969 V 334.141 h 2.17969 L 620.167,356.0609 V 334.141 h 2.14453 z"
           inkscape:connector-curvature="0" />
        <path
           id="path7308"
           transform="translate(-0.05437,0.24881)"
           d="m 669.75391,348.326 a 14.69014,14.69014 0 0 1 -1.292,6.37207 9.131,9.131 0 0 1 -3.68262,4.10449 l 4.6582,4.06055 -1.49414,1.33594 -5.2207,-4.51758 a 10.81948,10.81948 0 0 1 -2.93555,0.4043 9.299,9.299 0 0 1 -8.71875,-5.52832 14.33926,14.33926 0 0 1 -1.26562,-6.1084 v -2.86523 a 14.6966,14.6966 0 0 1 1.23926,-6.19629 9.20651,9.20651 0 0 1 8.71,-5.59863 9.58528,9.58528 0 0 1 5.25586,1.44141 9.41661,9.41661 0 0 1 3.50684,4.13086 14.68132,14.68132 0 0 1 1.23926,6.20508 z m -2.16211,-2.77734 a 11.3115,11.3115 0 0 0 -2.0918,-7.24216 7.522,7.522 0 0 0 -11.417,0.009 q -2.11816,2.62793 -2.11816,7.33887 v 2.67184 a 11.34454,11.34454 0 0 0 2.10059,7.21582 7.52787,7.52787 0 0 0 11.45215,0.044 q 2.07422,-2.61914 2.07422,-7.3125 z"
           inkscape:connector-curvature="0" />
        <path
           id="path7310"
           transform="translate(-0.05437,0.24881)"
           d="m 180.13672,386.96666 9.43945,22.58789 9.47461,-22.58789 h 2.88281 v 25.59375 h -2.16211 v -11.14453 l 0.17578,-11.42578 -9.52734,22.57031 H 188.75 l -9.49219,-22.48241 0.17578,11.26758 v 11.21484 h -2.16211 v -25.59376 z"
           inkscape:connector-curvature="0" />
        <path
           id="path7312"
           transform="translate(-0.05437,0.24881)"
           d="m 237.75586,412.55992 h -2.16211 v -25.59375 h 2.16211 z"
           inkscape:connector-curvature="0" />
        <path
           id="path7314"
           transform="translate(-0.05437,0.24881)"
           d="m 275.17822,412.56041 v -25.59375 h 7.1543 a 11.13,11.13 0 0 1 5.64258,1.43262 9.90408,9.90408 0 0 1 3.89355,4.10449 12.9271,12.9271 0 0 1 1.39746,6.082 v 2.35547 a 12.92719,12.92719 0 0 1 -1.38867,6.082 9.88058,9.88058 0 0 1 -3.91113,4.0957 11.46623,11.46623 0 0 1 -5.792,1.44141 z m 2.16211,-23.76562 v 21.9375 h 4.85156 a 8.35136,8.35136 0 0 0 6.48633,-2.68262 10.36775,10.36775 0 0 0 2.44336,-7.25684 v -2.252 a 10.12794,10.12794 0 0 0 -2.4082,-7.07227 8.21014,8.21014 0 0 0 -6.3457,-2.67383 z"
           inkscape:connector-curvature="0" />
        <path
           id="path7316"
           transform="translate(-0.05437,0.24881)"
           d="m 331.85889,412.56041 h -2.16211 v -25.59375 h 2.16211 z"
           inkscape:connector-curvature="0" />
        <path
           id="path7318"
           transform="translate(-0.05437,0.24881)"
           d="m 377.53711,397.79479 7.207,-10.82812 h 2.584 l -8.47266,12.62109 8.73633,12.97266 h -2.60156 l -7.45312,-11.17969 -7.48828,11.17969 h -2.56641 l 8.75391,-12.97266 -8.49023,-12.62109 h 2.584 z"
           inkscape:connector-curvature="0" />
        <path
           id="path7320"
           transform="translate(-0.05437,0.24881)"
           d="m 415.10693,386.96666 9.43945,22.58789 9.47412,-22.58789 h 2.88281 v 25.59375 h -2.16211 v -11.14453 l 0.17578,-11.42578 -9.52686,22.57031 h -1.66992 l -9.4922,-22.48241 0.17578,11.26758 v 11.21484 h -2.16208 v -25.59376 z"
           inkscape:connector-curvature="0" />
        <path
           id="path7322"
           transform="translate(-0.05437,0.24881)"
           d="m 472.71973,412.55992 h -2.16211 v -25.59375 h 2.16211 z"
           inkscape:connector-curvature="0" />
        <path
           id="path7324"
           transform="translate(-0.05437,0.24881)"
           d="M 528.20508,412.55992 H 526.043 l -14.71289,-21.90234 v 21.90234 h -2.17969 v -25.59375 h 2.17969 l 14.73047,21.91992 v -21.91992 h 2.14453 z"
           inkscape:connector-curvature="0" />
        <path
           id="path7326"
           transform="translate(-0.05437,0.24881)"
           d="m 574.78418,386.96666 v 17.47266 a 8.84856,8.84856 0 0 1 -1.14258,4.5 7.48709,7.48709 0 0 1 -3.17285,2.94434 10.34062,10.34062 0 0 1 -4.70215,1.02832 9.27787,9.27787 0 0 1 -6.47754,-2.20605 8.08732,8.08732 0 0 1 -2.52246,-6.1084 v -17.63087 h 2.14453 v 17.31445 a 6.655,6.655 0 0 0 1.8457,5.01855 7.89811,7.89811 0 0 0 10.01074,-0.009 6.655,6.655 0 0 0 1.83691,-4.99219 v -17.332 z"
           inkscape:connector-curvature="0" />
        <path
           id="path7328"
           transform="translate(-0.05437,0.24881)"
           d="m 613.88477,412.56041 h -2.16211 v -25.59375 h 2.16211 z"
           inkscape:connector-curvature="0" />
        <path
           id="path7330"
           transform="translate(-0.05437,0.24881)"
           d="m 670.14355,388.7943 h -8.77148 v 23.76563 H 659.21 V 388.7943 h -8.75391 v -1.82812 h 19.6875 z"
           inkscape:connector-curvature="0" />
        <path
           id="path7332"
           transform="translate(-0.05437,0.24881)"
           d="m 198.96,453.97887 a 14.78721,14.78721 0 0 1 -1.22168,6.20508 9.32265,9.32265 0 0 1 -3.48926,4.11328 9.55325,9.55325 0 0 1 -5.23828,1.44141 9.09152,9.09152 0 0 1 -7.24219,-3.208 q -2.75977,-3.208 -2.75977,-8.65723 v -2.63672 a 14.6966,14.6966 0 0 1 1.23926,-6.19629 9.20788,9.20788 0 0 1 8.72754,-5.59863 9.56526,9.56526 0 0 1 5.21191,1.42383 9.35356,9.35356 0 0 1 3.48926,4.02539 14.48726,14.48726 0 0 1 1.2832,6.0293 z m -2.16211,-2.77734 a 11.3115,11.3115 0 0 0 -2.0918,-7.24219 7.52219,7.52219 0 0 0 -11.417,0.009 q -2.11816,2.62793 -2.11816,7.33887 v 2.67188 a 11.31129,11.31129 0 0 0 2.10938,7.21582 7.52925,7.52925 0 0 0 11.46094,0.0352 q 2.05664,-2.62793 2.05664,-7.32129 z"
           inkscape:connector-curvature="0" />
        <path
           id="path7334"
           transform="translate(-0.05437,0.24881)"
           d="m 245.56641,465.38609 h -2.16211 l -14.71289,-21.90234 v 21.90234 h -2.17969 v -25.59375 h 2.17969 l 14.73047,21.91992 v -21.91992 h 2.14453 z"
           inkscape:connector-curvature="0" />
        <path
           id="path7336"
           transform="translate(-0.05437,0.24881)"
           d="m 276.54639,463.55895 h 15.80273 v 1.82813 h -18.42187 v -1.63478 l 15.1875,-22.13086 h -14.73047 v -1.82812 h 17.40234 v 1.53223 z"
           inkscape:connector-curvature="0" />
        <path
           id="path7338"
           transform="translate(-0.05437,0.24881)"
           d="m 337.2876,453.11754 h -11.9707 v 10.44141 h 13.76367 v 1.82813 h -15.92578 v -25.59376 h 15.83789 v 1.82813 h -13.67579 v 9.668 h 11.9707 z"
           inkscape:connector-curvature="0" />
        <path
           id="path7340"
           transform="translate(-0.05437,0.24881)"
           d="m 381.54248,439.79332 h 2.17969 v 17.98242 a 7.96908,7.96908 0 0 1 -2.10059,5.80078 7.49337,7.49337 0 0 1 -5.63379,2.16211 7.87923,7.87923 0 0 1 -5.73047,-1.95117 7.25461,7.25461 0 0 1 -2.00391,-5.44922 h 2.16211 a 5.5231,5.5231 0 0 0 1.459,4.1748 5.70751,5.70751 0 0 0 4.11328,1.39746 5.24763,5.24763 0 0 0 3.98145,-1.61719 6.2355,6.2355 0 0 0 1.57324,-4.39453 z"
           inkscape:connector-curvature="0" />
        <path
           id="path7342"
           transform="translate(-0.05437,0.24881)"
           d="M 433.42969,465.38707 H 431.25 v -12.26953 h -14.62549 v 12.26953 h -2.16211 v -25.59375 h 2.16211 v 11.49609 H 431.25 v -11.49609 h 2.17969 z"
           inkscape:connector-curvature="0" />
        <path
           id="path7344"
           transform="translate(-0.05437,0.24881)"
           d="m 478.14844,453.11656 h -11.9707 V 463.558 h 13.76367 v 1.82813 h -15.92578 v -25.59379 h 15.83789 v 1.82813 h -13.67579 v 9.668 h 11.9707 z"
           inkscape:connector-curvature="0" />
        <path
           id="path7346"
           transform="translate(-0.05437,0.24881)"
           d="M 527.1123,439.79234 V 457.265 a 8.84856,8.84856 0 0 1 -1.14258,4.5 7.48709,7.48709 0 0 1 -3.17285,2.94434 10.34062,10.34062 0 0 1 -4.70215,1.02832 9.27787,9.27787 0 0 1 -6.47754,-2.20605 8.08732,8.08732 0 0 1 -2.52246,-6.1084 v -17.63087 h 2.14453 v 17.31446 a 6.655,6.655 0 0 0 1.8457,5.01855 7.89811,7.89811 0 0 0 10.01074,-0.009 6.655,6.655 0 0 0 1.83691,-4.99219 v -17.332 z"
           inkscape:connector-curvature="0" />
        <path
           id="path7348"
           transform="translate(-0.05437,0.24881)"
           d="m 566.502,454.71715 h -7.43555 v 10.66992 h -2.17969 v -25.59375 h 8.31445 a 9.48833,9.48833 0 0 1 6.39844,1.98438 7.57186,7.57186 0 0 1 0.86133,9.88379 7.36544,7.36544 0 0 1 -3.86719,2.59863 l 6.39844,10.89746 v 0.22949 h -2.30273 z m -7.43555,-1.82812 h 6.627 a 6.13866,6.13866 0 0 0 4.377,-1.5498 5.85081,5.85081 0 0 0 -0.0705,-8.22169 7.14084,7.14084 0 0 0 -4.834,-1.49609 h -6.09961 z"
           inkscape:connector-curvature="0" />
        <path
           id="path7350"
           transform="translate(-0.05437,0.24881)"
           d="m 619.31445,453.11754 h -11.9707 v 10.44141 h 13.76367 v 1.82813 h -15.92578 v -25.59376 h 15.83789 v 1.82813 h -13.67578 v 9.668 h 11.9707 z"
           inkscape:connector-curvature="0" />
        <path
           id="path7352"
           transform="translate(-0.05437,0.24881)"
           d="m 666.2998,459.09313 a 4.14274,4.14274 0 0 0 -1.49414,-3.36621 15.77787,15.77787 0 0 0 -5.4668,-2.35547 19.15963,19.15963 0 0 1 -5.80078,-2.43457 5.90491,5.90491 0 0 1 -0.18457,-9.65918 9.92587,9.92587 0 0 1 6.17871,-1.83691 10.24868,10.24868 0 0 1 4.56152,0.98438 7.46458,7.46458 0 0 1 3.12012,2.74219 7.2029,7.2029 0 0 1 1.10742,3.91992 h -2.17968 a 5.37922,5.37922 0 0 0 -1.793,-4.22266 6.98075,6.98075 0 0 0 -4.81641,-1.5957 7.58949,7.58949 0 0 0 -4.67578,1.31152 4.0946,4.0946 0 0 0 -1.74023,3.4248 3.8729,3.8729 0 0 0 1.56445,3.18652 14.48769,14.48769 0 0 0 5.00977,2.1748 23.54871,23.54871 0 0 1 5.2207,1.95215 7.44089,7.44089 0 0 1 2.67188,2.417 6.04722,6.04722 0 0 1 0.89648,3.32227 5.785,5.785 0 0 1 -2.417,4.85156 10.29391,10.29391 0 0 1 -6.37207,1.82813 12.49022,12.49022 0 0 1 -4.96582,-0.9668 7.58506,7.58506 0 0 1 -3.42773,-2.707 6.98846,6.98846 0 0 1 -1.16895,-3.99023 H 652.29 a 5.10948,5.10948 0 0 0 2.02148,4.27148 8.556,8.556 0 0 0 5.37891,1.56445 7.973,7.973 0 0 0 4.79883,-1.31836 4.12137,4.12137 0 0 0 1.81058,-3.49808 z"
           inkscape:connector-curvature="0" />
        <path
           id="path7354"
           transform="translate(-0.05437,0.24881)"
           d="m 179.51855,492.62145 9.43945,22.58789 9.47461,-22.58789 h 2.88281 v 25.59375 h -2.16211 v -11.14454 l 0.17578,-11.42578 -9.52734,22.57031 h -1.66992 l -9.49219,-22.48242 0.17578,11.26758 v 11.21485 h -2.16211 v -25.59375 z"
           inkscape:connector-curvature="0" />
        <path
           id="path7356"
           transform="translate(-0.05437,0.24881)"
           d="m 246.02344,506.807 a 14.78721,14.78721 0 0 1 -1.22168,6.20508 9.32265,9.32265 0 0 1 -3.48926,4.11328 9.55325,9.55325 0 0 1 -5.23828,1.44141 9.09152,9.09152 0 0 1 -7.24219,-3.208 q -2.75977,-3.208 -2.75977,-8.65723 v -2.63674 a 14.69661,14.69661 0 0 1 1.23926,-6.19629 9.20788,9.20788 0 0 1 8.72754,-5.59863 9.56526,9.56526 0 0 1 5.21191,1.42383 9.35356,9.35356 0 0 1 3.48926,4.02539 14.48726,14.48726 0 0 1 1.2832,6.0293 z m -2.16211,-2.77734 a 11.3115,11.3115 0 0 0 -2.0918,-7.24219 7.52219,7.52219 0 0 0 -11.417,0.009 q -2.11816,2.62793 -2.11816,7.33887 v 2.67187 a 11.31129,11.31129 0 0 0 2.10938,7.21582 7.52925,7.52925 0 0 0 11.46094,0.0352 q 2.05664,-2.62793 2.05664,-7.32129 z"
           inkscape:connector-curvature="0" />
        <path
           id="path7358"
           transform="translate(-0.05437,0.24881)"
           d="m 284.19287,518.2152 h -2.16211 v -25.59375 h 2.16211 z"
           inkscape:connector-curvature="0" />
        <path
           id="path7360"
           transform="translate(-0.05437,0.24881)"
           d="m 339.66943,518.2152 h -2.16211 l -14.71289,-21.90234 v 21.90234 h -2.17969 v -25.59375 h 2.17969 l 14.73047,21.91992 v -21.91992 h 2.14453 z"
           inkscape:connector-curvature="0" />
        <path
           id="path7362"
           transform="translate(-0.05437,0.24881)"
           d="m 383.96826,511.92223 a 4.14274,4.14274 0 0 0 -1.49414,-3.36621 15.77787,15.77787 0 0 0 -5.4668,-2.35547 19.15963,19.15963 0 0 1 -5.80078,-2.43457 5.90491,5.90491 0 0 1 -0.18457,-9.65918 9.92587,9.92587 0 0 1 6.17871,-1.83691 10.24868,10.24868 0 0 1 4.56152,0.98438 7.46458,7.46458 0 0 1 3.12012,2.74219 7.2029,7.2029 0 0 1 1.10742,3.91992 h -2.17969 a 5.37783,5.37783 0 0 0 -1.793,-4.22266 6.98075,6.98075 0 0 0 -4.81641,-1.5957 7.58949,7.58949 0 0 0 -4.67578,1.31152 4.09286,4.09286 0 0 0 -1.74023,3.42383 3.8747,3.8747 0 0 0 1.56445,3.1875 14.50784,14.50784 0 0 0 5.00977,2.17383 23.54262,23.54262 0 0 1 5.2207,1.95313 7.44089,7.44089 0 0 1 2.67188,2.417 6.04722,6.04722 0 0 1 0.89648,3.32227 5.785,5.785 0 0 1 -2.417,4.85156 10.29391,10.29391 0 0 1 -6.37207,1.82813 12.49022,12.49022 0 0 1 -4.96582,-0.9668 7.58506,7.58506 0 0 1 -3.42773,-2.707 6.98846,6.98846 0 0 1 -1.16895,-3.99023 h 2.16211 a 5.10948,5.10948 0 0 0 2.02148,4.27148 8.556,8.556 0 0 0 5.37891,1.56445 7.973,7.973 0 0 0 4.79883,-1.31836 4.12137,4.12137 0 0 0 1.81059,-3.4981 z"
           inkscape:connector-curvature="0" />
        <path
           id="path7364"
           transform="translate(-0.05437,0.24881)"
           d="m 433.93066,506.807 a 14.78721,14.78721 0 0 1 -1.22168,6.20508 9.32265,9.32265 0 0 1 -3.48926,4.11328 9.55491,9.55491 0 0 1 -5.23877,1.44141 9.09152,9.09152 0 0 1 -7.24219,-3.208 q -2.75977,-3.208 -2.75977,-8.65723 v -2.63674 a 14.6966,14.6966 0 0 1 1.23926,-6.19629 9.20788,9.20788 0 0 1 8.72754,-5.59863 9.56693,9.56693 0 0 1 5.2124,1.42383 9.35356,9.35356 0 0 1 3.48926,4.02539 14.48726,14.48726 0 0 1 1.2832,6.0293 z m -2.16211,-2.77734 a 11.3115,11.3115 0 0 0 -2.0918,-7.24219 7.52272,7.52272 0 0 0 -11.41748,0.009 q -2.11816,2.62793 -2.11816,7.33887 v 2.67187 a 11.31129,11.31129 0 0 0 2.10938,7.21582 7.52978,7.52978 0 0 0 11.46143,0.0352 q 2.05664,-2.62793 2.05664,-7.32129 z"
           inkscape:connector-curvature="0" />
        <path
           id="path7366"
           transform="translate(-0.05437,0.24881)"
           d="m 466.95117,516.38707 h 12.63867 v 1.82813 h -14.81836 v -25.59375 h 2.17969 z"
           inkscape:connector-curvature="0" />
        <path
           id="path7368"
           transform="translate(-0.05437,0.24881)"
           d="m 525.20508,505.94566 h -11.9707 v 10.44141 H 526.998 v 1.82813 h -15.92573 v -25.59375 h 15.83789 v 1.82813 h -13.67578 v 9.668 h 11.9707 z"
           inkscape:connector-curvature="0" />
        <path
           id="path7370"
           transform="translate(-0.05437,0.24881)"
           d="m 556.5791,518.2152 v -25.59375 h 7.1543 a 11.13,11.13 0 0 1 5.64258,1.43262 9.90408,9.90408 0 0 1 3.89355,4.10449 12.9271,12.9271 0 0 1 1.39746,6.082 v 2.35547 a 12.92719,12.92719 0 0 1 -1.38867,6.082 9.88058,9.88058 0 0 1 -3.91113,4.0957 11.46623,11.46623 0 0 1 -5.792,1.44141 z m 2.16211,-23.76562 v 21.9375 h 4.85156 a 8.35136,8.35136 0 0 0 6.48633,-2.68262 10.36858,10.36858 0 0 0 2.44336,-7.25684 v -2.252 a 10.12711,10.12711 0 0 0 -2.4082,-7.07227 8.21014,8.21014 0 0 0 -6.3457,-2.67383 z"
           inkscape:connector-curvature="0" />
        <path
           id="path7372"
           transform="translate(-0.05437,0.24881)"
           d="m 613.26758,518.2152 h -2.16211 v -25.59375 h 2.16211 z"
           inkscape:connector-curvature="0" />
        <path
           id="path7374"
           transform="translate(-0.05437,0.24881)"
           d="m 659.251,503.44859 7.207,-10.82812 h 2.584 l -8.47266,12.62109 8.73633,12.97266 h -2.60157 l -7.4531,-11.17969 -7.48828,11.17969 h -2.56641 l 8.75391,-12.97266 -8.49022,-12.62109 h 2.584 z"
           inkscape:connector-curvature="0" />
        <path
           id="path7376"
           transform="translate(-0.05437,0.24881)"
           d="m 195.50342,558.77184 h -11.9707 v 10.44141 h 13.76367 v 1.82813 h -15.92578 v -25.59376 h 15.83789 v 1.82813 h -13.67579 v 9.668 h 11.9707 z"
           inkscape:connector-curvature="0" />
        <path
           id="path7378"
           transform="translate(-0.05437,0.24881)"
           d="m 245.72217,547.27574 h -8.77148 v 23.76563 h -2.16211 v -23.76563 h -8.75391 v -1.82812 h 19.6875 z"
           inkscape:connector-curvature="0" />
        <path
           id="path7380"
           transform="translate(-0.05437,0.24881)"
           d="m 274.69824,571.04137 v -25.59375 h 7.55859 q 4.11328,0 6.24023,1.69727 a 6.01976,6.01976 0 0 1 2.127,5.00391 5.67388,5.67388 0 0 1 -1.08105,3.457 5.90573,5.90573 0 0 1 -2.96191,2.10156 6.20032,6.20032 0 0 1 4.957,6.13086 6.65257,6.65257 0 0 1 -2.18848,5.29688 8.96755,8.96755 0 0 1 -6.09082,1.90625 z m 2.16211,-14.11523 h 5.90625 a 6.63182,6.63182 0 0 0 4.19238,-1.27637 4.35582,4.35582 0 0 0 1.48535,-3.56641 4.27914,4.27914 0 0 0 -1.53809,-3.63672 7.63567,7.63567 0 0 0 -4.64941,-1.1709 h -5.39648 z m 0,1.82813 v 10.459 h 6.48633 a 6.48465,6.48465 0 0 0 4.40332,-1.41211 4.92128,4.92128 0 0 0 1.626,-3.92187 4.749,4.749 0 0 0 -1.55566,-3.74707 6.25554,6.25554 0 0 0 -4.29785,-1.37793 z"
           inkscape:connector-curvature="0" />
        <path
           id="path7382"
           transform="translate(-0.05437,0.24881)"
           d="m 339.43848,559.63316 a 14.69014,14.69014 0 0 1 -1.292,6.37207 9.131,9.131 0 0 1 -3.68262,4.10449 l 4.6582,4.06055 -1.49414,1.33594 -5.2207,-4.51758 a 10.81948,10.81948 0 0 1 -2.93555,0.4043 9.299,9.299 0 0 1 -8.71875,-5.52832 14.33926,14.33926 0 0 1 -1.26562,-6.1084 V 556.891 a 14.6966,14.6966 0 0 1 1.23926,-6.19629 9.20651,9.20651 0 0 1 8.71,-5.59863 9.58528,9.58528 0 0 1 5.25586,1.44141 9.41661,9.41661 0 0 1 3.50684,4.13086 14.68132,14.68132 0 0 1 1.23926,6.20508 z m -2.16211,-2.77734 a 11.3115,11.3115 0 0 0 -2.0918,-7.24219 7.522,7.522 0 0 0 -11.417,0.009 q -2.11816,2.62793 -2.11816,7.33887 v 2.67188 a 11.34454,11.34454 0 0 0 2.10059,7.21583 7.52787,7.52787 0 0 0 11.45215,0.0439 q 2.07422,-2.61914 2.07422,-7.3125 z"
           inkscape:connector-curvature="0" />
        <path
           id="path7384"
           transform="translate(-0.05437,0.24881)"
           d="m 385.32764,545.44762 v 17.47266 a 8.84856,8.84856 0 0 1 -1.14258,4.5 7.48709,7.48709 0 0 1 -3.17285,2.94434 10.34062,10.34062 0 0 1 -4.70215,1.02832 9.27787,9.27787 0 0 1 -6.47754,-2.20605 8.08732,8.08732 0 0 1 -2.52246,-6.1084 v -17.63087 h 2.14453 v 17.31445 a 6.655,6.655 0 0 0 1.8457,5.01855 7.89811,7.89811 0 0 0 10.01074,-0.009 6.65505,6.65505 0 0 0 1.83691,-4.99219 v -17.332 z"
           inkscape:connector-curvature="0" />
        <path
           id="path7386"
           transform="translate(-0.05437,0.24881)"
           d="m 429.15527,563.85191 h -11.61914 l -2.63672,7.18945 h -2.26758 l 9.68555,-25.59375 h 2.05662 l 9.68555,25.59375 h -2.25 z m -10.95117,-1.82812 h 10.26563 l -5.13281,-13.93945 z"
           inkscape:connector-curvature="0" />
        <path
           id="path7388"
           transform="translate(-0.05437,0.24881)"
           d="m 471.77441,560.37145 h -7.43555 v 10.66992 h -2.17969 v -25.59375 h 8.31445 a 9.48833,9.48833 0 0 1 6.39844,1.98438 7.57186,7.57186 0 0 1 0.86133,9.88379 7.36544,7.36544 0 0 1 -3.86719,2.59863 l 6.39844,10.89746 v 0.22949 h -2.30273 z m -7.43555,-1.82812 h 6.627 a 6.13866,6.13866 0 0 0 4.377,-1.5498 5.8508,5.8508 0 0 0 -0.0703,-8.22168 7.14084,7.14084 0 0 0 -4.834,-1.49609 h -6.09961 z"
           inkscape:connector-curvature="0" />
        <path
           id="path7390"
           transform="translate(-0.05437,0.24881)"
           d="m 527.74219,547.27574 h -8.77149 v 23.76563 h -2.16211 v -23.76563 h -8.75391 v -1.82812 h 19.6875 z"
           inkscape:connector-curvature="0" />
        <path
           id="path7392"
           transform="translate(-0.05437,0.24881)"
           d="m 558.82617,560.61754 v 10.42383 h -2.16211 v -25.59375 h 8.71875 a 9.19063,9.19063 0 0 1 6.30176,2.03906 8.01356,8.01356 0 0 1 0.0879,11.1709 q -2.22363,1.96 -6.44238,1.96 z m 0,-1.82812 h 6.55664 a 6.9209,6.9209 0 0 0 4.79883,-1.49609 5.34391,5.34391 0 0 0 1.65234,-4.17285 5.59138,5.59138 0 0 0 -1.64355,-4.2334 6.59091,6.59091 0 0 0 -4.667,-1.61133 h -6.69727 z"
           inkscape:connector-curvature="0" />
        <path
           id="path7394"
           transform="translate(-0.05437,0.24881)"
           d="m 602.09375,545.44762 9.43945,22.58789 9.47461,-22.58789 h 2.88281 v 25.59375 h -2.16211 v -11.14453 l 0.17578,-11.42578 -9.52729,22.57031 h -1.67 l -9.49219,-22.48242 0.17578,11.26758 v 11.21484 h -2.16211 v -25.59375 z"
           inkscape:connector-curvature="0" />
        <path
           id="path7396"
           transform="translate(-0.05437,0.24881)"
           d="m 650.4502,564.13316 0.791,3.97266 0.9668,-3.79687 5.55469,-18.86133 h 1.95117 l 5.48438,18.86133 0.94922,3.832 0.84375,-4.00781 4.623,-18.68555 h 2.21484 l -6.55664,25.59375 h -2.07422 l -5.80078,-20.02148 -0.65039,-2.53125 -0.63281,2.53125 -5.94141,20.02148 h -2.07422 l -6.53906,-25.59375 h 2.21484 z"
           inkscape:connector-curvature="0" />
        <path
           id="path7398"
           transform="translate(-0.05437,0.24881)"
           d="m 188.53516,620.70445 0.14063,0.54492 0.1582,-0.54492 8.05078,-22.42969 h 2.373 l -9.52734,25.59375 h -2.07422 l -9.52734,-25.59375 h 2.35547 z"
           inkscape:connector-curvature="0" />
        <path
           id="path7400"
           transform="translate(-0.05437,0.24881)"
           d="m 236.8291,623.86754 h -2.1621 v -25.59375 h 2.16211 z"
           inkscape:connector-curvature="0" />
        <path
           id="path7402"
           transform="translate(-0.05437,0.24881)"
           d="m 292.3125,623.86852 h -2.16211 L 275.4375,601.96617 v 21.90234 h -2.17969 v -25.59374 h 2.17969 l 14.7305,21.91992 v -21.91992 h 2.14453 z"
           inkscape:connector-curvature="0" />
        <path
           id="path7404"
           transform="translate(-0.05437,0.24881)"
           d="m 339.25488,620.8275 a 7.24437,7.24437 0 0 1 -3.52441,2.49609 15.25,15.25 0 0 1 -5.37012,0.89648 9.97322,9.97322 0 0 1 -5.34375,-1.44141 9.59373,9.59373 0 0 1 -3.62109,-4.07812 13.81743,13.81743 0 0 1 -1.30078,-6.04687 v -3.23437 q 0,-5.32617 2.68945,-8.41113 a 9.10044,9.10044 0 0 1 7.22461,-3.085 9.59727,9.59727 0 0 1 6.36328,2.0127 8.30722,8.30722 0 0 1 2.86523,5.5459 h -2.1621 a 6.63893,6.63893 0 0 0 -2.29395,-4.27637 7.3842,7.3842 0 0 0 -4.75488,-1.4541 6.95556,6.95556 0 0 0 -5.67773,2.55078 q -2.0918,2.55029 -2.0918,7.19531 v 3.02539 a 12.6425,12.6425 0 0 0 0.99316,5.16309 7.87981,7.87981 0 0 0 2.84766,3.47461 7.52514,7.52514 0 0 0 4.2627,1.23145 11.89675,11.89675 0 0 0 4.79883,-0.87891 5.1691,5.1691 0 0 0 1.93359,-1.35352 v -6.60937 h -6.873 V 611.722 h 9.03516 z"
           inkscape:connector-curvature="0" />
        <path
           id="path7406"
           transform="translate(-0.05437,0.24881)"
           d="m 386.88477,600.10191 h -8.77148 v 23.76563 h -2.16211 v -23.76563 h -8.75391 v -1.82812 h 19.6875 z"
           inkscape:connector-curvature="0" />
        <path
           id="path7408"
           transform="translate(-0.05437,0.24881)"
           d="m 427.78516,613.46129 h -8.41992 v -1.77539 h 8.41992 z"
           inkscape:connector-curvature="0" />
        <path
           id="path7410"
           transform="translate(-0.05437,0.24881)"
           d="m 480.37988,615.88707 a 9.17286,9.17286 0 0 1 -2.8916,6.1875 9.56533,9.56533 0 0 1 -6.53027,2.14453 9.02752,9.02752 0 0 1 -5.03613,-1.42383 9.284,9.284 0 0 1 -3.38379,-4.03418 14.37119,14.37119 0 0 1 -1.21289,-5.96777 v -3.32227 a 14.50276,14.50276 0 0 1 1.19531,-6.04687 9.193,9.193 0 0 1 3.43652,-4.06934 9.37,9.37 0 0 1 5.15918,-1.43262 9.16271,9.16271 0 0 1 6.49512,2.21484 9.27868,9.27868 0 0 1 2.76855,6.13477 h -2.17968 q -0.80859,-6.52148 -7.084,-6.52148 a 6.71406,6.71406 0 0 0 -5.5459,2.60352 11.29347,11.29347 0 0 0 -2.06543,7.19531 v 3.13182 a 11.37186,11.37186 0 0 0 2.0127,7.07129 6.48217,6.48217 0 0 0 5.44043,2.63871 7.1968,7.1968 0 0 0 5.11523,-1.626 7.79268,7.79268 0 0 0 2.127,-4.87793 z"
           inkscape:connector-curvature="0" />
        <path
           id="path7412"
           transform="translate(-0.05437,0.24881)"
           d="m 518.84863,623.86754 h -2.16211 v -25.59375 h 2.16211 z"
           inkscape:connector-curvature="0" />
        <path
           id="path7414"
           transform="translate(-0.05437,0.24881)"
           d="m 574.332,623.86754 h -2.16211 L 557.457,601.9652 v 21.90234 h -2.17969 v -25.59375 h 2.17969 l 14.73047,21.91992 v -21.91992 h 2.14453 z"
           inkscape:connector-curvature="0" />
        <path
           id="path7416"
           transform="translate(-0.05437,0.24881)"
           d="m 621.77344,612.45934 a 14.69014,14.69014 0 0 1 -1.292,6.37207 9.131,9.131 0 0 1 -3.68262,4.10449 l 4.6582,4.06055 -1.49414,1.33594 -5.2207,-4.51758 a 10.81948,10.81948 0 0 1 -2.93555,0.4043 9.299,9.299 0 0 1 -8.71875,-5.52832 14.33927,14.33927 0 0 1 -1.26562,-6.1084 v -2.86523 a 14.69661,14.69661 0 0 1 1.23926,-6.19629 9.20652,9.20652 0 0 1 8.71,-5.59863 9.58528,9.58528 0 0 1 5.25586,1.44141 9.41661,9.41661 0 0 1 3.50684,4.13086 14.68132,14.68132 0 0 1 1.23926,6.20508 z m -2.16211,-2.77734 a 11.3115,11.3115 0 0 0 -2.0918,-7.24219 7.522,7.522 0 0 0 -11.417,0.009 q -2.11816,2.62793 -2.11816,7.33887 v 2.67188 a 11.34454,11.34454 0 0 0 2.10059,7.21582 7.52787,7.52787 0 0 0 11.45215,0.0439 q 2.07422,-2.61914 2.07422,-7.3125 z"
           inkscape:connector-curvature="0" />
        <path
           id="path7418"
           transform="translate(-0.05437,0.24881)"
           d="m 667.96875,598.27379 v 17.47266 a 8.84856,8.84856 0 0 1 -1.14258,4.5 7.48709,7.48709 0 0 1 -3.17285,2.94434 10.34062,10.34062 0 0 1 -4.70215,1.02832 9.27787,9.27787 0 0 1 -6.47754,-2.20605 8.08732,8.08732 0 0 1 -2.52246,-6.1084 v -17.63087 h 2.14453 v 17.31445 a 6.655,6.655 0 0 0 1.8457,5.01855 7.89811,7.89811 0 0 0 10.01074,-0.009 6.655,6.655 0 0 0 1.83691,-4.99219 v -17.332 z"
           inkscape:connector-curvature="0" />
        <path
           id="path7420"
           transform="translate(-0.05437,0.24881)"
           d="m 195.81494,664.42418 h -11.9707 v 10.44141 h 13.76367 v 1.82813 H 181.68213 V 651.1 H 197.52 v 1.82813 h -13.67576 v 9.668 h 11.9707 z"
           inkscape:connector-curvature="0" />
        <path
           id="path7422"
           transform="translate(-0.05437,0.24881)"
           d="m 246.03369,652.92809 h -8.77148 v 23.76563 h -2.16211 v -23.76563 h -8.75391 V 651.1 h 19.6875 z"
           inkscape:connector-curvature="0" />
        <path
           id="path7424"
           transform="translate(-0.05437,0.24881)"
           d="m 282.77051,665.057 7.82227,-13.957 h 2.49609 l -9.24609,15.96094 v 9.63281 h -2.16211 V 667.0609 L 272.45215,651.1 h 2.56641 z"
           inkscape:connector-curvature="0" />
        <path
           id="path7426"
           transform="translate(-0.05437,0.24881)"
           d="M 321.30176,676.69371 V 651.1 h 7.1543 a 11.13,11.13 0 0 1 5.64258,1.43262 9.90408,9.90408 0 0 1 3.89355,4.10449 12.9271,12.9271 0 0 1 1.39746,6.082 v 2.35547 a 12.92719,12.92719 0 0 1 -1.38867,6.082 9.88058,9.88058 0 0 1 -3.91113,4.0957 11.46623,11.46623 0 0 1 -5.792,1.44141 z m 2.16211,-23.76562 v 21.9375 h 4.85156 a 8.35136,8.35136 0 0 0 6.48633,-2.68262 10.36693,10.36693 0 0 0 2.44336,-7.25684 v -2.252 a 10.12877,10.12877 0 0 0 -2.4082,-7.07227 8.21014,8.21014 0 0 0 -6.3457,-2.67383 z"
           inkscape:connector-curvature="0" />
        <path
           id="path7428"
           transform="translate(-0.05437,0.24881)"
           d="m 383.73242,664.42418 h -11.9707 v 10.44141 h 13.76367 v 1.82813 H 369.59961 V 651.1 h 15.83789 v 1.82813 h -13.67578 v 9.668 h 11.9707 z"
           inkscape:connector-curvature="0" />
        <path
           id="path7430"
           transform="translate(-0.05437,0.24881)"
           d="m 415.18262,651.1 9.43945,22.58789 9.47461,-22.58789 h 2.88281 v 25.59375 h -2.16211 v -11.14457 l 0.17578,-11.42578 -9.52734,22.57031 h -1.66992 l -9.49219,-22.48242 0.17578,11.26758 v 11.21484 h -2.16211 V 651.1 Z"
           inkscape:connector-curvature="0" />
        <path
           id="path7432"
           transform="translate(-0.05437,0.24881)"
           d="m 471.7959,676.69371 h -2.16211 V 651.1 h 2.16211 z"
           inkscape:connector-curvature="0" />
        <path
           id="path7434"
           transform="translate(-0.05437,0.24881)"
           d="m 524.89844,664.42418 h -11.9707 v 10.44141 h 13.76367 v 1.82813 H 510.76563 V 651.1 h 15.83789 v 1.82813 h -13.67579 v 9.668 h 11.9707 z"
           inkscape:connector-curvature="0" />
        <path
           id="path7436"
           transform="translate(-0.05437,0.24881)"
           d="m 559.1377,666.26988 v 10.42383 h -2.16211 V 651.1 h 8.71875 a 9.19063,9.19063 0 0 1 6.30176,2.03906 8.01356,8.01356 0 0 1 0.0879,11.1709 q -2.22363,1.96 -6.44238,1.96 z m 0,-1.82812 h 6.55664 a 6.9209,6.9209 0 0 0 4.79883,-1.49609 5.34391,5.34391 0 0 0 1.65234,-4.17285 5.59138,5.59138 0 0 0 -1.64355,-4.2334 6.59091,6.59091 0 0 0 -4.667,-1.61133 h -6.69726 z"
           inkscape:connector-curvature="0" />
        <path
           id="path7438"
           transform="translate(-0.05437,0.24881)"
           d="m 617.68945,669.50426 h -11.61914 l -2.63672,7.18945 H 601.166 L 610.85156,651.1 h 2.05664 l 9.68555,25.59375 h -2.25 z m -10.95117,-1.82812 h 10.26563 l -5.13281,-13.93945 z"
           inkscape:connector-curvature="0" />
        <path
           id="path7440"
           transform="translate(-0.05437,0.24881)"
           d="m 649.46094,651.1 9.43945,22.58789 L 668.375,651.1 h 2.88281 v 25.59375 h -2.16211 v -11.14457 l 0.17578,-11.42578 -9.52734,22.57031 h -1.66992 l -9.49222,-22.48242 0.17578,11.26758 v 11.21484 H 646.5957 V 651.1 Z"
           inkscape:connector-curvature="0" />
      </g>
    </g>
  </g>
</svg>
